AfacadFlux-BoldItalic.ufo
<glyph name="exclam" format="2">
  <advance width="480"/>
  <unicode hex="0021"/>
  <outline>
    <contour>
      <point x="180" y="330" type="line"/>
      <point x="312" y="330" type="line"/>
      <point x="492" y="900" type="line"/>
      <point x="288" y="900" type="line"/>
    </contour>
    <contour>
      <point x="174" y="-20" type="curve" smooth="yes"/>
      <point x="237" y="-20"/>
      <point x="292" y="35"/>
      <point x="292" y="98" type="curve" smooth="yes"/>
      <point x="292" y="150"/>
      <point x="253" y="190"/>
      <point x="200" y="190" type="curve" smooth="yes"/>
      <point x="137" y="190"/>
      <point x="82" y="135"/>
      <point x="82" y="73" type="curve" smooth="yes"/>
      <point x="82" y="19"/>
      <point x="124" y="-20"/>
    </contour>
  </outline>
</glyph>
<glyph name="numbersign" format="2">
  <advance width="750"/>
  <unicode hex="0023"/>
  <outline>
    <contour>
      <point x="2" y="0" type="line"/>
      <point x="146" y="0" type="line"/>
      <point x="233" y="210" type="line"/>
      <point x="391" y="210" type="line"/>
      <point x="304" y="0" type="line"/>
      <point x="448" y="0" type="line"/>
      <point x="535" y="210" type="line"/>
      <point x="639" y="210" type="line"/>
      <point x="693" y="342" type="line"/>
      <point x="589" y="342" type="line"/>
      <point x="679" y="558" type="line"/>
      <point x="779" y="558" type="line"/>
      <point x="833" y="690" type="line"/>
      <point x="733" y="690" type="line"/>
      <point x="820" y="900" type="line"/>
      <point x="676" y="900" type="line"/>
      <point x="589" y="690" type="line"/>
      <point x="431" y="690" type="line"/>
      <point x="518" y="900" type="line"/>
      <point x="374" y="900" type="line"/>
      <point x="287" y="690" type="line"/>
      <point x="185" y="690" type="line"/>
      <point x="131" y="558" type="line"/>
      <point x="233" y="558" type="line"/>
      <point x="143" y="342" type="line"/>
      <point x="45" y="342" type="line"/>
      <point x="-9" y="210" type="line"/>
      <point x="89" y="210" type="line"/>
    </contour>
    <contour>
      <point x="276" y="334" type="line"/>
      <point x="372" y="566" type="line"/>
      <point x="546" y="566" type="line"/>
      <point x="450" y="334" type="line"/>
    </contour>
  </outline>
</glyph>
<glyph name="ampersand" format="2">
  <advance width="800"/>
  <unicode hex="0026"/>
  <outline>
    <contour>
      <point x="315" y="-18" type="curve" smooth="yes"/>
      <point x="374" y="-18"/>
      <point x="437" y="-2"/>
      <point x="500" y="30" type="curve"/>
      <point x="513" y="0" type="line"/>
      <point x="700" y="0" type="line"/>
      <point x="646" y="120" type="line"/>
      <point x="690" y="152"/>
      <point x="729" y="191"/>
      <point x="756" y="231" type="curve"/>
      <point x="685" y="393" type="line"/>
      <point x="668" y="340"/>
      <point x="635" y="288"/>
      <point x="592" y="246" type="curve"/>
      <point x="487" y="485" type="line"/>
      <point x="507" y="492" type="line" smooth="yes"/>
      <point x="637" y="537"/>
      <point x="713" y="620"/>
      <point x="713" y="717" type="curve" smooth="yes"/>
      <point x="713" y="833"/>
      <point x="620" y="918"/>
      <point x="493" y="918" type="curve" smooth="yes"/>
      <point x="358" y="918"/>
      <point x="243" y="808"/>
      <point x="243" y="680" type="curve" smooth="yes"/>
      <point x="243" y="640"/>
      <point x="250" y="608"/>
      <point x="271" y="560" type="curve" smooth="yes"/>
      <point x="274" y="553" type="line"/>
      <point x="127" y="493"/>
      <point x="40" y="378"/>
      <point x="40" y="247" type="curve" smooth="yes"/>
      <point x="40" y="93"/>
      <point x="156" y="-18"/>
    </contour>
    <contour>
      <point x="353" y="128" type="curve" smooth="yes"/>
      <point x="272" y="128"/>
      <point x="213" y="187"/>
      <point x="213" y="269" type="curve" smooth="yes"/>
      <point x="213" y="337"/>
      <point x="257" y="398"/>
      <point x="326" y="429" type="curve"/>
      <point x="446" y="155" type="line"/>
      <point x="423" y="139"/>
      <point x="387" y="128"/>
    </contour>
    <contour>
      <point x="432" y="603" type="line"/>
      <point x="418" y="635" type="line" smooth="yes"/>
      <point x="406" y="661"/>
      <point x="401" y="682"/>
      <point x="401" y="700" type="curve" smooth="yes"/>
      <point x="401" y="748"/>
      <point x="440" y="786"/>
      <point x="487" y="786" type="curve" smooth="yes"/>
      <point x="527" y="786"/>
      <point x="554" y="759"/>
      <point x="554" y="719" type="curve" smooth="yes"/>
      <point x="554" y="676"/>
      <point x="523" y="641"/>
      <point x="466" y="617" type="curve" smooth="yes"/>
    </contour>
  </outline>
</glyph>
<glyph name="quotesingle" format="2">
  <advance width="300"/>
  <unicode hex="0027"/>
  <outline>
    <contour>
      <point x="150" y="540" type="line"/>
      <point x="258" y="540" type="line"/>
      <point x="390" y="900" type="line"/>
      <point x="198" y="900" type="line"/>
    </contour>
  </outline>
</glyph>
<glyph name="parenleft" format="2">
  <advance width="480"/>
  <unicode hex="0028"/>
  <outline>
    <contour>
      <point x="138" y="-180" type="curve"/>
      <point x="303" y="-180" type="line"/>
      <point x="262" y="-79"/>
      <point x="241" y="31"/>
      <point x="241" y="147" type="curve" smooth="yes"/>
      <point x="241" y="425"/>
      <point x="363" y="735"/>
      <point x="605" y="960" type="curve"/>
      <point x="411" y="960" type="line"/>
      <point x="198" y="730"/>
      <point x="80" y="440"/>
      <point x="80" y="156" type="curve" smooth="yes"/>
      <point x="80" y="38"/>
      <point x="100" y="-75"/>
    </contour>
  </outline>
</glyph>
<glyph name="parenright" format="2">
  <advance width="480"/>
  <unicode hex="0029"/>
  <outline>
    <contour>
      <point x="-80" y="-180" type="curve"/>
      <point x="114" y="-180" type="line"/>
      <point x="327" y="50"/>
      <point x="445" y="340"/>
      <point x="445" y="624" type="curve" smooth="yes"/>
      <point x="445" y="742"/>
      <point x="425" y="855"/>
      <point x="387" y="960" type="curve"/>
      <point x="222" y="960" type="line"/>
      <point x="263" y="859"/>
      <point x="284" y="749"/>
      <point x="284" y="633" type="curve" smooth="yes"/>
      <point x="284" y="355"/>
      <point x="162" y="45"/>
    </contour>
  </outline>
</glyph>
<glyph name="plus" format="2">
  <advance width="750"/>
  <unicode hex="002B"/>
  <outline>
    <contour>
      <point x="259" y="125" type="line"/>
      <point x="403" y="125" type="line"/>
      <point x="467" y="381" type="line"/>
      <point x="720" y="381" type="line"/>
      <point x="754" y="519" type="line"/>
      <point x="501" y="519" type="line"/>
      <point x="565" y="775" type="line"/>
      <point x="421" y="775" type="line"/>
      <point x="357" y="519" type="line"/>
      <point x="104" y="519" type="line"/>
      <point x="70" y="381" type="line"/>
      <point x="323" y="381" type="line"/>
    </contour>
  </outline>
</glyph>
<glyph name="slash" format="2">
  <advance width="520"/>
  <unicode hex="002F"/>
  <outline>
    <contour>
      <point x="-200" y="-180" type="line"/>
      <point x="-37" y="-180" type="line"/>
      <point x="765" y="960" type="line"/>
      <point x="602" y="960" type="line"/>
    </contour>
  </outline>
</glyph>
<glyph name="one" format="2">
  <advance width="750"/>
  <unicode hex="0031"/>
  <outline>
    <contour>
      <point x="75" y="0" type="line"/>
      <point x="585" y="0" type="line"/>
      <point x="621" y="144" type="line"/>
      <point x="471" y="144" type="line"/>
      <point x="668" y="932" type="line"/>
      <point x="666" y="932" type="line"/>
      <point x="263" y="752" type="line"/>
      <point x="217" y="570" type="line"/>
      <point x="432" y="666" type="line"/>
      <point x="301" y="144" type="line"/>
      <point x="111" y="144" type="line"/>
    </contour>
  </outline>
</glyph>
<glyph name="two" format="2">
  <advance width="750"/>
  <unicode hex="0032"/>
  <outline>
    <contour>
      <point x="1" y="0" type="line"/>
      <point x="591" y="0" type="line"/>
      <point x="631" y="162" type="line"/>
      <point x="358" y="162" type="line"/>
      <point x="612" y="421" type="line" smooth="yes"/>
      <point x="693" y="504"/>
      <point x="738" y="568"/>
      <point x="738" y="661" type="curve" smooth="yes"/>
      <point x="738" y="804"/>
      <point x="622" y="915"/>
      <point x="472" y="915" type="curve" smooth="yes"/>
      <point x="298" y="915"/>
      <point x="149" y="764"/>
      <point x="149" y="611" type="curve" smooth="yes"/>
      <point x="149" y="581"/>
      <point x="154" y="552"/>
      <point x="167" y="518" type="curve"/>
      <point x="353" y="518" type="line"/>
      <point x="329" y="551"/>
      <point x="317" y="582"/>
      <point x="317" y="615" type="curve" smooth="yes"/>
      <point x="317" y="691"/>
      <point x="380" y="755"/>
      <point x="453" y="755" type="curve" smooth="yes"/>
      <point x="517" y="755"/>
      <point x="562" y="708"/>
      <point x="562" y="649" type="curve" smooth="yes"/>
      <point x="562" y="601"/>
      <point x="534" y="566"/>
      <point x="496" y="526" type="curve" smooth="yes"/>
      <point x="1" y="2" type="line"/>
    </contour>
  </outline>
</glyph>
<glyph name="six" format="2">
  <advance width="750"/>
  <unicode hex="0036"/>
  <outline>
    <contour>
      <point x="356" y="-20" type="curve" smooth="yes"/>
      <point x="557" y="-20"/>
      <point x="722" y="150"/>
      <point x="722" y="333" type="curve" smooth="yes"/>
      <point x="722" y="494"/>
      <point x="594" y="606"/>
      <point x="456" y="606" type="curve" smooth="yes"/>
      <point x="451" y="606"/>
      <point x="444" y="605"/>
      <point x="439" y="604" type="curve"/>
      <point x="691" y="900" type="line"/>
      <point x="489" y="900" type="line"/>
      <point x="148" y="486" type="line" smooth="yes"/>
      <point x="89" y="415"/>
      <point x="59" y="338"/>
      <point x="59" y="260" type="curve" smooth="yes"/>
      <point x="59" y="100"/>
      <point x="186" y="-20"/>
    </contour>
    <contour>
      <point x="372" y="142" type="curve" smooth="yes"/>
      <point x="287" y="142"/>
      <point x="231" y="207"/>
      <point x="231" y="281" type="curve" smooth="yes"/>
      <point x="231" y="371"/>
      <point x="312" y="456"/>
      <point x="410" y="456" type="curve" smooth="yes"/>
      <point x="495" y="456"/>
      <point x="551" y="394"/>
      <point x="551" y="319" type="curve" smooth="yes"/>
      <point x="551" y="229"/>
      <point x="469" y="142"/>
    </contour>
  </outline>
</glyph>
<glyph name="seven" format="2">
  <advance width="750"/>
  <unicode hex="0037"/>
  <outline>
    <contour>
      <point x="10" y="0" type="line"/>
      <point x="218" y="0" type="line"/>
      <point x="866" y="898" type="line"/>
      <point x="866" y="900" type="line"/>
      <point x="213" y="900" type="line"/>
      <point x="173" y="738" type="line"/>
      <point x="546" y="738" type="line"/>
    </contour>
  </outline>
</glyph>
<glyph name="less" format="2">
  <advance width="750"/>
  <unicode hex="003C"/>
  <outline>
    <contour>
      <point x="635" y="127" type="line"/>
      <point x="672" y="274" type="line"/>
      <point x="460" y="389" type="line" smooth="yes"/>
      <point x="428" y="407"/>
      <point x="389" y="424"/>
      <point x="352" y="440" type="curve"/>
      <point x="397" y="457"/>
      <point x="444" y="474"/>
      <point x="486" y="492" type="curve" smooth="yes"/>
      <point x="754" y="608" type="line"/>
      <point x="795" y="773" type="line"/>
      <point x="61" y="451" type="line"/>
      <point x="61" y="449" type="line"/>
    </contour>
  </outline>
</glyph>
<glyph name="equal" format="2">
  <advance width="750"/>
  <unicode hex="003D"/>
  <outline>
    <contour>
      <point x="131" y="505" type="line"/>
      <point x="721" y="505" type="line"/>
      <point x="755" y="643" type="line"/>
      <point x="165" y="643" type="line"/>
    </contour>
    <contour>
      <point x="69" y="257" type="line"/>
      <point x="659" y="257" type="line"/>
      <point x="693" y="395" type="line"/>
      <point x="103" y="395" type="line"/>
    </contour>
  </outline>
</glyph>
<glyph name="greater" format="2">
  <advance width="750"/>
  <unicode hex="003E"/>
  <outline>
    <contour>
      <point x="29" y="127" type="line"/>
      <point x="763" y="449" type="line"/>
      <point x="763" y="451" type="line"/>
      <point x="189" y="773" type="line"/>
      <point x="152" y="626" type="line"/>
      <point x="364" y="511" type="line" smooth="yes"/>
      <point x="396" y="493"/>
      <point x="435" y="476"/>
      <point x="472" y="460" type="curve"/>
      <point x="427" y="443"/>
      <point x="380" y="426"/>
      <point x="338" y="408" type="curve" smooth="yes"/>
      <point x="70" y="292" type="line"/>
    </contour>
  </outline>
</glyph>
<glyph name="question" format="2">
  <advance width="480"/>
  <unicode hex="003F"/>
  <outline>
    <contour>
      <point x="179" y="330" type="curve"/>
      <point x="316" y="330" type="line"/>
      <point x="381" y="488"/>
      <point x="562" y="552"/>
      <point x="562" y="725" type="curve" smooth="yes"/>
      <point x="562" y="853"/>
      <point x="462" y="918"/>
      <point x="349" y="918" type="curve" smooth="yes"/>
      <point x="299" y="918"/>
      <point x="254" y="906"/>
      <point x="211" y="883" type="curve"/>
      <point x="169" y="706" type="line"/>
      <point x="203" y="733"/>
      <point x="253" y="762"/>
      <point x="309" y="762" type="curve" smooth="yes"/>
      <point x="363" y="762"/>
      <point x="393" y="731"/>
      <point x="393" y="697" type="curve" smooth="yes"/>
      <point x="393" y="611"/>
      <point x="210" y="498"/>
    </contour>
    <contour>
      <point x="174" y="-20" type="curve" smooth="yes"/>
      <point x="237" y="-20"/>
      <point x="292" y="35"/>
      <point x="292" y="98" type="curve" smooth="yes"/>
      <point x="292" y="150"/>
      <point x="253" y="190"/>
      <point x="200" y="190" type="curve" smooth="yes"/>
      <point x="137" y="190"/>
      <point x="82" y="135"/>
      <point x="82" y="73" type="curve" smooth="yes"/>
      <point x="82" y="19"/>
      <point x="124" y="-20"/>
    </contour>
  </outline>
</glyph>
<glyph name="A" format="2">
  <advance width="820"/>
  <unicode hex="0041"/>
  <anchor x="335" y="0" name="bottom"/>
  <anchor x="648" y="0" name="ogonek"/>
  <anchor x="557" y="900" name="top"/>
  <anchor x="233" y="720" name="top-vertical"/>
  <outline>
    <contour>
      <point x="-63" y="0" type="line"/>
      <point x="122" y="0" type="line"/>
      <point x="229" y="160" type="line"/>
      <point x="535" y="160" type="line"/>
      <point x="562" y="0" type="line"/>
      <point x="733" y="0" type="line"/>
      <point x="566" y="932" type="line"/>
      <point x="564" y="932" type="line"/>
    </contour>
    <contour>
      <point x="325" y="304" type="line"/>
      <point x="386" y="396" type="line" smooth="yes"/>
      <point x="419" y="445"/>
      <point x="446" y="488"/>
      <point x="476" y="548" type="curve"/>
      <point x="477" y="487"/>
      <point x="485" y="445"/>
      <point x="494" y="396" type="curve" smooth="yes"/>
      <point x="510" y="304" type="line"/>
    </contour>
  </outline>
</glyph>
<glyph name="B" format="2">
  <advance width="750"/>
  <unicode hex="0042"/>
  <outline>
    <contour>
      <point x="21" y="0" type="line"/>
      <point x="352" y="0" type="line" smooth="yes"/>
      <point x="536" y="0"/>
      <point x="701" y="156"/>
      <point x="701" y="331" type="curve" smooth="yes"/>
      <point x="701" y="409"/>
      <point x="667" y="478"/>
      <point x="613" y="525" type="curve"/>
      <point x="676" y="566"/>
      <point x="718" y="639"/>
      <point x="718" y="716" type="curve" smooth="yes"/>
      <point x="718" y="823"/>
      <point x="637" y="900"/>
      <point x="522" y="900" type="curve" smooth="yes"/>
      <point x="246" y="900" type="line"/>
    </contour>
    <contour>
      <point x="235" y="162" type="line"/>
      <point x="312" y="468" type="line"/>
      <point x="374" y="468" type="line" smooth="yes"/>
      <point x="456" y="468"/>
      <point x="513" y="413"/>
      <point x="513" y="336" type="curve" smooth="yes"/>
      <point x="513" y="243"/>
      <point x="431" y="162"/>
      <point x="338" y="162" type="curve" smooth="yes"/>
    </contour>
    <contour>
      <point x="344" y="594" type="line"/>
      <point x="387" y="768" type="line"/>
      <point x="471" y="768" type="line" smooth="yes"/>
      <point x="517" y="768"/>
      <point x="550" y="737"/>
      <point x="550" y="693" type="curve" smooth="yes"/>
      <point x="550" y="640"/>
      <point x="503" y="594"/>
      <point x="450" y="594" type="curve" smooth="yes"/>
    </contour>
  </outline>
</glyph>
<glyph name="E" format="2">
  <advance width="630"/>
  <unicode hex="0045"/>
  <anchor x="273" y="0" name="bottom"/>
  <anchor x="423" y="0" name="ogonek"/>
  <anchor x="498" y="900" name="top"/>
  <anchor x="276" y="900" name="topleft"/>
  <outline>
    <contour>
      <point x="21" y="0" type="line"/>
      <point x="501" y="0" type="line"/>
      <point x="541" y="162" type="line"/>
      <point x="235" y="162" type="line"/>
      <point x="309" y="456" type="line"/>
      <point x="546" y="456" type="line"/>
      <point x="583" y="606" type="line"/>
      <point x="347" y="606" type="line"/>
      <point x="381" y="744" type="line"/>
      <point x="687" y="744" type="line"/>
      <point x="726" y="900" type="line"/>
      <point x="246" y="900" type="line"/>
    </contour>
  </outline>
</glyph>
<glyph name="H" format="2">
  <advance width="800"/>
  <unicode hex="0048"/>
  <anchor x="328" y="0" name="bottom"/>
  <anchor x="513" y="750" name="center"/>
  <anchor x="550" y="900" name="top"/>
  <anchor x="276" y="900" name="topleft"/>
  <outline>
    <contour>
      <point x="21" y="0" type="line"/>
      <point x="195" y="0" type="line"/>
      <point x="308" y="450" type="line"/>
      <point x="568" y="450" type="line"/>
      <point x="455" y="0" type="line"/>
      <point x="629" y="0" type="line"/>
      <point x="854" y="900" type="line"/>
      <point x="680" y="900" type="line"/>
      <point x="609" y="612" type="line"/>
      <point x="349" y="612" type="line"/>
      <point x="420" y="900" type="line"/>
      <point x="246" y="900" type="line"/>
    </contour>
  </outline>
</glyph>
<glyph name="J" format="2">
  <advance width="560"/>
  <unicode hex="004A"/>
  <anchor x="205" y="0" name="bottom"/>
  <anchor x="533" y="900" name="top"/>
  <outline>
    <contour>
      <point x="164" y="-20" type="curve" smooth="yes"/>
      <point x="288" y="-20"/>
      <point x="415" y="59"/>
      <point x="460" y="238" type="curve" smooth="yes"/>
      <point x="626" y="900" type="line"/>
      <point x="440" y="900" type="line"/>
      <point x="282" y="273" type="line" smooth="yes"/>
      <point x="260" y="187"/>
      <point x="213" y="148"/>
      <point x="157" y="148" type="curve" smooth="yes"/>
      <point x="101" y="148"/>
      <point x="57" y="186"/>
      <point x="41" y="230" type="curve"/>
      <point x="-46" y="71" type="line"/>
      <point x="0" y="0"/>
      <point x="101" y="-20"/>
    </contour>
  </outline>
</glyph>
<glyph name="L" format="2">
  <advance width="600"/>
  <unicode hex="004C"/>
  <anchor x="264" y="0" name="bottom"/>
  <anchor x="219" y="450" name="center"/>
  <anchor x="463" y="480" name="periodcentered"/>
  <anchor x="339" y="900" name="top"/>
  <anchor x="432" y="900" name="topright"/>
  <outline>
    <contour>
      <point x="21" y="0" type="line"/>
      <point x="477" y="0" type="line"/>
      <point x="517" y="162" type="line"/>
      <point x="247" y="162" type="line"/>
      <point x="432" y="900" type="line"/>
      <point x="246" y="900" type="line"/>
    </contour>
  </outline>
</glyph>
<glyph name="M" format="2">
  <advance width="1040"/>
  <unicode hex="004D"/>
  <outline>
    <contour>
      <point x="21" y="0" type="line"/>
      <point x="189" y="0" type="line"/>
      <point x="248" y="234" type="line" smooth="yes"/>
      <point x="265" y="300"/>
      <point x="286" y="378"/>
      <point x="298" y="487" type="curve"/>
      <point x="321" y="414"/>
      <point x="359" y="345"/>
      <point x="382" y="299" type="curve" smooth="yes"/>
      <point x="470" y="125" type="line"/>
      <point x="695" y="347" type="line" smooth="yes"/>
      <point x="733" y="385"/>
      <point x="776" y="426"/>
      <point x="824" y="487" type="curve"/>
      <point x="797" y="400"/>
      <point x="780" y="336"/>
      <point x="766" y="282" type="curve" smooth="yes"/>
      <point x="695" y="0" type="line"/>
      <point x="869" y="0" type="line"/>
      <point x="1107" y="954" type="line"/>
      <point x="1105" y="954" type="line"/>
      <point x="532" y="397" type="line"/>
      <point x="249" y="906" type="line"/>
      <point x="247" y="906" type="line"/>
    </contour>
  </outline>
</glyph>
<glyph name="N" format="2">
  <advance width="900"/>
  <unicode hex="004E"/>
  <anchor x="450" y="60" name="bottom"/>
  <anchor x="525" y="840" name="top"/>
  <outline>
    <contour>
      <point x="720" y="-30" type="line"/>
      <point x="722" y="-30" type="line"/>
      <point x="954" y="900" type="line"/>
      <point x="786" y="900" type="line"/>
      <point x="653" y="365" type="line"/>
      <point x="255" y="930" type="line"/>
      <point x="253" y="930" type="line"/>
      <point x="21" y="0" type="line"/>
      <point x="189" y="0" type="line"/>
      <point x="322" y="536" type="line"/>
    </contour>
  </outline>
</glyph>
<glyph name="P" format="2">
  <advance width="740"/>
  <unicode hex="0050"/>
  <outline>
    <contour>
      <point x="21" y="0" type="line"/>
      <point x="195" y="0" type="line"/>
      <point x="267" y="289" type="line"/>
      <point x="431" y="289" type="line" smooth="yes"/>
      <point x="624" y="289"/>
      <point x="784" y="440"/>
      <point x="784" y="621" type="curve" smooth="yes"/>
      <point x="784" y="780"/>
      <point x="661" y="900"/>
      <point x="498" y="900" type="curve" smooth="yes"/>
      <point x="246" y="900" type="line"/>
    </contour>
    <contour>
      <point x="306" y="445" type="line"/>
      <point x="381" y="744" type="line"/>
      <point x="456" y="744" type="line" smooth="yes"/>
      <point x="545" y="744"/>
      <point x="604" y="692"/>
      <point x="604" y="615" type="curve" smooth="yes"/>
      <point x="604" y="521"/>
      <point x="521" y="445"/>
      <point x="420" y="445" type="curve" smooth="yes"/>
    </contour>
  </outline>
</glyph>
<glyph name="Q" format="2">
  <advance width="1060"/>
  <unicode hex="0051"/>
  <outline>
    <contour>
      <point x="745" y="-30" type="line"/>
      <point x="935" y="-30" type="line"/>
      <point x="852" y="112" type="line"/>
      <point x="966" y="210"/>
      <point x="1042" y="353"/>
      <point x="1042" y="503" type="curve" smooth="yes"/>
      <point x="1042" y="736"/>
      <point x="860" y="918"/>
      <point x="621" y="918" type="curve" smooth="yes"/>
      <point x="342" y="918"/>
      <point x="92" y="670"/>
      <point x="92" y="396" type="curve" smooth="yes"/>
      <point x="92" y="163"/>
      <point x="274" y="-18"/>
      <point x="513" y="-18" type="curve" smooth="yes"/>
      <point x="583" y="-18"/>
      <point x="651" y="-3"/>
      <point x="713" y="25" type="curve"/>
    </contour>
    <contour>
      <point x="533" y="156" type="curve" smooth="yes"/>
      <point x="391" y="156"/>
      <point x="282" y="268"/>
      <point x="282" y="413" type="curve" smooth="yes"/>
      <point x="282" y="586"/>
      <point x="433" y="744"/>
      <point x="602" y="744" type="curve" smooth="yes"/>
      <point x="745" y="744"/>
      <point x="852" y="634"/>
      <point x="852" y="489" type="curve" smooth="yes"/>
      <point x="852" y="405"/>
      <point x="817" y="325"/>
      <point x="763" y="264" type="curve"/>
      <point x="654" y="450" type="line"/>
      <point x="466" y="450" type="line"/>
      <point x="629" y="173" type="line"/>
      <point x="598" y="162"/>
      <point x="566" y="156"/>
    </contour>
  </outline>
</glyph>
<glyph name="R" format="2">
  <advance width="800"/>
  <unicode hex="0052"/>
  <anchor x="366" y="0" name="bottom"/>
  <anchor x="474" y="900" name="top"/>
  <outline>
    <contour>
      <point x="26" y="0" type="line"/>
      <point x="200" y="0" type="line"/>
      <point x="285" y="342" type="line"/>
      <point x="431" y="342" type="line"/>
      <point x="546" y="0" type="line"/>
      <point x="731" y="0" type="line"/>
      <point x="594" y="386" type="line"/>
      <point x="699" y="427"/>
      <point x="761" y="531"/>
      <point x="761" y="641" type="curve" smooth="yes"/>
      <point x="761" y="781"/>
      <point x="641" y="900"/>
      <point x="494" y="900" type="curve" smooth="yes"/>
      <point x="249" y="900" type="line"/>
    </contour>
    <contour>
      <point x="322" y="492" type="line"/>
      <point x="384" y="744" type="line"/>
      <point x="460" y="744" type="line" smooth="yes"/>
      <point x="536" y="744"/>
      <point x="587" y="701"/>
      <point x="587" y="635" type="curve" smooth="yes"/>
      <point x="587" y="557"/>
      <point x="516" y="492"/>
      <point x="430" y="492" type="curve" smooth="yes"/>
    </contour>
  </outline>
</glyph>
<glyph name="T" format="2">
  <advance width="710"/>
  <unicode hex="0054"/>
  <anchor x="280" y="0" name="bottom"/>
  <anchor x="391" y="450" name="center"/>
  <anchor x="505" y="900" name="top"/>
  <outline>
    <contour>
      <point x="187" y="0" type="line"/>
      <point x="373" y="0" type="line"/>
      <point x="558" y="738" type="line"/>
      <point x="778" y="738" type="line"/>
      <point x="818" y="900" type="line"/>
      <point x="192" y="900" type="line"/>
      <point x="152" y="738" type="line"/>
      <point x="372" y="738" type="line"/>
    </contour>
  </outline>
</glyph>
<glyph name="V" format="2">
  <advance width="770"/>
  <unicode hex="0056"/>
  <outline>
    <contour>
      <point x="303" y="-30" type="line"/>
      <point x="305" y="-30" type="line"/>
      <point x="914" y="900" type="line"/>
      <point x="723" y="900" type="line"/>
      <point x="483" y="530" type="line" smooth="yes"/>
      <point x="454" y="485"/>
      <point x="431" y="450"/>
      <point x="407" y="404" type="curve"/>
      <point x="404" y="452"/>
      <point x="396" y="488"/>
      <point x="390" y="530" type="curve" smooth="yes"/>
      <point x="336" y="900" type="line"/>
      <point x="156" y="900" type="line"/>
    </contour>
  </outline>
</glyph>
<glyph name="X" format="2">
  <advance width="870"/>
  <unicode hex="0058"/>
  <outline>
    <contour>
      <point x="-69" y="0" type="line"/>
      <point x="155" y="0" type="line"/>
      <point x="388" y="267" type="line" smooth="yes"/>
      <point x="411" y="293"/>
      <point x="436" y="321"/>
      <point x="459" y="357" type="curve"/>
      <point x="471" y="321"/>
      <point x="480" y="293"/>
      <point x="490" y="267" type="curve" smooth="yes"/>
      <point x="599" y="0" type="line"/>
      <point x="795" y="0" type="line"/>
      <point x="592" y="495" type="line"/>
      <point x="947" y="900" type="line"/>
      <point x="731" y="900" type="line"/>
      <point x="625" y="778" type="line" smooth="yes"/>
      <point x="591" y="740"/>
      <point x="557" y="701"/>
      <point x="521" y="647" type="curve"/>
      <point x="503" y="700"/>
      <point x="489" y="739"/>
      <point x="474" y="778" type="curve" smooth="yes"/>
      <point x="425" y="900" type="line"/>
      <point x="233" y="900" type="line"/>
      <point x="388" y="523" type="line"/>
    </contour>
  </outline>
</glyph>
<glyph name="Y" format="2">
  <advance width="710"/>
  <unicode hex="0059"/>
  <anchor x="281" y="0" name="bottom"/>
  <anchor x="503" y="900" name="top"/>
  <anchor x="180" y="900" name="topleft"/>
  <outline>
    <contour>
      <point x="190" y="0" type="line"/>
      <point x="370" y="0" type="line"/>
      <point x="477" y="426" type="line"/>
      <point x="854" y="900" type="line"/>
      <point x="652" y="900" type="line"/>
      <point x="495" y="698" type="line" smooth="yes"/>
      <point x="472" y="668"/>
      <point x="450" y="641"/>
      <point x="424" y="599" type="curve"/>
      <point x="419" y="640"/>
      <point x="410" y="669"/>
      <point x="402" y="698" type="curve" smooth="yes"/>
      <point x="346" y="900" type="line"/>
      <point x="156" y="900" type="line"/>
      <point x="297" y="426" type="line"/>
    </contour>
  </outline>
</glyph>
<glyph name="Z" format="2">
  <advance width="680"/>
  <unicode hex="005A"/>
  <anchor x="249" y="0" name="bottom"/>
  <anchor x="369" y="450" name="center"/>
  <anchor x="504" y="900" name="top"/>
  <outline>
    <contour>
      <point x="-57" y="0" type="line"/>
      <point x="554" y="0" type="line"/>
      <point x="594" y="162" type="line"/>
      <point x="253" y="162" type="line"/>
      <point x="800" y="898" type="line"/>
      <point x="800" y="900" type="line"/>
      <point x="213" y="900" type="line"/>
      <point x="173" y="738" type="line"/>
      <point x="490" y="738" type="line"/>
      <point x="-57" y="2" type="line"/>
    </contour>
  </outline>
</glyph>
<glyph name="backslash" format="2">
  <advance width="520"/>
  <unicode hex="005C"/>
  <outline>
    <contour>
      <point x="352" y="-180" type="line"/>
      <point x="495" y="-180" type="line"/>
      <point x="219" y="960" type="line"/>
      <point x="75" y="960" type="line"/>
    </contour>
  </outline>
</glyph>
<glyph name="asciicircum" format="2">
  <advance width="750"/>
  <unicode hex="005E"/>
  <outline>
    <contour>
      <point x="18" y="162" type="line"/>
      <point x="185" y="162" type="line"/>
      <point x="360" y="402" type="line" smooth="yes"/>
      <point x="387" y="439"/>
      <point x="414" y="482"/>
      <point x="440" y="523" type="curve"/>
      <point x="447" y="482"/>
      <point x="454" y="439"/>
      <point x="463" y="402" type="curve" smooth="yes"/>
      <point x="519" y="162" type="line"/>
      <point x="664" y="162" type="line"/>
      <point x="505" y="816" type="line"/>
      <point x="503" y="816" type="line"/>
    </contour>
  </outline>
</glyph>
<glyph name="underscore" format="2">
  <advance width="750"/>
  <unicode hex="005F"/>
  <outline>
    <contour>
      <point x="-130" y="-201" type="line"/>
      <point x="632" y="-201" type="line"/>
      <point x="664" y="-69" type="line"/>
      <point x="-98" y="-69" type="line"/>
    </contour>
  </outline>
</glyph>
<glyph name="b" format="2">
  <advance width="740"/>
  <unicode hex="0062"/>
  <anchor x="303" y="0" name="bottom"/>
  <anchor x="528" y="914" name="top"/>
  <outline>
    <contour>
      <point x="353" y="-14" type="curve" smooth="yes"/>
      <point x="534" y="-14"/>
      <point x="704" y="152"/>
      <point x="704" y="344" type="curve" smooth="yes"/>
      <point x="704" y="497"/>
      <point x="595" y="614"/>
      <point x="452" y="614" type="curve" smooth="yes"/>
      <point x="398" y="614"/>
      <point x="350" y="598"/>
      <point x="308" y="571" type="curve"/>
      <point x="405" y="960" type="line"/>
      <point x="231" y="960" type="line"/>
      <point x="-9" y="0" type="line"/>
      <point x="141" y="0" type="line"/>
      <point x="158" y="65" type="line"/>
      <point x="206" y="15"/>
      <point x="276" y="-14"/>
    </contour>
    <contour>
      <point x="366" y="140" type="curve" smooth="yes"/>
      <point x="285" y="140"/>
      <point x="228" y="200"/>
      <point x="228" y="280" type="curve" smooth="yes"/>
      <point x="228" y="375"/>
      <point x="308" y="461"/>
      <point x="404" y="461" type="curve" smooth="yes"/>
      <point x="485" y="461"/>
      <point x="542" y="399"/>
      <point x="542" y="320" type="curve" smooth="yes"/>
      <point x="542" y="226"/>
      <point x="462" y="140"/>
    </contour>
  </outline>
</glyph>
<glyph name="c" format="2">
  <advance width="600"/>
  <unicode hex="0063"/>
  <anchor x="327" y="0" name="bottom"/>
  <anchor x="445" y="600" name="top"/>
  <outline>
    <contour>
      <point x="329" y="-18" type="curve" smooth="yes"/>
      <point x="405" y="-18"/>
      <point x="476" y="3"/>
      <point x="527" y="44" type="curve"/>
      <point x="527" y="242" type="line"/>
      <point x="501" y="196"/>
      <point x="436" y="138"/>
      <point x="347" y="138" type="curve" smooth="yes"/>
      <point x="259" y="138"/>
      <point x="201" y="199"/>
      <point x="201" y="280" type="curve" smooth="yes"/>
      <point x="201" y="376"/>
      <point x="282" y="463"/>
      <point x="385" y="463" type="curve" smooth="yes"/>
      <point x="453" y="463"/>
      <point x="501" y="426"/>
      <point x="520" y="373" type="curve"/>
      <point x="605" y="546" type="line"/>
      <point x="554" y="591"/>
      <point x="486" y="618"/>
      <point x="404" y="618" type="curve" smooth="yes"/>
      <point x="206" y="618"/>
      <point x="36" y="451"/>
      <point x="36" y="264" type="curve" smooth="yes"/>
      <point x="36" y="99"/>
      <point x="166" y="-18"/>
    </contour>
  </outline>
</glyph>
<glyph name="e" format="2">
  <advance width="690"/>
  <unicode hex="0065"/>
  <anchor x="278" y="0" name="bottom"/>
  <anchor x="418" y="0" name="ogonek"/>
  <anchor x="411" y="600" name="top"/>
  <outline>
    <contour>
      <point x="340" y="-20" type="curve" smooth="yes"/>
      <point x="416" y="-20"/>
      <point x="489" y="5"/>
      <point x="539" y="44" type="curve"/>
      <point x="539" y="216" type="line"/>
      <point x="507" y="165"/>
      <point x="426" y="124"/>
      <point x="357" y="124" type="curve" smooth="yes"/>
      <point x="274" y="124"/>
      <point x="215" y="173"/>
      <point x="203" y="257" type="curve"/>
      <point x="231" y="251"/>
      <point x="255" y="249"/>
      <point x="281" y="249" type="curve" smooth="yes"/>
      <point x="647" y="249" type="line"/>
      <point x="660" y="301" type="line" smooth="yes"/>
      <point x="705" y="482"/>
      <point x="598" y="620"/>
      <point x="411" y="620" type="curve" smooth="yes"/>
      <point x="208" y="620"/>
      <point x="36" y="457"/>
      <point x="36" y="264" type="curve" smooth="yes"/>
      <point x="36" y="102"/>
      <point x="165" y="-20"/>
    </contour>
    <contour>
      <point x="203" y="362" type="curve"/>
      <point x="232" y="433"/>
      <point x="300" y="481"/>
      <point x="382" y="481" type="curve" smooth="yes"/>
      <point x="461" y="481"/>
      <point x="508" y="438"/>
      <point x="514" y="366" type="curve"/>
      <point x="485" y="372"/>
      <point x="454" y="375"/>
      <point x="418" y="375" type="curve" smooth="yes"/>
      <point x="312" y="375" type="line" smooth="yes"/>
      <point x="279" y="375"/>
      <point x="245" y="371"/>
    </contour>
  </outline>
</glyph>
<glyph name="f" format="2">
  <advance width="450"/>
  <unicode hex="0066"/>
  <anchor x="145" y="0" name="bottom"/>
  <anchor x="481" y="960" name="top"/>
  <outline>
    <contour>
      <point x="61" y="0" type="line"/>
      <point x="235" y="0" type="line"/>
      <point x="351" y="462" type="line"/>
      <point x="467" y="462" type="line"/>
      <point x="501" y="600" type="line"/>
      <point x="383" y="600" type="line"/>
      <point x="422" y="755" type="line" smooth="yes"/>
      <point x="438" y="819"/>
      <point x="470" y="837"/>
      <point x="499" y="837" type="curve" smooth="yes"/>
      <point x="532" y="837"/>
      <point x="553" y="821"/>
      <point x="569" y="790" type="curve"/>
      <point x="637" y="925" type="line"/>
      <point x="600" y="959"/>
      <point x="538" y="972"/>
      <point x="492" y="972" type="curve" smooth="yes"/>
      <point x="384" y="972"/>
      <point x="291" y="908"/>
      <point x="257" y="771" type="curve" smooth="yes"/>
      <point x="214" y="600" type="line"/>
      <point x="99" y="600" type="line"/>
      <point x="65" y="462" type="line"/>
      <point x="177" y="462" type="line"/>
    </contour>
  </outline>
</glyph>
<glyph name="g" format="2">
  <advance width="740"/>
  <unicode hex="0067"/>
  <anchor x="217" y="-360" name="bottom"/>
  <anchor x="597" y="300" name="center"/>
  <anchor x="453" y="600" name="top"/>
  <outline>
    <contour>
      <point x="225" y="-316" type="curve" smooth="yes"/>
      <point x="386" y="-316"/>
      <point x="544" y="-223"/>
      <point x="587" y="-48" type="curve" smooth="yes"/>
      <point x="748" y="600" type="line"/>
      <point x="598" y="600" type="line"/>
      <point x="582" y="535" type="line"/>
      <point x="534" y="585"/>
      <point x="464" y="614"/>
      <point x="387" y="614" type="curve" smooth="yes"/>
      <point x="206" y="614"/>
      <point x="36" y="448"/>
      <point x="36" y="256" type="curve" smooth="yes"/>
      <point x="36" y="103"/>
      <point x="145" y="-14"/>
      <point x="288" y="-14" type="curve" smooth="yes"/>
      <point x="354" y="-14"/>
      <point x="412" y="11"/>
      <point x="459" y="49" type="curve"/>
      <point x="445" y="-5" type="line" smooth="yes"/>
      <point x="419" y="-103"/>
      <point x="343" y="-168"/>
      <point x="238" y="-168" type="curve" smooth="yes"/>
      <point x="151" y="-168"/>
      <point x="70" y="-124"/>
      <point x="32" y="-45" type="curve"/>
      <point x="-51" y="-209" type="line"/>
      <point x="24" y="-292"/>
      <point x="143" y="-316"/>
    </contour>
    <contour>
      <point x="336" y="139" type="curve" smooth="yes"/>
      <point x="255" y="139"/>
      <point x="198" y="201"/>
      <point x="198" y="280" type="curve" smooth="yes"/>
      <point x="198" y="374"/>
      <point x="278" y="460"/>
      <point x="374" y="460" type="curve" smooth="yes"/>
      <point x="455" y="460"/>
      <point x="512" y="400"/>
      <point x="512" y="320" type="curve" smooth="yes"/>
      <point x="512" y="225"/>
      <point x="432" y="139"/>
    </contour>
  </outline>
</glyph>
<glyph name="h" format="2">
  <advance width="700"/>
  <unicode hex="0068"/>
  <anchor x="285" y="0" name="bottom"/>
  <anchor x="271" y="780" name="center"/>
  <anchor x="315" y="960" name="top"/>
  <outline>
    <contour>
      <point x="-9" y="0" type="line"/>
      <point x="165" y="0" type="line"/>
      <point x="254" y="350" type="line" smooth="yes"/>
      <point x="275" y="437"/>
      <point x="334" y="476"/>
      <point x="394" y="476" type="curve" smooth="yes"/>
      <point x="471" y="476"/>
      <point x="501" y="412"/>
      <point x="483" y="340" type="curve" smooth="yes"/>
      <point x="397" y="0" type="line"/>
      <point x="571" y="0" type="line"/>
      <point x="657" y="342" type="line" smooth="yes"/>
      <point x="692" y="482"/>
      <point x="631" y="620"/>
      <point x="469" y="620" type="curve" smooth="yes"/>
      <point x="410" y="620"/>
      <point x="353" y="600"/>
      <point x="305" y="559" type="curve"/>
      <point x="405" y="960" type="line"/>
      <point x="231" y="960" type="line"/>
    </contour>
  </outline>
</glyph>
<glyph name="m" format="2">
  <advance width="1080"/>
  <unicode hex="006D"/>
  <anchor x="566" y="0" name="bottom"/>
  <anchor x="566" y="600" name="top"/>
  <outline>
    <contour>
      <point x="-9" y="0" type="line"/>
      <point x="165" y="0" type="line"/>
      <point x="254" y="356" type="line" smooth="yes"/>
      <point x="274" y="439"/>
      <point x="330" y="476"/>
      <point x="388" y="476" type="curve" smooth="yes"/>
      <point x="461" y="476"/>
      <point x="490" y="415"/>
      <point x="472" y="346" type="curve" smooth="yes"/>
      <point x="384" y="0" type="line"/>
      <point x="558" y="0" type="line"/>
      <point x="647" y="356" type="line" smooth="yes"/>
      <point x="668" y="439"/>
      <point x="723" y="476"/>
      <point x="781" y="476" type="curve" smooth="yes"/>
      <point x="854" y="476"/>
      <point x="883" y="415"/>
      <point x="865" y="346" type="curve" smooth="yes"/>
      <point x="777" y="0" type="line"/>
      <point x="951" y="0" type="line"/>
      <point x="1039" y="348" type="line" smooth="yes"/>
      <point x="1074" y="485"/>
      <point x="1015" y="620"/>
      <point x="845" y="620" type="curve" smooth="yes"/>
      <point x="767" y="620"/>
      <point x="690" y="588"/>
      <point x="633" y="521" type="curve"/>
      <point x="606" y="580"/>
      <point x="550" y="620"/>
      <point x="463" y="620" type="curve" smooth="yes"/>
      <point x="398" y="620"/>
      <point x="334" y="594"/>
      <point x="283" y="541" type="curve"/>
      <point x="297" y="600" type="line"/>
      <point x="141" y="600" type="line"/>
    </contour>
  </outline>
</glyph>
<glyph name="n" format="2">
  <advance width="700"/>
  <unicode hex="006E"/>
  <anchor x="275" y="0" name="bottom"/>
  <anchor x="422" y="600" name="top"/>
  <outline>
    <contour>
      <point x="-9" y="0" type="line"/>
      <point x="165" y="0" type="line"/>
      <point x="254" y="350" type="line" smooth="yes"/>
      <point x="276" y="437"/>
      <point x="334" y="476"/>
      <point x="394" y="476" type="curve" smooth="yes"/>
      <point x="471" y="476"/>
      <point x="501" y="412"/>
      <point x="483" y="340" type="curve" smooth="yes"/>
      <point x="397" y="0" type="line"/>
      <point x="571" y="0" type="line"/>
      <point x="657" y="342" type="line" smooth="yes"/>
      <point x="692" y="482"/>
      <point x="631" y="620"/>
      <point x="469" y="620" type="curve" smooth="yes"/>
      <point x="401" y="620"/>
      <point x="334" y="593"/>
      <point x="282" y="536" type="curve"/>
      <point x="297" y="600" type="line"/>
      <point x="141" y="600" type="line"/>
    </contour>
  </outline>
</glyph>
<glyph name="o" format="2">
  <advance width="720"/>
  <unicode hex="006F"/>
  <anchor x="286" y="0" name="bottom"/>
  <anchor x="360" y="300" name="center"/>
  <anchor x="316" y="0" name="ogonek"/>
  <anchor x="434" y="600" name="top"/>
  <anchor x="594" y="600" name="topright"/>
  <outline>
    <contour>
      <point x="323" y="-20" type="curve" smooth="yes"/>
      <point x="512" y="-20"/>
      <point x="684" y="150"/>
      <point x="684" y="338" type="curve" smooth="yes"/>
      <point x="684" y="496"/>
      <point x="562" y="620"/>
      <point x="398" y="620" type="curve" smooth="yes"/>
      <point x="206" y="620"/>
      <point x="36" y="451"/>
      <point x="36" y="264" type="curve" smooth="yes"/>
      <point x="36" y="99"/>
      <point x="166" y="-20"/>
    </contour>
    <contour>
      <point x="341" y="136" type="curve" smooth="yes"/>
      <point x="259" y="136"/>
      <point x="201" y="199"/>
      <point x="201" y="280" type="curve" smooth="yes"/>
      <point x="201" y="376"/>
      <point x="282" y="464"/>
      <point x="379" y="464" type="curve" smooth="yes"/>
      <point x="461" y="464"/>
      <point x="519" y="400"/>
      <point x="519" y="320" type="curve" smooth="yes"/>
      <point x="519" y="225"/>
      <point x="438" y="136"/>
    </contour>
  </outline>
</glyph>
<glyph name="q" format="2">
  <advance width="740"/>
  <unicode hex="0071"/>
  <outline>
    <contour>
      <point x="351" y="-299" type="line"/>
      <point x="525" y="-299" type="line"/>
      <point x="749" y="600" type="line"/>
      <point x="599" y="600" type="line"/>
      <point x="582" y="535" type="line"/>
      <point x="534" y="585"/>
      <point x="464" y="614"/>
      <point x="387" y="614" type="curve" smooth="yes"/>
      <point x="206" y="614"/>
      <point x="36" y="448"/>
      <point x="36" y="256" type="curve" smooth="yes"/>
      <point x="36" y="103"/>
      <point x="145" y="-14"/>
      <point x="288" y="-14" type="curve" smooth="yes"/>
      <point x="342" y="-14"/>
      <point x="391" y="2"/>
      <point x="432" y="29" type="curve"/>
    </contour>
    <contour>
      <point x="336" y="139" type="curve" smooth="yes"/>
      <point x="255" y="139"/>
      <point x="198" y="201"/>
      <point x="198" y="280" type="curve" smooth="yes"/>
      <point x="198" y="374"/>
      <point x="278" y="460"/>
      <point x="374" y="460" type="curve" smooth="yes"/>
      <point x="455" y="460"/>
      <point x="512" y="400"/>
      <point x="512" y="320" type="curve" smooth="yes"/>
      <point x="512" y="225"/>
      <point x="432" y="139"/>
    </contour>
  </outline>
</glyph>
<glyph name="r" format="2">
  <advance width="460"/>
  <unicode hex="0072"/>
  <anchor x="75" y="0" name="bottom"/>
  <anchor x="325" y="600" name="top"/>
  <outline>
    <contour>
      <point x="-9" y="0" type="line"/>
      <point x="165" y="0" type="line"/>
      <point x="230" y="253" type="line" smooth="yes"/>
      <point x="265" y="391"/>
      <point x="347" y="458"/>
      <point x="445" y="458" type="curve" smooth="yes"/>
      <point x="460" y="458"/>
      <point x="475" y="456"/>
      <point x="487" y="452" type="curve"/>
      <point x="487" y="606" type="line"/>
      <point x="406" y="606"/>
      <point x="332" y="571"/>
      <point x="274" y="507" type="curve"/>
      <point x="297" y="600" type="line"/>
      <point x="141" y="600" type="line"/>
    </contour>
  </outline>
</glyph>
<glyph name="t" format="2">
  <advance width="450"/>
  <unicode hex="0074"/>
  <anchor x="148" y="0" name="bottom"/>
  <anchor x="221" y="300" name="center"/>
  <anchor x="348" y="800" name="top"/>
  <anchor x="475" y="960" name="topright"/>
  <outline>
    <contour>
      <point x="61" y="0" type="line"/>
      <point x="235" y="0" type="line"/>
      <point x="351" y="462" type="line"/>
      <point x="467" y="462" type="line"/>
      <point x="501" y="600" type="line"/>
      <point x="383" y="600" type="line"/>
      <point x="432" y="800" type="line"/>
      <point x="264" y="800" type="line"/>
      <point x="214" y="600" type="line"/>
      <point x="99" y="600" type="line"/>
      <point x="65" y="462" type="line"/>
      <point x="177" y="462" type="line"/>
    </contour>
  </outline>
</glyph>
<glyph name="u" format="2">
  <advance width="700"/>
  <unicode hex="0075"/>
  <anchor x="273" y="0" name="bottom"/>
  <anchor x="481" y="0" name="ogonek"/>
  <anchor x="420" y="600" name="top"/>
  <anchor x="630" y="600" name="topright"/>
  <outline>
    <contour>
      <point x="231" y="-20" type="curve" smooth="yes"/>
      <point x="299" y="-20"/>
      <point x="366" y="7"/>
      <point x="418" y="64" type="curve"/>
      <point x="403" y="0" type="line"/>
      <point x="559" y="0" type="line"/>
      <point x="709" y="600" type="line"/>
      <point x="535" y="600" type="line"/>
      <point x="446" y="250" type="line" smooth="yes"/>
      <point x="425" y="163"/>
      <point x="366" y="124"/>
      <point x="306" y="124" type="curve" smooth="yes"/>
      <point x="229" y="124"/>
      <point x="199" y="188"/>
      <point x="217" y="260" type="curve" smooth="yes"/>
      <point x="303" y="600" type="line"/>
      <point x="129" y="600" type="line"/>
      <point x="43" y="258" type="line" smooth="yes"/>
      <point x="8" y="118"/>
      <point x="69" y="-20"/>
    </contour>
  </outline>
</glyph>
<glyph name="v" format="2">
  <advance width="670"/>
  <unicode hex="0076"/>
  <outline>
    <contour>
      <point x="253" y="-30" type="line"/>
      <point x="255" y="-30" type="line"/>
      <point x="739" y="600" type="line"/>
      <point x="542" y="600" type="line"/>
      <point x="400" y="407" type="line" smooth="yes"/>
      <point x="375" y="373"/>
      <point x="353" y="343"/>
      <point x="328" y="302" type="curve"/>
      <point x="324" y="343"/>
      <point x="316" y="373"/>
      <point x="308" y="407" type="curve" smooth="yes"/>
      <point x="262" y="600" type="line"/>
      <point x="81" y="600" type="line"/>
    </contour>
  </outline>
</glyph>
<glyph name="w" format="2">
  <advance width="1000"/>
  <unicode hex="0077"/>
  <anchor x="427" y="0" name="bottom"/>
  <anchor x="579" y="600" name="top"/>
  <outline>
    <contour>
      <point x="224" y="-30" type="line"/>
      <point x="226" y="-30" type="line"/>
      <point x="419" y="201" type="line" smooth="yes"/>
      <point x="448" y="236"/>
      <point x="476" y="271"/>
      <point x="504" y="311" type="curve"/>
      <point x="512" y="271"/>
      <point x="523" y="236"/>
      <point x="535" y="201" type="curve" smooth="yes"/>
      <point x="614" y="-30" type="line"/>
      <point x="616" y="-30" type="line"/>
      <point x="1069" y="600" type="line"/>
      <point x="878" y="600" type="line"/>
      <point x="739" y="407" type="line" smooth="yes"/>
      <point x="714" y="373"/>
      <point x="689" y="339"/>
      <point x="659" y="286" type="curve"/>
      <point x="653" y="335"/>
      <point x="643" y="369"/>
      <point x="635" y="399" type="curve" smooth="yes"/>
      <point x="573" y="620" type="line"/>
      <point x="571" y="620" type="line"/>
      <point x="405" y="399" type="line" smooth="yes"/>
      <point x="380" y="365"/>
      <point x="353" y="332"/>
      <point x="323" y="286" type="curve"/>
      <point x="317" y="335"/>
      <point x="309" y="373"/>
      <point x="301" y="407" type="curve" smooth="yes"/>
      <point x="256" y="600" type="line"/>
      <point x="81" y="600" type="line"/>
    </contour>
  </outline>
</glyph>
<glyph name="x" format="2">
  <advance width="640"/>
  <unicode hex="0078"/>
  <outline>
    <contour>
      <point x="-40" y="0" type="line"/>
      <point x="156" y="0" type="line"/>
      <point x="242" y="113" type="line" smooth="yes"/>
      <point x="261" y="138"/>
      <point x="277" y="162"/>
      <point x="297" y="195" type="curve"/>
      <point x="310" y="161"/>
      <point x="320" y="138"/>
      <point x="332" y="111" type="curve" smooth="yes"/>
      <point x="383" y="0" type="line"/>
      <point x="565" y="0" type="line"/>
      <point x="412" y="298" type="line"/>
      <point x="659" y="600" type="line"/>
      <point x="467" y="600" type="line"/>
      <point x="398" y="508" type="line" smooth="yes"/>
      <point x="379" y="483"/>
      <point x="362" y="460"/>
      <point x="342" y="424" type="curve"/>
      <point x="328" y="460"/>
      <point x="319" y="481"/>
      <point x="307" y="507" type="curve" smooth="yes"/>
      <point x="264" y="600" type="line"/>
      <point x="88" y="600" type="line"/>
      <point x="227" y="323" type="line"/>
    </contour>
  </outline>
</glyph>
<glyph name="y" format="2">
  <advance width="690"/>
  <unicode hex="0079"/>
  <anchor x="388" y="0" name="bottom"/>
  <anchor x="422" y="600" name="top"/>
  <outline>
    <contour>
      <point x="-108" y="-300" type="line"/>
      <point x="91" y="-300" type="line"/>
      <point x="759" y="600" type="line"/>
      <point x="562" y="600" type="line"/>
      <point x="400" y="380" type="line" smooth="yes"/>
      <point x="370" y="340"/>
      <point x="348" y="308"/>
      <point x="330" y="279" type="curve"/>
      <point x="327" y="308"/>
      <point x="322" y="340"/>
      <point x="313" y="380" type="curve" smooth="yes"/>
      <point x="261" y="600" type="line"/>
      <point x="81" y="600" type="line"/>
      <point x="200" y="114" type="line"/>
    </contour>
  </outline>
</glyph>
<glyph name="braceright" format="2">
  <advance width="480"/>
  <unicode hex="007D"/>
  <outline>
    <contour>
      <point x="-61" y="-186" type="line"/>
      <point x="131" y="-186"/>
      <point x="250" y="-128"/>
      <point x="290" y="35" type="curve" smooth="yes"/>
      <point x="305" y="96"/>
      <point x="302" y="158"/>
      <point x="315" y="212" type="curve" smooth="yes"/>
      <point x="337" y="298"/>
      <point x="390" y="327"/>
      <point x="469" y="353" type="curve"/>
      <point x="407" y="398"/>
      <point x="371" y="438"/>
      <point x="393" y="523" type="curve" smooth="yes"/>
      <point x="406" y="577"/>
      <point x="439" y="635"/>
      <point x="454" y="695" type="curve" smooth="yes"/>
      <point x="494" y="859"/>
      <point x="383" y="949"/>
      <point x="227" y="966" type="curve"/>
      <point x="195" y="840" type="line"/>
      <point x="259" y="830"/>
      <point x="328" y="803"/>
      <point x="302" y="697" type="curve" smooth="yes"/>
      <point x="289" y="645"/>
      <point x="255" y="583"/>
      <point x="241" y="527" type="curve" smooth="yes"/>
      <point x="222" y="451"/>
      <point x="244" y="405"/>
      <point x="283" y="376" type="curve"/>
      <point x="233" y="359"/>
      <point x="190" y="320"/>
      <point x="172" y="245" type="curve" smooth="yes"/>
      <point x="158" y="189"/>
      <point x="159" y="123"/>
      <point x="147" y="70" type="curve" smooth="yes"/>
      <point x="120" y="-36"/>
      <point x="42" y="-54"/>
      <point x="-30" y="-54" type="curve"/>
    </contour>
  </outline>
</glyph>
<glyph name="exclamdown" format="2">
  <advance width="480"/>
  <unicode hex="00A1"/>
  <outline>
    <contour>
      <point x="-11" y="-300" type="line"/>
      <point x="193" y="-300" type="line"/>
      <point x="301" y="270" type="line"/>
      <point x="169" y="270" type="line"/>
    </contour>
    <contour>
      <point x="281" y="410" type="curve" smooth="yes"/>
      <point x="344" y="410"/>
      <point x="399" y="465"/>
      <point x="399" y="527" type="curve" smooth="yes"/>
      <point x="399" y="581"/>
      <point x="357" y="620"/>
      <point x="307" y="620" type="curve" smooth="yes"/>
      <point x="244" y="620"/>
      <point x="189" y="565"/>
      <point x="189" y="502" type="curve" smooth="yes"/>
      <point x="189" y="450"/>
      <point x="228" y="410"/>
    </contour>
  </outline>
</glyph>
<glyph name="cent" format="2">
  <advance width="750"/>
  <unicode hex="00A2"/>
  <outline>
    <contour>
      <point x="292" y="0" type="line"/>
      <point x="400" y="0" type="line"/>
      <point x="433" y="130" type="line"/>
      <point x="506" y="131"/>
      <point x="575" y="152"/>
      <point x="625" y="192" type="curve"/>
      <point x="625" y="390" type="line"/>
      <point x="599" y="344"/>
      <point x="534" y="286"/>
      <point x="445" y="286" type="curve" smooth="yes"/>
      <point x="357" y="286"/>
      <point x="299" y="347"/>
      <point x="299" y="428" type="curve" smooth="yes"/>
      <point x="299" y="524"/>
      <point x="380" y="611"/>
      <point x="483" y="611" type="curve" smooth="yes"/>
      <point x="551" y="611"/>
      <point x="599" y="574"/>
      <point x="618" y="521" type="curve"/>
      <point x="703" y="694" type="line"/>
      <point x="671" y="722"/>
      <point x="632" y="744"/>
      <point x="587" y="755" type="curve"/>
      <point x="615" y="870" type="line"/>
      <point x="507" y="870" type="line"/>
      <point x="481" y="765" type="line"/>
      <point x="292" y="754"/>
      <point x="134" y="592"/>
      <point x="134" y="412" type="curve" smooth="yes"/>
      <point x="134" y="282"/>
      <point x="215" y="182"/>
      <point x="328" y="145" type="curve"/>
    </contour>
  </outline>
</glyph>
<glyph name="sterling" format="2">
  <advance width="750"/>
  <unicode hex="00A3"/>
  <outline>
    <contour>
      <point x="54" y="0" type="line"/>
      <point x="605" y="0" type="line"/>
      <point x="643" y="156" type="line"/>
      <point x="346" y="156" type="line"/>
      <point x="360" y="176"/>
      <point x="371" y="201"/>
      <point x="379" y="232" type="curve" smooth="yes"/>
      <point x="390" y="276"/>
      <point x="394" y="335"/>
      <point x="398" y="396" type="curve"/>
      <point x="624" y="396" type="line"/>
      <point x="651" y="504" type="line"/>
      <point x="406" y="504" type="line"/>
      <point x="410" y="539"/>
      <point x="414" y="572"/>
      <point x="421" y="600" type="curve" smooth="yes"/>
      <point x="445" y="700"/>
      <point x="504" y="764"/>
      <point x="580" y="764" type="curve" smooth="yes"/>
      <point x="654" y="764"/>
      <point x="701" y="710"/>
      <point x="724" y="653" type="curve"/>
      <point x="808" y="820" type="line"/>
      <point x="749" y="892"/>
      <point x="666" y="920"/>
      <point x="583" y="920" type="curve" smooth="yes"/>
      <point x="422" y="920"/>
      <point x="301" y="806"/>
      <point x="259" y="635" type="curve" smooth="yes"/>
      <point x="249" y="594"/>
      <point x="244" y="550"/>
      <point x="240" y="504" type="curve"/>
      <point x="141" y="504" type="line"/>
      <point x="114" y="396" type="line"/>
      <point x="235" y="396" type="line"/>
      <point x="232" y="335"/>
      <point x="229" y="278"/>
      <point x="218" y="232" type="curve" smooth="yes"/>
      <point x="196" y="144"/>
      <point x="152" y="77"/>
      <point x="54" y="2" type="curve"/>
    </contour>
  </outline>
</glyph>
<glyph name="currency" format="2">
  <advance width="750"/>
  <unicode hex="00A4"/>
  <outline>
    <contour>
      <point x="376" y="132" type="curve" smooth="yes"/>
      <point x="429" y="132"/>
      <point x="481" y="145"/>
      <point x="528" y="169" type="curve"/>
      <point x="572" y="109" type="line"/>
      <point x="689" y="203" type="line"/>
      <point x="647" y="260" type="line"/>
      <point x="702" y="323"/>
      <point x="737" y="403"/>
      <point x="737" y="488" type="curve" smooth="yes"/>
      <point x="737" y="528"/>
      <point x="729" y="565"/>
      <point x="715" y="599" type="curve"/>
      <point x="782" y="651" type="line"/>
      <point x="698" y="761" type="line"/>
      <point x="631" y="709" type="line"/>
      <point x="583" y="746"/>
      <point x="521" y="768"/>
      <point x="451" y="768" type="curve" smooth="yes"/>
      <point x="397" y="768"/>
      <point x="344" y="755"/>
      <point x="297" y="731" type="curve"/>
      <point x="253" y="791" type="line"/>
      <point x="136" y="697" type="line"/>
      <point x="178" y="640" type="line"/>
      <point x="123" y="578"/>
      <point x="89" y="498"/>
      <point x="89" y="414" type="curve" smooth="yes"/>
      <point x="89" y="374"/>
      <point x="97" y="336"/>
      <point x="111" y="303" type="curve"/>
      <point x="42" y="249" type="line"/>
      <point x="126" y="139" type="line"/>
      <point x="195" y="193" type="line"/>
      <point x="244" y="154"/>
      <point x="308" y="132"/>
    </contour>
    <contour>
      <point x="394" y="288" type="curve" smooth="yes"/>
      <point x="312" y="288"/>
      <point x="254" y="349"/>
      <point x="254" y="430" type="curve" smooth="yes"/>
      <point x="254" y="526"/>
      <point x="335" y="613"/>
      <point x="432" y="613" type="curve" smooth="yes"/>
      <point x="514" y="613"/>
      <point x="572" y="550"/>
      <point x="572" y="470" type="curve" smooth="yes"/>
      <point x="572" y="375"/>
      <point x="491" y="288"/>
    </contour>
  </outline>
</glyph>
<glyph name="yen" format="2">
  <advance width="750"/>
  <unicode hex="00A5"/>
  <outline>
    <contour>
      <point x="213" y="0" type="line"/>
      <point x="393" y="0" type="line"/>
      <point x="465" y="294" type="line"/>
      <point x="678" y="294" type="line"/>
      <point x="705" y="402" type="line"/>
      <point x="492" y="402" type="line"/>
      <point x="498" y="426" type="line"/>
      <point x="555" y="498" type="line"/>
      <point x="729" y="498" type="line"/>
      <point x="755" y="606" type="line"/>
      <point x="641" y="606" type="line"/>
      <point x="874" y="900" type="line"/>
      <point x="674" y="901" type="line"/>
      <point x="517" y="698" type="line" smooth="yes"/>
      <point x="494" y="668"/>
      <point x="472" y="641"/>
      <point x="446" y="599" type="curve"/>
      <point x="441" y="640"/>
      <point x="432" y="669"/>
      <point x="424" y="698" type="curve" smooth="yes"/>
      <point x="368" y="900" type="line"/>
      <point x="176" y="900" type="line"/>
      <point x="264" y="606" type="line"/>
      <point x="149" y="606" type="line"/>
      <point x="123" y="498" type="line"/>
      <point x="296" y="498" type="line"/>
      <point x="318" y="426" type="line"/>
      <point x="312" y="402" type="line"/>
      <point x="99" y="402" type="line"/>
      <point x="72" y="294" type="line"/>
      <point x="285" y="294" type="line"/>
    </contour>
  </outline>
</glyph>
<glyph name="copyright" format="2">
  <advance width="1260"/>
  <unicode hex="00A9"/>
  <outline>
    <contour>
      <point x="602" y="-102" type="curve" smooth="yes"/>
      <point x="929" y="-102"/>
      <point x="1225" y="192"/>
      <point x="1225" y="515" type="curve" smooth="yes"/>
      <point x="1225" y="790"/>
      <point x="1011" y="1002"/>
      <point x="732" y="1002" type="curve" smooth="yes"/>
      <point x="405" y="1002"/>
      <point x="109" y="708"/>
      <point x="109" y="385" type="curve" smooth="yes"/>
      <point x="109" y="110"/>
      <point x="323" y="-102"/>
    </contour>
    <contour>
      <point x="613" y="30" type="curve" smooth="yes"/>
      <point x="406" y="30"/>
      <point x="247" y="187"/>
      <point x="247" y="396" type="curve" smooth="yes"/>
      <point x="247" y="644"/>
      <point x="472" y="870"/>
      <point x="721" y="870" type="curve" smooth="yes"/>
      <point x="928" y="870"/>
      <point x="1087" y="713"/>
      <point x="1087" y="504" type="curve" smooth="yes"/>
      <point x="1087" y="256"/>
      <point x="862" y="30"/>
    </contour>
    <contour>
      <point x="661" y="168" type="curve" smooth="yes"/>
      <point x="724" y="168"/>
      <point x="788" y="187"/>
      <point x="833" y="223" type="curve"/>
      <point x="833" y="403" type="line"/>
      <point x="810" y="362"/>
      <point x="755" y="310"/>
      <point x="676" y="310" type="curve" smooth="yes"/>
      <point x="598" y="310"/>
      <point x="544" y="364"/>
      <point x="544" y="432" type="curve" smooth="yes"/>
      <point x="544" y="512"/>
      <point x="614" y="590"/>
      <point x="705" y="590" type="curve" smooth="yes"/>
      <point x="766" y="590"/>
      <point x="810" y="557"/>
      <point x="827" y="510" type="curve"/>
      <point x="903" y="668" type="line"/>
      <point x="857" y="708"/>
      <point x="797" y="732"/>
      <point x="726" y="732" type="curve" smooth="yes"/>
      <point x="548" y="732"/>
      <point x="398" y="584"/>
      <point x="398" y="418" type="curve" smooth="yes"/>
      <point x="398" y="272"/>
      <point x="513" y="168"/>
    </contour>
  </outline>
</glyph>
<glyph name="degree" format="2">
  <advance width="480"/>
  <unicode hex="00B0"/>
  <outline>
    <contour>
      <point x="326" y="528" type="curve" smooth="yes"/>
      <point x="445" y="528"/>
      <point x="547" y="630"/>
      <point x="547" y="743" type="curve" smooth="yes"/>
      <point x="547" y="837"/>
      <point x="476" y="912"/>
      <point x="372" y="912" type="curve" smooth="yes"/>
      <point x="253" y="912"/>
      <point x="151" y="809"/>
      <point x="151" y="694" type="curve" smooth="yes"/>
      <point x="151" y="600"/>
      <point x="222" y="528"/>
    </contour>
    <contour>
      <point x="340" y="639" type="curve" smooth="yes"/>
      <point x="296" y="639"/>
      <point x="266" y="669"/>
      <point x="266" y="709" type="curve" smooth="yes"/>
      <point x="266" y="757"/>
      <point x="309" y="801"/>
      <point x="358" y="801" type="curve" smooth="yes"/>
      <point x="402" y="801"/>
      <point x="432" y="769"/>
      <point x="432" y="730" type="curve" smooth="yes"/>
      <point x="432" y="682"/>
      <point x="389" y="639"/>
    </contour>
  </outline>
</glyph>
<glyph name="micro" format="2">
  <advance width="730"/>
  <unicode hex="00B5"/>
  <unicode hex="03BC"/>
  <outline>
    <contour>
      <point x="-84" y="-300" type="line"/>
      <point x="90" y="-300" type="line"/>
      <point x="174" y="35" type="line"/>
      <point x="199" y="-1"/>
      <point x="238" y="-20"/>
      <point x="288" y="-20" type="curve" smooth="yes"/>
      <point x="349" y="-20"/>
      <point x="410" y="8"/>
      <point x="457" y="63" type="curve"/>
      <point x="481" y="14"/>
      <point x="534" y="-12"/>
      <point x="605" y="-12" type="curve"/>
      <point x="672" y="127" type="line"/>
      <point x="627" y="127"/>
      <point x="610" y="149"/>
      <point x="623" y="201" type="curve" smooth="yes"/>
      <point x="721" y="600" type="line"/>
      <point x="547" y="600" type="line"/>
      <point x="464" y="262" type="line" smooth="yes"/>
      <point x="444" y="180"/>
      <point x="377" y="136"/>
      <point x="317" y="136" type="curve" smooth="yes"/>
      <point x="243" y="136"/>
      <point x="215" y="197"/>
      <point x="232" y="264" type="curve" smooth="yes"/>
      <point x="315" y="600" type="line"/>
      <point x="141" y="600" type="line"/>
    </contour>
  </outline>
</glyph>
<glyph name="paragraph" format="2">
  <advance width="750"/>
  <unicode hex="00B6"/>
  <outline>
    <contour>
      <point x="160" y="-180" type="line"/>
      <point x="304" y="-180" type="line"/>
      <point x="558" y="834" type="line"/>
      <point x="666" y="834" type="line"/>
      <point x="412" y="-180" type="line"/>
      <point x="556" y="-180" type="line"/>
      <point x="841" y="960" type="line"/>
      <point x="467" y="960" type="line" smooth="yes"/>
      <point x="266" y="960"/>
      <point x="122" y="801"/>
      <point x="122" y="627" type="curve" smooth="yes"/>
      <point x="122" y="524"/>
      <point x="173" y="422"/>
      <point x="300" y="381" type="curve"/>
    </contour>
  </outline>
</glyph>
<glyph name="Aring" format="2">
  <advance width="820"/>
  <unicode hex="00C5"/>
  <outline>
    <contour>
      <point x="-63" y="0" type="line"/>
      <point x="122" y="0" type="line"/>
      <point x="229" y="160" type="line"/>
      <point x="535" y="160" type="line"/>
      <point x="562" y="0" type="line"/>
      <point x="733" y="0" type="line"/>
      <point x="587" y="813" type="line"/>
      <point x="673" y="830"/>
      <point x="744" y="910"/>
      <point x="744" y="998" type="curve" smooth="yes"/>
      <point x="744" y="1081"/>
      <point x="679" y="1146"/>
      <point x="593" y="1146" type="curve" smooth="yes"/>
      <point x="491" y="1146"/>
      <point x="402" y="1058"/>
      <point x="402" y="959" type="curve" smooth="yes"/>
      <point x="402" y="895"/>
      <point x="439" y="845"/>
      <point x="491" y="823" type="curve"/>
    </contour>
    <contour>
      <point x="325" y="304" type="line"/>
      <point x="386" y="396" type="line" smooth="yes"/>
      <point x="419" y="445"/>
      <point x="446" y="488"/>
      <point x="476" y="548" type="curve"/>
      <point x="477" y="487"/>
      <point x="485" y="445"/>
      <point x="494" y="396" type="curve" smooth="yes"/>
      <point x="510" y="304" type="line"/>
    </contour>
    <contour>
      <point x="566" y="909" type="curve" smooth="yes"/>
      <point x="530" y="909"/>
      <point x="504" y="935"/>
      <point x="504" y="971" type="curve" smooth="yes"/>
      <point x="504" y="1010"/>
      <point x="540" y="1047"/>
      <point x="580" y="1047" type="curve" smooth="yes"/>
      <point x="616" y="1047"/>
      <point x="642" y="1020"/>
      <point x="642" y="985" type="curve" smooth="yes"/>
      <point x="642" y="946"/>
      <point x="606" y="909"/>
    </contour>
  </outline>
</glyph>
<glyph name="AE" format="2">
  <advance width="1040"/>
  <unicode hex="00C6"/>
  <anchor x="342" y="0" name="bottom"/>
  <anchor x="751" y="900" name="top"/>
  <outline>
    <contour>
      <point x="-63" y="0" type="line"/>
      <point x="122" y="0" type="line"/>
      <point x="229" y="160" type="line"/>
      <point x="546" y="160" type="line"/>
      <point x="562" y="0" type="line"/>
      <point x="935" y="0" type="line"/>
      <point x="935" y="162" type="line"/>
      <point x="710" y="162" type="line"/>
      <point x="681" y="456" type="line"/>
      <point x="875" y="456" type="line"/>
      <point x="875" y="606" type="line"/>
      <point x="666" y="606" type="line"/>
      <point x="653" y="744" type="line"/>
      <point x="911" y="744" type="line"/>
      <point x="911" y="900" type="line"/>
      <point x="543" y="900" type="line"/>
    </contour>
    <contour>
      <point x="325" y="304" type="line"/>
      <point x="386" y="396" type="line" smooth="yes"/>
      <point x="426" y="456"/>
      <point x="467" y="517"/>
      <point x="510" y="597" type="curve"/>
      <point x="509" y="517"/>
      <point x="517" y="456"/>
      <point x="523" y="396" type="curve" smooth="yes"/>
      <point x="532" y="304" type="line"/>
    </contour>
  </outline>
</glyph>
<glyph name="Eth" format="2">
  <advance width="970"/>
  <unicode hex="00D0"/>
  <outline>
    <contour>
      <point x="51" y="0" type="line"/>
      <point x="423" y="0" type="line" smooth="yes"/>
      <point x="702" y="0"/>
      <point x="952" y="237"/>
      <point x="952" y="501" type="curve" smooth="yes"/>
      <point x="952" y="726"/>
      <point x="769" y="900"/>
      <point x="531" y="900" type="curve" smooth="yes"/>
      <point x="276" y="900" type="line"/>
      <point x="187" y="543" type="line"/>
      <point x="99" y="543" type="line"/>
      <point x="67" y="417" type="line"/>
      <point x="155" y="417" type="line"/>
    </contour>
    <contour>
      <point x="265" y="162" type="line"/>
      <point x="329" y="417" type="line"/>
      <point x="547" y="417" type="line"/>
      <point x="579" y="543" type="line"/>
      <point x="361" y="543" type="line"/>
      <point x="410" y="738" type="line"/>
      <point x="500" y="738" type="line" smooth="yes"/>
      <point x="653" y="738"/>
      <point x="762" y="634"/>
      <point x="762" y="489" type="curve" smooth="yes"/>
      <point x="762" y="315"/>
      <point x="607" y="162"/>
      <point x="431" y="162" type="curve" smooth="yes"/>
    </contour>
  </outline>
</glyph>
<glyph name="Oslash" format="2">
  <advance width="1060"/>
  <unicode hex="00D8"/>
  <anchor x="455" y="0" name="bottom"/>
  <anchor x="680" y="900" name="top"/>
  <outline>
    <contour>
      <point x="513" y="-18" type="curve" smooth="yes"/>
      <point x="793" y="-18"/>
      <point x="1042" y="230"/>
      <point x="1042" y="503" type="curve" smooth="yes"/>
      <point x="1042" y="604"/>
      <point x="1008" y="695"/>
      <point x="950" y="766" type="curve"/>
      <point x="1025" y="845" type="line"/>
      <point x="945" y="918" type="line"/>
      <point x="871" y="840" type="line"/>
      <point x="802" y="889"/>
      <point x="716" y="918"/>
      <point x="621" y="918" type="curve" smooth="yes"/>
      <point x="342" y="918"/>
      <point x="92" y="670"/>
      <point x="92" y="396" type="curve" smooth="yes"/>
      <point x="92" y="292"/>
      <point x="128" y="198"/>
      <point x="190" y="127" type="curve"/>
      <point x="108" y="41" type="line"/>
      <point x="188" y="-32" type="line"/>
      <point x="270" y="54" type="line"/>
      <point x="338" y="9"/>
      <point x="421" y="-18"/>
    </contour>
    <contour>
      <point x="324" y="268" type="line"/>
      <point x="297" y="309"/>
      <point x="282" y="358"/>
      <point x="282" y="413" type="curve" smooth="yes"/>
      <point x="282" y="586"/>
      <point x="433" y="744"/>
      <point x="602" y="744" type="curve" smooth="yes"/>
      <point x="654" y="744"/>
      <point x="701" y="729"/>
      <point x="741" y="704" type="curve"/>
    </contour>
    <contour>
      <point x="533" y="156" type="curve" smooth="yes"/>
      <point x="484" y="156"/>
      <point x="440" y="169"/>
      <point x="402" y="192" type="curve"/>
      <point x="816" y="626" type="line"/>
      <point x="839" y="586"/>
      <point x="852" y="540"/>
      <point x="852" y="489" type="curve" smooth="yes"/>
      <point x="852" y="315"/>
      <point x="702" y="156"/>
    </contour>
  </outline>
</glyph>
<glyph name="Thorn" format="2">
  <advance width="740"/>
  <unicode hex="00DE"/>
  <outline>
    <contour>
      <point x="21" y="0" type="line"/>
      <point x="195" y="0" type="line"/>
      <point x="237" y="169" type="line"/>
      <point x="393" y="169" type="line" smooth="yes"/>
      <point x="585" y="169"/>
      <point x="752" y="330"/>
      <point x="752" y="509" type="curve" smooth="yes"/>
      <point x="752" y="662"/>
      <point x="628" y="780"/>
      <point x="466" y="780" type="curve" smooth="yes"/>
      <point x="390" y="780" type="line"/>
      <point x="420" y="900" type="line"/>
      <point x="246" y="900" type="line"/>
    </contour>
    <contour>
      <point x="276" y="325" type="line"/>
      <point x="351" y="624" type="line"/>
      <point x="424" y="624" type="line" smooth="yes"/>
      <point x="515" y="624"/>
      <point x="572" y="570"/>
      <point x="572" y="495" type="curve" smooth="yes"/>
      <point x="572" y="404"/>
      <point x="492" y="325"/>
      <point x="388" y="325" type="curve" smooth="yes"/>
    </contour>
  </outline>
</glyph>
<glyph name="germandbls" format="2">
  <advance width="730"/>
  <unicode hex="00DF"/>
  <outline>
    <contour>
      <point x="282" y="-17" type="line"/>
      <point x="505" y="-12"/>
      <point x="690" y="161"/>
      <point x="690" y="364" type="curve" smooth="yes"/>
      <point x="690" y="447"/>
      <point x="659" y="519"/>
      <point x="603" y="570" type="curve"/>
      <point x="666" y="619"/>
      <point x="703" y="690"/>
      <point x="703" y="765" type="curve" smooth="yes"/>
      <point x="703" y="887"/>
      <point x="602" y="977"/>
      <point x="466" y="977" type="curve" smooth="yes"/>
      <point x="327" y="977"/>
      <point x="213" y="884"/>
      <point x="177" y="742" type="curve" smooth="yes"/>
      <point x="-9" y="0" type="line"/>
      <point x="165" y="0" type="line"/>
      <point x="345" y="720" type="line" smooth="yes"/>
      <point x="360" y="782"/>
      <point x="402" y="822"/>
      <point x="454" y="822" type="curve" smooth="yes"/>
      <point x="505" y="822"/>
      <point x="541" y="787"/>
      <point x="541" y="736" type="curve" smooth="yes"/>
      <point x="541" y="667"/>
      <point x="476" y="601"/>
      <point x="368" y="559" type="curve"/>
      <point x="368" y="557" type="line"/>
      <point x="461" y="504"/>
      <point x="510" y="433"/>
      <point x="510" y="352" type="curve" smooth="yes"/>
      <point x="510" y="233"/>
      <point x="408" y="139"/>
      <point x="282" y="139" type="curve"/>
    </contour>
  </outline>
</glyph>
<glyph name="ae" format="2">
  <advance width="1090"/>
  <unicode hex="00E6"/>
  <anchor x="470" y="0" name="bottom"/>
  <anchor x="575" y="600" name="top"/>
  <outline>
    <contour>
      <point x="235" y="-14" type="curve" smooth="yes"/>
      <point x="332" y="-14"/>
      <point x="421" y="23"/>
      <point x="493" y="93" type="curve"/>
      <point x="548" y="21"/>
      <point x="638" y="-20"/>
      <point x="740" y="-20" type="curve" smooth="yes"/>
      <point x="814" y="-20"/>
      <point x="887" y="4"/>
      <point x="939" y="44" type="curve"/>
      <point x="939" y="216" type="line"/>
      <point x="907" y="165"/>
      <point x="826" y="124"/>
      <point x="757" y="124" type="curve" smooth="yes"/>
      <point x="673" y="124"/>
      <point x="616" y="173"/>
      <point x="603" y="255" type="curve"/>
      <point x="628" y="251"/>
      <point x="649" y="249"/>
      <point x="671" y="249" type="curve" smooth="yes"/>
      <point x="1047" y="249" type="line"/>
      <point x="1060" y="301" type="line" smooth="yes"/>
      <point x="1105" y="482"/>
      <point x="998" y="620"/>
      <point x="811" y="620" type="curve" smooth="yes"/>
      <point x="727" y="620"/>
      <point x="643" y="591"/>
      <point x="575" y="539" type="curve"/>
      <point x="524" y="591"/>
      <point x="442" y="619"/>
      <point x="342" y="619" type="curve" smooth="yes"/>
      <point x="273" y="619"/>
      <point x="204" y="606"/>
      <point x="147" y="581" type="curve"/>
      <point x="145" y="431" type="line"/>
      <point x="197" y="464"/>
      <point x="261" y="484"/>
      <point x="318" y="484" type="curve" smooth="yes"/>
      <point x="420" y="484"/>
      <point x="491" y="422"/>
      <point x="475" y="348" type="curve"/>
      <point x="474" y="343"/>
      <point x="473" y="340"/>
      <point x="472" y="336" type="curve"/>
      <point x="417" y="366"/>
      <point x="342" y="384"/>
      <point x="269" y="384" type="curve" smooth="yes"/>
      <point x="121" y="384"/>
      <point x="9" y="291"/>
      <point x="9" y="168" type="curve" smooth="yes"/>
      <point x="9" y="61"/>
      <point x="98" y="-14"/>
    </contour>
    <contour>
      <point x="272" y="118" type="curve" smooth="yes"/>
      <point x="210" y="118"/>
      <point x="174" y="143"/>
      <point x="174" y="187" type="curve" smooth="yes"/>
      <point x="174" y="232"/>
      <point x="212" y="258"/>
      <point x="277" y="258" type="curve" smooth="yes"/>
      <point x="332" y="258"/>
      <point x="398" y="243"/>
      <point x="444" y="220" type="curve"/>
      <point x="444" y="205" type="line"/>
      <point x="421" y="156"/>
      <point x="348" y="118"/>
    </contour>
    <contour>
      <point x="604" y="364" type="curve"/>
      <point x="633" y="434"/>
      <point x="701" y="481"/>
      <point x="782" y="481" type="curve" smooth="yes"/>
      <point x="861" y="481"/>
      <point x="908" y="438"/>
      <point x="914" y="366" type="curve"/>
      <point x="885" y="372"/>
      <point x="854" y="375"/>
      <point x="818" y="375" type="curve" smooth="yes"/>
      <point x="702" y="375" type="line" smooth="yes"/>
      <point x="672" y="375"/>
      <point x="641" y="372"/>
    </contour>
  </outline>
</glyph>
<glyph name="ccedilla" format="2">
  <advance width="600"/>
  <unicode hex="00E7"/>
  <outline>
    <contour>
      <point x="53" y="-192" type="line"/>
      <point x="268" y="-192" type="line"/>
      <point x="393" y="-13" type="line"/>
      <point x="444" y="-4"/>
      <point x="491" y="15"/>
      <point x="527" y="44" type="curve"/>
      <point x="527" y="242" type="line"/>
      <point x="501" y="196"/>
      <point x="436" y="138"/>
      <point x="347" y="138" type="curve" smooth="yes"/>
      <point x="259" y="138"/>
      <point x="201" y="199"/>
      <point x="201" y="280" type="curve" smooth="yes"/>
      <point x="201" y="376"/>
      <point x="282" y="463"/>
      <point x="385" y="463" type="curve" smooth="yes"/>
      <point x="453" y="463"/>
      <point x="501" y="426"/>
      <point x="520" y="373" type="curve"/>
      <point x="605" y="546" type="line"/>
      <point x="554" y="591"/>
      <point x="486" y="618"/>
      <point x="404" y="618" type="curve" smooth="yes"/>
      <point x="206" y="618"/>
      <point x="36" y="451"/>
      <point x="36" y="264" type="curve" smooth="yes"/>
      <point x="36" y="129"/>
      <point x="123" y="26"/>
      <point x="245" y="-7" type="curve"/>
    </contour>
  </outline>
</glyph>
<glyph name="eth" format="2">
  <advance width="720"/>
  <unicode hex="00F0"/>
  <outline>
    <contour>
      <point x="329" y="-20" type="curve" smooth="yes"/>
      <point x="543" y="-20"/>
      <point x="690" y="178"/>
      <point x="690" y="375" type="curve" smooth="yes"/>
      <point x="690" y="433"/>
      <point x="677" y="498"/>
      <point x="651" y="567" type="curve" smooth="yes"/>
      <point x="632" y="616"/>
      <point x="595" y="703"/>
      <point x="548" y="798" type="curve"/>
      <point x="684" y="860" type="line"/>
      <point x="656" y="935" type="line"/>
      <point x="512" y="870" type="line"/>
      <point x="496" y="901"/>
      <point x="480" y="932"/>
      <point x="463" y="962" type="curve"/>
      <point x="294" y="960" type="line"/>
      <point x="322" y="909"/>
      <point x="349" y="859"/>
      <point x="376" y="808" type="curve"/>
      <point x="227" y="741" type="line"/>
      <point x="255" y="665" type="line"/>
      <point x="412" y="736" type="line"/>
      <point x="435" y="690"/>
      <point x="457" y="643"/>
      <point x="477" y="597" type="curve"/>
      <point x="442" y="610"/>
      <point x="407" y="614"/>
      <point x="379" y="614" type="curve" smooth="yes"/>
      <point x="200" y="614"/>
      <point x="37" y="449"/>
      <point x="37" y="264" type="curve" smooth="yes"/>
      <point x="37" y="104"/>
      <point x="160" y="-20"/>
    </contour>
    <contour>
      <point x="340" y="136" type="curve" smooth="yes"/>
      <point x="260" y="136"/>
      <point x="202" y="203"/>
      <point x="202" y="280" type="curve" smooth="yes"/>
      <point x="202" y="376"/>
      <point x="287" y="464"/>
      <point x="380" y="464" type="curve" smooth="yes"/>
      <point x="461" y="464"/>
      <point x="519" y="402"/>
      <point x="519" y="324" type="curve" smooth="yes"/>
      <point x="519" y="226"/>
      <point x="434" y="136"/>
    </contour>
  </outline>
</glyph>
<glyph name="oslash" format="2">
  <advance width="720"/>
  <unicode hex="00F8"/>
  <anchor x="434" y="600" name="top"/>
  <outline>
    <contour>
      <point x="323" y="-18" type="curve" smooth="yes"/>
      <point x="512" y="-18"/>
      <point x="684" y="150"/>
      <point x="684" y="338" type="curve" smooth="yes"/>
      <point x="684" y="389"/>
      <point x="671" y="437"/>
      <point x="648" y="477" type="curve"/>
      <point x="699" y="519" type="line"/>
      <point x="640" y="594" type="line"/>
      <point x="588" y="551" type="line"/>
      <point x="538" y="593"/>
      <point x="472" y="618"/>
      <point x="398" y="618" type="curve" smooth="yes"/>
      <point x="206" y="618"/>
      <point x="36" y="451"/>
      <point x="36" y="264" type="curve" smooth="yes"/>
      <point x="36" y="212"/>
      <point x="49" y="165"/>
      <point x="71" y="125" type="curve"/>
      <point x="16" y="80" type="line"/>
      <point x="75" y="5" type="line"/>
      <point x="131" y="51" type="line"/>
      <point x="182" y="7"/>
      <point x="250" y="-18"/>
    </contour>
    <contour>
      <point x="202" y="233" type="line"/>
      <point x="197" y="247"/>
      <point x="195" y="263"/>
      <point x="195" y="279" type="curve" smooth="yes"/>
      <point x="195" y="379"/>
      <point x="279" y="469"/>
      <point x="380" y="469" type="curve" smooth="yes"/>
      <point x="411" y="469"/>
      <point x="438" y="461"/>
      <point x="460" y="446" type="curve"/>
    </contour>
    <contour>
      <point x="340" y="132" type="curve" smooth="yes"/>
      <point x="309" y="132"/>
      <point x="281" y="141"/>
      <point x="258" y="156" type="curve"/>
      <point x="518" y="370" type="line"/>
      <point x="522" y="354"/>
      <point x="525" y="338"/>
      <point x="525" y="321" type="curve" smooth="yes"/>
      <point x="525" y="222"/>
      <point x="441" y="132"/>
    </contour>
  </outline>
</glyph>
<glyph name="thorn" format="2">
  <advance width="740"/>
  <unicode hex="00FE"/>
  <outline>
    <contour>
      <point x="-84" y="-300" type="line"/>
      <point x="90" y="-300" type="line"/>
      <point x="178" y="47" type="line"/>
      <point x="224" y="8"/>
      <point x="286" y="-14"/>
      <point x="353" y="-14" type="curve" smooth="yes"/>
      <point x="534" y="-14"/>
      <point x="704" y="152"/>
      <point x="704" y="344" type="curve" smooth="yes"/>
      <point x="704" y="497"/>
      <point x="595" y="614"/>
      <point x="452" y="614" type="curve" smooth="yes"/>
      <point x="398" y="614"/>
      <point x="350" y="598"/>
      <point x="308" y="571" type="curve"/>
      <point x="405" y="960" type="line"/>
      <point x="231" y="960" type="line"/>
    </contour>
    <contour>
      <point x="366" y="140" type="curve" smooth="yes"/>
      <point x="285" y="140"/>
      <point x="228" y="200"/>
      <point x="228" y="280" type="curve" smooth="yes"/>
      <point x="228" y="375"/>
      <point x="308" y="461"/>
      <point x="404" y="461" type="curve" smooth="yes"/>
      <point x="485" y="461"/>
      <point x="542" y="399"/>
      <point x="542" y="320" type="curve" smooth="yes"/>
      <point x="542" y="226"/>
      <point x="462" y="140"/>
    </contour>
  </outline>
</glyph>
<glyph name="Aogonek" format="2">
  <advance width="820"/>
  <unicode hex="0104"/>
  <outline>
    <contour>
      <point x="613" y="-318" type="curve"/>
      <point x="673" y="-195" type="line"/>
      <point x="630" y="-189"/>
      <point x="609" y="-167"/>
      <point x="609" y="-132" type="curve" smooth="yes"/>
      <point x="609" y="-82"/>
      <point x="650" y="-35"/>
      <point x="733" y="0" type="curve"/>
      <point x="566" y="932" type="line"/>
      <point x="564" y="932" type="line"/>
      <point x="-63" y="0" type="line"/>
      <point x="122" y="0" type="line"/>
      <point x="229" y="160" type="line"/>
      <point x="535" y="160" type="line"/>
      <point x="560" y="16" type="line"/>
      <point x="490" y="-34"/>
      <point x="451" y="-100"/>
      <point x="451" y="-171" type="curve" smooth="yes"/>
      <point x="451" y="-254"/>
      <point x="504" y="-303"/>
    </contour>
    <contour>
      <point x="325" y="304" type="line"/>
      <point x="386" y="396" type="line" smooth="yes"/>
      <point x="423" y="452"/>
      <point x="448" y="493"/>
      <point x="476" y="548" type="curve"/>
      <point x="477" y="502"/>
      <point x="481" y="468"/>
      <point x="494" y="396" type="curve" smooth="yes"/>
      <point x="510" y="304" type="line"/>
    </contour>
  </outline>
</glyph>
<glyph name="aogonek" format="2">
  <advance width="740"/>
  <unicode hex="0105"/>
  <outline>
    <contour>
      <point x="512" y="-318" type="curve"/>
      <point x="572" y="-195" type="line"/>
      <point x="535" y="-190"/>
      <point x="508" y="-170"/>
      <point x="508" y="-135" type="curve" smooth="yes"/>
      <point x="508" y="-83"/>
      <point x="545" y="-47"/>
      <point x="599" y="0" type="curve"/>
      <point x="748" y="600" type="line"/>
      <point x="598" y="600" type="line"/>
      <point x="582" y="535" type="line"/>
      <point x="534" y="585"/>
      <point x="464" y="614"/>
      <point x="387" y="614" type="curve" smooth="yes"/>
      <point x="206" y="614"/>
      <point x="36" y="448"/>
      <point x="36" y="256" type="curve" smooth="yes"/>
      <point x="36" y="103"/>
      <point x="145" y="-14"/>
      <point x="288" y="-14" type="curve" smooth="yes"/>
      <point x="355" y="-14"/>
      <point x="414" y="12"/>
      <point x="462" y="51" type="curve"/>
      <point x="449" y="0" type="line"/>
      <point x="392" y="-51"/>
      <point x="350" y="-108"/>
      <point x="350" y="-176" type="curve" smooth="yes"/>
      <point x="350" y="-259"/>
      <point x="416" y="-306"/>
    </contour>
    <contour>
      <point x="336" y="139" type="curve" smooth="yes"/>
      <point x="255" y="139"/>
      <point x="198" y="201"/>
      <point x="198" y="280" type="curve" smooth="yes"/>
      <point x="198" y="374"/>
      <point x="278" y="460"/>
      <point x="374" y="460" type="curve" smooth="yes"/>
      <point x="455" y="460"/>
      <point x="512" y="400"/>
      <point x="512" y="320" type="curve" smooth="yes"/>
      <point x="512" y="225"/>
      <point x="432" y="139"/>
    </contour>
  </outline>
</glyph>
<glyph name="dcroat" format="2">
  <advance width="740"/>
  <unicode hex="0111"/>
  <outline>
    <contour>
      <point x="288" y="-14" type="curve" smooth="yes"/>
      <point x="355" y="-14"/>
      <point x="414" y="12"/>
      <point x="462" y="51" type="curve"/>
      <point x="449" y="0" type="line"/>
      <point x="599" y="0" type="line"/>
      <point x="781" y="726" type="line"/>
      <point x="834" y="726" type="line"/>
      <point x="860" y="834" type="line"/>
      <point x="808" y="834" type="line"/>
      <point x="839" y="960" type="line"/>
      <point x="677" y="960" type="line"/>
      <point x="645" y="834" type="line"/>
      <point x="444" y="834" type="line"/>
      <point x="418" y="726" type="line"/>
      <point x="618" y="726" type="line"/>
      <point x="572" y="545" type="line"/>
      <point x="524" y="588"/>
      <point x="459" y="614"/>
      <point x="387" y="614" type="curve" smooth="yes"/>
      <point x="206" y="614"/>
      <point x="36" y="448"/>
      <point x="36" y="256" type="curve" smooth="yes"/>
      <point x="36" y="103"/>
      <point x="145" y="-14"/>
    </contour>
    <contour>
      <point x="336" y="139" type="curve" smooth="yes"/>
      <point x="255" y="139"/>
      <point x="198" y="201"/>
      <point x="198" y="280" type="curve" smooth="yes"/>
      <point x="198" y="374"/>
      <point x="278" y="460"/>
      <point x="374" y="460" type="curve" smooth="yes"/>
      <point x="455" y="460"/>
      <point x="512" y="400"/>
      <point x="512" y="320" type="curve" smooth="yes"/>
      <point x="512" y="225"/>
      <point x="432" y="139"/>
    </contour>
  </outline>
</glyph>
<glyph name="Eogonek" format="2">
  <advance width="630"/>
  <unicode hex="0118"/>
  <anchor x="486" y="900" name="top"/>
  <outline>
    <contour>
      <point x="414" y="-318" type="curve"/>
      <point x="474" y="-195" type="line"/>
      <point x="437" y="-190"/>
      <point x="410" y="-170"/>
      <point x="410" y="-135" type="curve" smooth="yes"/>
      <point x="410" y="-83"/>
      <point x="447" y="-47"/>
      <point x="501" y="0" type="curve"/>
      <point x="541" y="162" type="line"/>
      <point x="235" y="162" type="line"/>
      <point x="309" y="456" type="line"/>
      <point x="546" y="456" type="line"/>
      <point x="583" y="606" type="line"/>
      <point x="347" y="606" type="line"/>
      <point x="381" y="744" type="line"/>
      <point x="687" y="744" type="line"/>
      <point x="726" y="900" type="line"/>
      <point x="246" y="900" type="line"/>
      <point x="21" y="0" type="line"/>
      <point x="351" y="0" type="line"/>
      <point x="294" y="-51"/>
      <point x="252" y="-108"/>
      <point x="252" y="-176" type="curve" smooth="yes"/>
      <point x="252" y="-259"/>
      <point x="318" y="-306"/>
    </contour>
  </outline>
</glyph>
<glyph name="eogonek" format="2">
  <advance width="690"/>
  <unicode hex="0119"/>
  <anchor x="429" y="600" name="top"/>
  <outline>
    <contour>
      <point x="396" y="-318" type="curve"/>
      <point x="456" y="-195" type="line"/>
      <point x="419" y="-190"/>
      <point x="392" y="-170"/>
      <point x="392" y="-135" type="curve" smooth="yes"/>
      <point x="392" y="-83"/>
      <point x="441" y="-25"/>
      <point x="539" y="44" type="curve"/>
      <point x="539" y="216" type="line"/>
      <point x="507" y="165"/>
      <point x="426" y="124"/>
      <point x="357" y="124" type="curve" smooth="yes"/>
      <point x="274" y="124"/>
      <point x="215" y="173"/>
      <point x="203" y="257" type="curve"/>
      <point x="231" y="251"/>
      <point x="255" y="249"/>
      <point x="281" y="249" type="curve" smooth="yes"/>
      <point x="647" y="249" type="line"/>
      <point x="660" y="301" type="line" smooth="yes"/>
      <point x="705" y="482"/>
      <point x="598" y="620"/>
      <point x="411" y="620" type="curve" smooth="yes"/>
      <point x="208" y="620"/>
      <point x="36" y="457"/>
      <point x="36" y="264" type="curve" smooth="yes"/>
      <point x="36" y="109"/>
      <point x="154" y="-10"/>
      <point x="318" y="-19" type="curve"/>
      <point x="320" y="-19"/>
      <point x="321" y="-19"/>
      <point x="323" y="-19" type="curve"/>
      <point x="256" y="-74"/>
      <point x="234" y="-125"/>
      <point x="234" y="-176" type="curve" smooth="yes"/>
      <point x="234" y="-259"/>
      <point x="300" y="-306"/>
    </contour>
    <contour>
      <point x="203" y="362" type="curve"/>
      <point x="232" y="433"/>
      <point x="300" y="481"/>
      <point x="382" y="481" type="curve" smooth="yes"/>
      <point x="461" y="481"/>
      <point x="508" y="438"/>
      <point x="514" y="366" type="curve"/>
      <point x="485" y="372"/>
      <point x="454" y="375"/>
      <point x="418" y="375" type="curve" smooth="yes"/>
      <point x="312" y="375" type="line" smooth="yes"/>
      <point x="279" y="375"/>
      <point x="245" y="371"/>
    </contour>
  </outline>
</glyph>
<glyph name="Hbar" format="2">
  <advance width="800"/>
  <unicode hex="0126"/>
  <outline>
    <contour>
      <point x="21" y="0" type="line"/>
      <point x="195" y="0" type="line"/>
      <point x="299" y="414" type="line"/>
      <point x="559" y="414" type="line"/>
      <point x="455" y="0" type="line"/>
      <point x="629" y="0" type="line"/>
      <point x="796" y="666" type="line"/>
      <point x="859" y="666" type="line"/>
      <point x="885" y="774" type="line"/>
      <point x="823" y="774" type="line"/>
      <point x="854" y="900" type="line"/>
      <point x="680" y="900" type="line"/>
      <point x="649" y="774" type="line"/>
      <point x="389" y="774" type="line"/>
      <point x="420" y="900" type="line"/>
      <point x="246" y="900" type="line"/>
      <point x="215" y="774" type="line"/>
      <point x="145" y="774" type="line"/>
      <point x="119" y="666" type="line"/>
      <point x="188" y="666" type="line"/>
    </contour>
    <contour>
      <point x="340" y="576" type="line"/>
      <point x="362" y="666" type="line"/>
      <point x="622" y="666" type="line"/>
      <point x="600" y="576" type="line"/>
    </contour>
  </outline>
</glyph>
<glyph name="hbar" format="2">
  <advance width="700"/>
  <unicode hex="0127"/>
  <outline>
    <contour>
      <point x="-9" y="0" type="line"/>
      <point x="165" y="0" type="line"/>
      <point x="254" y="350" type="line" smooth="yes"/>
      <point x="275" y="437"/>
      <point x="334" y="476"/>
      <point x="394" y="476" type="curve" smooth="yes"/>
      <point x="471" y="476"/>
      <point x="501" y="412"/>
      <point x="483" y="340" type="curve" smooth="yes"/>
      <point x="397" y="0" type="line"/>
      <point x="571" y="0" type="line"/>
      <point x="657" y="342" type="line" smooth="yes"/>
      <point x="692" y="482"/>
      <point x="631" y="620"/>
      <point x="469" y="620" type="curve" smooth="yes"/>
      <point x="404" y="620"/>
      <point x="340" y="595"/>
      <point x="289" y="544" type="curve"/>
      <point x="335" y="726" type="line"/>
      <point x="536" y="726" type="line"/>
      <point x="562" y="834" type="line"/>
      <point x="362" y="834" type="line"/>
      <point x="393" y="960" type="line"/>
      <point x="231" y="960" type="line"/>
      <point x="200" y="834" type="line"/>
      <point x="146" y="834" type="line"/>
      <point x="120" y="726" type="line"/>
      <point x="173" y="726" type="line"/>
    </contour>
  </outline>
</glyph>
<glyph name="Iogonek" format="2">
  <advance width="390"/>
  <unicode hex="012E"/>
  <outline>
    <contour>
      <point x="108" y="-318" type="curve"/>
      <point x="168" y="-195" type="line"/>
      <point x="131" y="-190"/>
      <point x="104" y="-170"/>
      <point x="104" y="-135" type="curve" smooth="yes"/>
      <point x="104" y="-83"/>
      <point x="148" y="-47"/>
      <point x="213" y="0" type="curve"/>
      <point x="438" y="900" type="line"/>
      <point x="252" y="900" type="line"/>
      <point x="27" y="0" type="line"/>
      <point x="-20" y="-51"/>
      <point x="-54" y="-108"/>
      <point x="-54" y="-176" type="curve" smooth="yes"/>
      <point x="-54" y="-259"/>
      <point x="12" y="-306"/>
    </contour>
  </outline>
</glyph>
<glyph name="kgreenlandic" format="2">
  <advance width="670"/>
  <unicode hex="0138"/>
  <anchor x="283" y="0" name="bottom"/>
  <anchor x="393" y="600" name="top"/>
  <outline>
    <contour>
      <point x="401" y="1" type="line"/>
      <point x="590" y="1" type="line"/>
      <point x="425" y="337" type="line"/>
      <point x="672" y="600" type="line"/>
      <point x="473" y="600" type="line"/>
      <point x="238" y="341" type="line"/>
    </contour>
    <contour>
      <point x="-9" y="0" type="line"/>
      <point x="165" y="0" type="line"/>
      <point x="313" y="600" type="line"/>
      <point x="139" y="600" type="line"/>
    </contour>
  </outline>
</glyph>
<glyph name="Lslash" format="2">
  <advance width="630"/>
  <unicode hex="0141"/>
  <outline>
    <contour>
      <point x="51" y="0" type="line"/>
      <point x="507" y="0" type="line"/>
      <point x="547" y="162" type="line"/>
      <point x="277" y="162" type="line"/>
      <point x="347" y="441" type="line"/>
      <point x="578" y="554" type="line"/>
      <point x="544" y="664" type="line"/>
      <point x="383" y="585" type="line"/>
      <point x="462" y="900" type="line"/>
      <point x="276" y="900" type="line"/>
      <point x="171" y="482" type="line"/>
      <point x="31" y="413" type="line"/>
      <point x="65" y="303" type="line"/>
      <point x="135" y="337" type="line"/>
    </contour>
  </outline>
</glyph>
<glyph name="lslash" format="2">
  <advance width="370"/>
  <unicode hex="0142"/>
  <outline>
    <contour>
      <point x="23" y="0" type="line"/>
      <point x="197" y="0" type="line"/>
      <point x="318" y="484" type="line"/>
      <point x="447" y="557" type="line"/>
      <point x="405" y="631" type="line"/>
      <point x="346" y="598" type="line"/>
      <point x="437" y="960" type="line"/>
      <point x="263" y="960" type="line"/>
      <point x="144" y="483" type="line"/>
      <point x="3" y="403" type="line"/>
      <point x="45" y="329" type="line"/>
      <point x="115" y="369" type="line"/>
    </contour>
  </outline>
</glyph>
<glyph name="Eng" format="2">
  <advance width="900"/>
  <unicode hex="014A"/>
  <anchor x="420" y="0" name="bottom"/>
  <anchor x="645" y="900" name="top"/>
  <outline>
    <contour>
      <point x="458" y="-200" type="curve" smooth="yes"/>
      <point x="564" y="-200"/>
      <point x="699" y="-121"/>
      <point x="744" y="58" type="curve" smooth="yes"/>
      <point x="954" y="900" type="line"/>
      <point x="786" y="900" type="line"/>
      <point x="653" y="365" type="line"/>
      <point x="255" y="930" type="line"/>
      <point x="253" y="930" type="line"/>
      <point x="21" y="0" type="line"/>
      <point x="189" y="0" type="line"/>
      <point x="322" y="536" type="line"/>
      <point x="597" y="146" type="line"/>
      <point x="584" y="93" type="line" smooth="yes"/>
      <point x="563" y="7"/>
      <point x="515" y="-32"/>
      <point x="459" y="-32" type="curve" smooth="yes"/>
      <point x="403" y="-32"/>
      <point x="359" y="6"/>
      <point x="343" y="50" type="curve"/>
      <point x="256" y="-109" type="line"/>
      <point x="297" y="-173"/>
      <point x="385" y="-200"/>
    </contour>
  </outline>
</glyph>
<glyph name="eng" format="2">
  <advance width="700"/>
  <unicode hex="014B"/>
  <outline>
    <contour>
      <point x="288" y="-312" type="line"/>
      <point x="408" y="-312"/>
      <point x="513" y="-234"/>
      <point x="547" y="-99" type="curve" smooth="yes"/>
      <point x="657" y="342" type="line" smooth="yes"/>
      <point x="692" y="481"/>
      <point x="631" y="620"/>
      <point x="469" y="620" type="curve" smooth="yes"/>
      <point x="401" y="620"/>
      <point x="334" y="593"/>
      <point x="282" y="536" type="curve"/>
      <point x="297" y="600" type="line"/>
      <point x="141" y="600" type="line"/>
      <point x="-9" y="0" type="line"/>
      <point x="165" y="0" type="line"/>
      <point x="254" y="350" type="line" smooth="yes"/>
      <point x="276" y="437"/>
      <point x="334" y="476"/>
      <point x="394" y="476" type="curve" smooth="yes"/>
      <point x="471" y="476"/>
      <point x="501" y="412"/>
      <point x="483" y="340" type="curve" smooth="yes"/>
      <point x="373" y="-99" type="line" smooth="yes"/>
      <point x="360" y="-151"/>
      <point x="332" y="-173"/>
      <point x="288" y="-173" type="curve"/>
    </contour>
  </outline>
</glyph>
<glyph name="OE" format="2">
  <advance width="1320"/>
  <unicode hex="0152"/>
  <anchor x="660" y="0" name="bottom"/>
  <anchor x="660" y="900" name="top"/>
  <outline>
    <contour>
      <point x="486" y="-18" type="curve" smooth="yes"/>
      <point x="571" y="-18"/>
      <point x="654" y="8"/>
      <point x="726" y="59" type="curve"/>
      <point x="711" y="0" type="line"/>
      <point x="1191" y="0" type="line"/>
      <point x="1231" y="162" type="line"/>
      <point x="925" y="162" type="line"/>
      <point x="998" y="456" type="line"/>
      <point x="1234" y="456" type="line"/>
      <point x="1272" y="606" type="line"/>
      <point x="1036" y="606" type="line"/>
      <point x="1071" y="744" type="line"/>
      <point x="1377" y="744" type="line"/>
      <point x="1416" y="900" type="line"/>
      <point x="936" y="900" type="line"/>
      <point x="911" y="805" type="line"/>
      <point x="839" y="875"/>
      <point x="737" y="918"/>
      <point x="621" y="918" type="curve" smooth="yes"/>
      <point x="342" y="918"/>
      <point x="92" y="670"/>
      <point x="92" y="396" type="curve" smooth="yes"/>
      <point x="92" y="163"/>
      <point x="263" y="-18"/>
    </contour>
    <contour>
      <point x="533" y="156" type="curve" smooth="yes"/>
      <point x="391" y="156"/>
      <point x="282" y="268"/>
      <point x="282" y="413" type="curve" smooth="yes"/>
      <point x="282" y="586"/>
      <point x="433" y="744"/>
      <point x="602" y="744" type="curve" smooth="yes"/>
      <point x="745" y="744"/>
      <point x="852" y="634"/>
      <point x="852" y="489" type="curve" smooth="yes"/>
      <point x="852" y="315"/>
      <point x="702" y="156"/>
    </contour>
  </outline>
</glyph>
<glyph name="oe" format="2">
  <advance width="1140"/>
  <unicode hex="0153"/>
  <anchor x="570" y="0" name="bottom"/>
  <anchor x="570" y="600" name="top"/>
  <outline>
    <contour>
      <point x="323" y="-20" type="curve" smooth="yes"/>
      <point x="411" y="-20"/>
      <point x="494" y="18"/>
      <point x="559" y="75" type="curve"/>
      <point x="613" y="16"/>
      <point x="695" y="-20"/>
      <point x="790" y="-20" type="curve" smooth="yes"/>
      <point x="866" y="-20"/>
      <point x="939" y="5"/>
      <point x="989" y="44" type="curve"/>
      <point x="989" y="216" type="line"/>
      <point x="957" y="165"/>
      <point x="876" y="124"/>
      <point x="807" y="124" type="curve" smooth="yes"/>
      <point x="724" y="124"/>
      <point x="665" y="173"/>
      <point x="653" y="257" type="curve"/>
      <point x="681" y="251"/>
      <point x="705" y="249"/>
      <point x="731" y="249" type="curve" smooth="yes"/>
      <point x="1097" y="249" type="line"/>
      <point x="1110" y="301" type="line" smooth="yes"/>
      <point x="1155" y="482"/>
      <point x="1048" y="620"/>
      <point x="861" y="620" type="curve" smooth="yes"/>
      <point x="767" y="620"/>
      <point x="679" y="585"/>
      <point x="612" y="527" type="curve"/>
      <point x="561" y="584"/>
      <point x="485" y="620"/>
      <point x="398" y="620" type="curve" smooth="yes"/>
      <point x="206" y="620"/>
      <point x="36" y="451"/>
      <point x="36" y="264" type="curve" smooth="yes"/>
      <point x="36" y="99"/>
      <point x="166" y="-20"/>
    </contour>
    <contour>
      <point x="341" y="136" type="curve" smooth="yes"/>
      <point x="259" y="136"/>
      <point x="201" y="199"/>
      <point x="201" y="280" type="curve" smooth="yes"/>
      <point x="201" y="376"/>
      <point x="282" y="464"/>
      <point x="379" y="464" type="curve" smooth="yes"/>
      <point x="461" y="464"/>
      <point x="519" y="400"/>
      <point x="519" y="320" type="curve" smooth="yes"/>
      <point x="519" y="225"/>
      <point x="438" y="136"/>
    </contour>
    <contour>
      <point x="653" y="362" type="curve"/>
      <point x="682" y="433"/>
      <point x="750" y="481"/>
      <point x="832" y="481" type="curve" smooth="yes"/>
      <point x="911" y="481"/>
      <point x="958" y="438"/>
      <point x="964" y="366" type="curve"/>
      <point x="935" y="372"/>
      <point x="904" y="375"/>
      <point x="868" y="375" type="curve" smooth="yes"/>
      <point x="762" y="375" type="line" smooth="yes"/>
      <point x="729" y="375"/>
      <point x="695" y="371"/>
    </contour>
  </outline>
</glyph>
<glyph name="scedilla" format="2">
  <advance width="530"/>
  <unicode hex="015F"/>
  <outline>
    <contour>
      <point x="-59" y="-192" type="line"/>
      <point x="156" y="-192" type="line"/>
      <point x="281" y="-13" type="line"/>
      <point x="388" y="13"/>
      <point x="466" y="99"/>
      <point x="466" y="194" type="curve" smooth="yes"/>
      <point x="466" y="258"/>
      <point x="432" y="301"/>
      <point x="342" y="351" type="curve" smooth="yes"/>
      <point x="273" y="389" type="line" smooth="yes"/>
      <point x="249" y="402"/>
      <point x="238" y="416"/>
      <point x="238" y="436" type="curve" smooth="yes"/>
      <point x="238" y="462"/>
      <point x="262" y="482"/>
      <point x="299" y="482" type="curve" smooth="yes"/>
      <point x="356" y="482"/>
      <point x="422" y="436"/>
      <point x="455" y="369" type="curve"/>
      <point x="533" y="520" type="line"/>
      <point x="495" y="577"/>
      <point x="413" y="620"/>
      <point x="327" y="620" type="curve" smooth="yes"/>
      <point x="194" y="620"/>
      <point x="86" y="519"/>
      <point x="86" y="410" type="curve" smooth="yes"/>
      <point x="86" y="345"/>
      <point x="123" y="299"/>
      <point x="191" y="261" type="curve" smooth="yes"/>
      <point x="267" y="219" type="line" smooth="yes"/>
      <point x="296" y="203"/>
      <point x="307" y="189"/>
      <point x="307" y="167" type="curve" smooth="yes"/>
      <point x="307" y="137"/>
      <point x="282" y="118"/>
      <point x="242" y="118" type="curve" smooth="yes"/>
      <point x="176" y="118"/>
      <point x="101" y="172"/>
      <point x="71" y="242" type="curve"/>
      <point x="-12" y="85" type="line"/>
      <point x="18" y="44"/>
      <point x="71" y="9"/>
      <point x="132" y="-8" type="curve"/>
    </contour>
  </outline>
</glyph>
<glyph name="Tcedilla" format="2">
  <advance width="710"/>
  <unicode hex="0162"/>
  <outline>
    <contour>
      <point x="6" y="-192" type="line"/>
      <point x="221" y="-192" type="line"/>
      <point x="373" y="0" type="line"/>
      <point x="558" y="738" type="line"/>
      <point x="778" y="738" type="line"/>
      <point x="818" y="900" type="line"/>
      <point x="192" y="900" type="line"/>
      <point x="152" y="738" type="line"/>
      <point x="372" y="738" type="line"/>
      <point x="187" y="0" type="line"/>
    </contour>
  </outline>
</glyph>
<glyph name="tcedilla" format="2">
  <advance width="450"/>
  <unicode hex="0163"/>
  <outline>
    <contour>
      <point x="-126" y="-192" type="line"/>
      <point x="89" y="-192" type="line"/>
      <point x="235" y="0" type="line"/>
      <point x="351" y="462" type="line"/>
      <point x="467" y="462" type="line"/>
      <point x="501" y="600" type="line"/>
      <point x="383" y="600" type="line"/>
      <point x="432" y="800" type="line"/>
      <point x="264" y="800" type="line"/>
      <point x="214" y="600" type="line"/>
      <point x="99" y="600" type="line"/>
      <point x="65" y="462" type="line"/>
      <point x="177" y="462" type="line"/>
      <point x="61" y="0" type="line"/>
    </contour>
  </outline>
</glyph>
<glyph name="Tbar" format="2">
  <advance width="710"/>
  <unicode hex="0166"/>
  <outline>
    <contour>
      <point x="187" y="0" type="line"/>
      <point x="373" y="0" type="line"/>
      <point x="470" y="387" type="line"/>
      <point x="615" y="387" type="line"/>
      <point x="647" y="513" type="line"/>
      <point x="502" y="513" type="line"/>
      <point x="558" y="738" type="line"/>
      <point x="778" y="738" type="line"/>
      <point x="818" y="900" type="line"/>
      <point x="192" y="900" type="line"/>
      <point x="152" y="738" type="line"/>
      <point x="372" y="738" type="line"/>
      <point x="316" y="513" type="line"/>
      <point x="167" y="513" type="line"/>
      <point x="135" y="387" type="line"/>
      <point x="284" y="387" type="line"/>
    </contour>
  </outline>
</glyph>
<glyph name="tbar" format="2">
  <advance width="450"/>
  <unicode hex="0167"/>
  <outline>
    <contour>
      <point x="61" y="0" type="line"/>
      <point x="235" y="0" type="line"/>
      <point x="297" y="246" type="line"/>
      <point x="395" y="246" type="line"/>
      <point x="421" y="354" type="line"/>
      <point x="324" y="354" type="line"/>
      <point x="351" y="462" type="line"/>
      <point x="467" y="462" type="line"/>
      <point x="501" y="600" type="line"/>
      <point x="383" y="600" type="line"/>
      <point x="432" y="800" type="line"/>
      <point x="264" y="800" type="line"/>
      <point x="214" y="600" type="line"/>
      <point x="99" y="600" type="line"/>
      <point x="65" y="462" type="line"/>
      <point x="177" y="462" type="line"/>
      <point x="150" y="354" type="line"/>
      <point x="41" y="354" type="line"/>
      <point x="15" y="246" type="line"/>
      <point x="123" y="246" type="line"/>
    </contour>
  </outline>
</glyph>
<glyph name="Uogonek" format="2">
  <advance width="800"/>
  <unicode hex="0172"/>
  <outline>
    <contour>
      <point x="345" y="-318" type="curve"/>
      <point x="405" y="-195" type="line"/>
      <point x="368" y="-190"/>
      <point x="341" y="-170"/>
      <point x="341" y="-135" type="curve" smooth="yes"/>
      <point x="341" y="-90"/>
      <point x="369" y="-56"/>
      <point x="412" y="-18" type="curve"/>
      <point x="568" y="0"/>
      <point x="679" y="104"/>
      <point x="720" y="268" type="curve" smooth="yes"/>
      <point x="878" y="900" type="line"/>
      <point x="698" y="900" type="line"/>
      <point x="546" y="290" type="line" smooth="yes"/>
      <point x="525" y="207"/>
      <point x="465" y="153"/>
      <point x="385" y="153" type="curve" smooth="yes"/>
      <point x="294" y="153"/>
      <point x="240" y="225"/>
      <point x="266" y="331" type="curve" smooth="yes"/>
      <point x="408" y="900" type="line"/>
      <point x="222" y="900" type="line"/>
      <point x="83" y="345" type="line" smooth="yes"/>
      <point x="40" y="172"/>
      <point x="117" y="34"/>
      <point x="267" y="-7" type="curve"/>
      <point x="198" y="-84"/>
      <point x="183" y="-126"/>
      <point x="183" y="-176" type="curve" smooth="yes"/>
      <point x="183" y="-259"/>
      <point x="249" y="-306"/>
    </contour>
  </outline>
</glyph>
<glyph name="Schwa" format="2">
  <advance width="1050"/>
  <unicode hex="018F"/>
  <outline>
    <contour>
      <point x="503" y="-18" type="curve" smooth="yes"/>
      <point x="783" y="-18"/>
      <point x="1032" y="230"/>
      <point x="1032" y="503" type="curve" smooth="yes"/>
      <point x="1032" y="736"/>
      <point x="850" y="918"/>
      <point x="611" y="918" type="curve" smooth="yes"/>
      <point x="512" y="918"/>
      <point x="417" y="887"/>
      <point x="335" y="834" type="curve"/>
      <point x="335" y="602" type="line"/>
      <point x="394" y="686"/>
      <point x="490" y="744"/>
      <point x="592" y="744" type="curve" smooth="yes"/>
      <point x="723" y="744"/>
      <point x="824" y="652"/>
      <point x="840" y="525" type="curve"/>
      <point x="804" y="531"/>
      <point x="768" y="534"/>
      <point x="732" y="534" type="curve" smooth="yes"/>
      <point x="102" y="534" type="line"/>
      <point x="100" y="525"/>
      <point x="98" y="517"/>
      <point x="96" y="508" type="curve" smooth="yes"/>
      <point x="33" y="233"/>
      <point x="213" y="-18"/>
    </contour>
    <contour>
      <point x="523" y="156" type="curve" smooth="yes"/>
      <point x="374" y="156"/>
      <point x="277" y="252"/>
      <point x="267" y="384" type="curve"/>
      <point x="695" y="384" type="line" smooth="yes"/>
      <point x="738" y="384"/>
      <point x="783" y="389"/>
      <point x="828" y="396" type="curve"/>
      <point x="787" y="262"/>
      <point x="661" y="156"/>
    </contour>
  </outline>
</glyph>
<glyph name="florin" format="2">
  <advance width="800"/>
  <unicode hex="0192"/>
  <outline>
    <contour>
      <point x="176" y="-192" type="curve" smooth="yes"/>
      <point x="284" y="-192"/>
      <point x="378" y="-129"/>
      <point x="412" y="9" type="curve" smooth="yes"/>
      <point x="504" y="381" type="line"/>
      <point x="717" y="381" type="line"/>
      <point x="751" y="519" type="line"/>
      <point x="539" y="519" type="line"/>
      <point x="584" y="695" type="line" smooth="yes"/>
      <point x="600" y="758"/>
      <point x="630" y="776"/>
      <point x="659" y="776" type="curve" smooth="yes"/>
      <point x="692" y="776"/>
      <point x="714" y="760"/>
      <point x="730" y="730" type="curve"/>
      <point x="798" y="865" type="line"/>
      <point x="761" y="899"/>
      <point x="699" y="912"/>
      <point x="653" y="912" type="curve" smooth="yes"/>
      <point x="545" y="912"/>
      <point x="452" y="847"/>
      <point x="417" y="711" type="curve" smooth="yes"/>
      <point x="368" y="519" type="line"/>
      <point x="156" y="519" type="line"/>
      <point x="122" y="381" type="line"/>
      <point x="334" y="381" type="line"/>
      <point x="245" y="25" type="line" smooth="yes"/>
      <point x="229" y="-37"/>
      <point x="199" y="-56"/>
      <point x="170" y="-56" type="curve" smooth="yes"/>
      <point x="137" y="-56"/>
      <point x="115" y="-40"/>
      <point x="99" y="-10" type="curve"/>
      <point x="31" y="-145" type="line"/>
      <point x="68" y="-179"/>
      <point x="130" y="-192"/>
    </contour>
  </outline>
</glyph>
<glyph name="Ohorn" format="2">
  <advance width="1060"/>
  <unicode hex="01A0"/>
  <anchor x="456" y="0" name="bottom"/>
  <anchor x="678" y="900" name="top"/>
  <outline>
    <contour>
      <point x="513" y="-18" type="curve" smooth="yes"/>
      <point x="793" y="-18"/>
      <point x="1042" y="230"/>
      <point x="1042" y="503" type="curve" smooth="yes"/>
      <point x="1042" y="569"/>
      <point x="1027" y="632"/>
      <point x="1000" y="687" type="curve"/>
      <point x="1114" y="715"/>
      <point x="1176" y="825"/>
      <point x="1176" y="914" type="curve" smooth="yes"/>
      <point x="1176" y="929"/>
      <point x="1174" y="944"/>
      <point x="1168" y="960" type="curve"/>
      <point x="1012" y="960" type="line"/>
      <point x="1017" y="944"/>
      <point x="1019" y="927"/>
      <point x="1019" y="912" type="curve" smooth="yes"/>
      <point x="1019" y="868"/>
      <point x="1002" y="806"/>
      <point x="934" y="784" type="curve"/>
      <point x="858" y="867"/>
      <point x="748" y="918"/>
      <point x="621" y="918" type="curve" smooth="yes"/>
      <point x="342" y="918"/>
      <point x="92" y="670"/>
      <point x="92" y="396" type="curve" smooth="yes"/>
      <point x="92" y="163"/>
      <point x="274" y="-18"/>
    </contour>
    <contour>
      <point x="533" y="156" type="curve" smooth="yes"/>
      <point x="391" y="156"/>
      <point x="282" y="268"/>
      <point x="282" y="413" type="curve" smooth="yes"/>
      <point x="282" y="586"/>
      <point x="433" y="744"/>
      <point x="602" y="744" type="curve" smooth="yes"/>
      <point x="745" y="744"/>
      <point x="852" y="634"/>
      <point x="852" y="489" type="curve" smooth="yes"/>
      <point x="852" y="315"/>
      <point x="702" y="156"/>
    </contour>
  </outline>
</glyph>
<glyph name="ohorn" format="2">
  <advance width="770"/>
  <unicode hex="01A1"/>
  <anchor x="286" y="0" name="bottom"/>
  <anchor x="434" y="600" name="top"/>
  <outline>
    <contour>
      <point x="323" y="-18" type="curve" smooth="yes"/>
      <point x="512" y="-18"/>
      <point x="684" y="150"/>
      <point x="684" y="338" type="curve" smooth="yes"/>
      <point x="684" y="360"/>
      <point x="682" y="382"/>
      <point x="677" y="402" type="curve"/>
      <point x="770" y="423"/>
      <point x="838" y="522"/>
      <point x="838" y="615" type="curve" smooth="yes"/>
      <point x="838" y="630"/>
      <point x="836" y="645"/>
      <point x="831" y="660" type="curve"/>
      <point x="687" y="660" type="line"/>
      <point x="692" y="645"/>
      <point x="694" y="629"/>
      <point x="694" y="615" type="curve" smooth="yes"/>
      <point x="694" y="571"/>
      <point x="679" y="518"/>
      <point x="639" y="492" type="curve"/>
      <point x="589" y="569"/>
      <point x="502" y="618"/>
      <point x="398" y="618" type="curve" smooth="yes"/>
      <point x="206" y="618"/>
      <point x="36" y="451"/>
      <point x="36" y="264" type="curve" smooth="yes"/>
      <point x="36" y="99"/>
      <point x="166" y="-18"/>
    </contour>
    <contour>
      <point x="341" y="138" type="curve" smooth="yes"/>
      <point x="259" y="138"/>
      <point x="201" y="199"/>
      <point x="201" y="280" type="curve" smooth="yes"/>
      <point x="201" y="376"/>
      <point x="282" y="463"/>
      <point x="379" y="463" type="curve" smooth="yes"/>
      <point x="461" y="463"/>
      <point x="519" y="400"/>
      <point x="519" y="320" type="curve" smooth="yes"/>
      <point x="519" y="225"/>
      <point x="438" y="138"/>
    </contour>
  </outline>
</glyph>
<glyph name="Uhorn" format="2">
  <advance width="940"/>
  <unicode hex="01AF"/>
  <anchor x="326" y="0" name="bottom"/>
  <anchor x="548" y="900" name="top"/>
  <outline>
    <contour>
      <point x="366" y="-20" type="curve" smooth="yes"/>
      <point x="546" y="-20"/>
      <point x="675" y="88"/>
      <point x="720" y="268" type="curve" smooth="yes"/>
      <point x="825" y="685" type="line"/>
      <point x="837" y="682"/>
      <point x="850" y="680"/>
      <point x="863" y="680" type="curve" smooth="yes"/>
      <point x="980" y="680"/>
      <point x="1082" y="798"/>
      <point x="1082" y="914" type="curve" smooth="yes"/>
      <point x="1082" y="929"/>
      <point x="1080" y="944"/>
      <point x="1075" y="960" type="curve"/>
      <point x="925" y="960" type="line"/>
      <point x="930" y="945"/>
      <point x="932" y="929"/>
      <point x="932" y="915" type="curve" smooth="yes"/>
      <point x="932" y="863"/>
      <point x="908" y="794"/>
      <point x="847" y="794" type="curve" smooth="yes"/>
      <point x="845" y="794"/>
      <point x="842" y="794"/>
      <point x="840" y="794" type="curve"/>
      <point x="866" y="900" type="line"/>
      <point x="698" y="900" type="line"/>
      <point x="546" y="290" type="line" smooth="yes"/>
      <point x="525" y="207"/>
      <point x="465" y="153"/>
      <point x="385" y="153" type="curve" smooth="yes"/>
      <point x="294" y="153"/>
      <point x="240" y="225"/>
      <point x="266" y="331" type="curve" smooth="yes"/>
      <point x="408" y="900" type="line"/>
      <point x="222" y="900" type="line"/>
      <point x="83" y="345" type="line" smooth="yes"/>
      <point x="31" y="137"/>
      <point x="153" y="-20"/>
    </contour>
  </outline>
</glyph>
<glyph name="uhorn" format="2">
  <advance width="840"/>
  <unicode hex="01B0"/>
  <anchor x="275" y="0" name="bottom"/>
  <anchor x="419" y="600" name="top"/>
  <outline>
    <contour>
      <point x="231" y="-20" type="curve" smooth="yes"/>
      <point x="299" y="-20"/>
      <point x="366" y="7"/>
      <point x="418" y="64" type="curve"/>
      <point x="403" y="0" type="line"/>
      <point x="559" y="0" type="line"/>
      <point x="657" y="391" type="line"/>
      <point x="669" y="388"/>
      <point x="683" y="386"/>
      <point x="697" y="386" type="curve" smooth="yes"/>
      <point x="817" y="386"/>
      <point x="909" y="507"/>
      <point x="909" y="615" type="curve" smooth="yes"/>
      <point x="909" y="630"/>
      <point x="907" y="645"/>
      <point x="902" y="660" type="curve"/>
      <point x="758" y="660" type="line"/>
      <point x="763" y="645"/>
      <point x="765" y="629"/>
      <point x="765" y="615" type="curve" smooth="yes"/>
      <point x="765" y="563"/>
      <point x="741" y="494"/>
      <point x="680" y="494" type="curve" smooth="yes"/>
      <point x="677" y="494"/>
      <point x="674" y="494"/>
      <point x="671" y="495" type="curve"/>
      <point x="697" y="600" type="line"/>
      <point x="535" y="600" type="line"/>
      <point x="446" y="250" type="line" smooth="yes"/>
      <point x="424" y="163"/>
      <point x="366" y="124"/>
      <point x="306" y="124" type="curve" smooth="yes"/>
      <point x="229" y="124"/>
      <point x="199" y="188"/>
      <point x="217" y="260" type="curve" smooth="yes"/>
      <point x="303" y="600" type="line"/>
      <point x="129" y="600" type="line"/>
      <point x="43" y="258" type="line" smooth="yes"/>
      <point x="8" y="118"/>
      <point x="69" y="-20"/>
    </contour>
  </outline>
</glyph>
<glyph name="Gstroke" format="2">
  <advance width="920"/>
  <unicode hex="01E4"/>
  <outline>
    <contour>
      <point x="513" y="-18" type="curve" smooth="yes"/>
      <point x="615" y="-18"/>
      <point x="713" y="14"/>
      <point x="797" y="71" type="curve"/>
      <point x="855" y="309" type="line"/>
      <point x="924" y="309" type="line"/>
      <point x="956" y="435" type="line"/>
      <point x="885" y="435" type="line"/>
      <point x="902" y="504" type="line"/>
      <point x="737" y="504" type="line"/>
      <point x="720" y="435" type="line"/>
      <point x="536" y="435" type="line"/>
      <point x="504" y="309" type="line"/>
      <point x="690" y="309" type="line"/>
      <point x="661" y="188" type="line"/>
      <point x="623" y="168"/>
      <point x="579" y="156"/>
      <point x="533" y="156" type="curve" smooth="yes"/>
      <point x="391" y="156"/>
      <point x="282" y="268"/>
      <point x="282" y="413" type="curve" smooth="yes"/>
      <point x="282" y="586"/>
      <point x="433" y="744"/>
      <point x="602" y="744" type="curve" smooth="yes"/>
      <point x="702" y="744"/>
      <point x="784" y="690"/>
      <point x="825" y="608" type="curve"/>
      <point x="918" y="801" type="line"/>
      <point x="843" y="874"/>
      <point x="739" y="918"/>
      <point x="621" y="918" type="curve" smooth="yes"/>
      <point x="342" y="918"/>
      <point x="92" y="670"/>
      <point x="92" y="396" type="curve" smooth="yes"/>
      <point x="92" y="163"/>
      <point x="274" y="-18"/>
    </contour>
  </outline>
</glyph>
<glyph name="gstroke" format="2">
  <advance width="740"/>
  <unicode hex="01E5"/>
  <outline>
    <contour>
      <point x="170" y="-313" type="curve" smooth="yes"/>
      <point x="351" y="-336"/>
      <point x="539" y="-242"/>
      <point x="587" y="-48" type="curve" smooth="yes"/>
      <point x="660" y="246" type="line"/>
      <point x="722" y="246" type="line"/>
      <point x="748" y="354" type="line"/>
      <point x="687" y="354" type="line"/>
      <point x="748" y="600" type="line"/>
      <point x="598" y="600" type="line"/>
      <point x="582" y="535" type="line"/>
      <point x="534" y="585"/>
      <point x="464" y="614"/>
      <point x="387" y="614" type="curve" smooth="yes"/>
      <point x="206" y="614"/>
      <point x="36" y="448"/>
      <point x="36" y="256" type="curve" smooth="yes"/>
      <point x="36" y="103"/>
      <point x="145" y="-14"/>
      <point x="288" y="-14" type="curve" smooth="yes"/>
      <point x="354" y="-14"/>
      <point x="412" y="11"/>
      <point x="459" y="49" type="curve"/>
      <point x="445" y="-5" type="line" smooth="yes"/>
      <point x="417" y="-113"/>
      <point x="328" y="-180"/>
      <point x="207" y="-166" type="curve" smooth="yes"/>
      <point x="121" y="-155"/>
      <point x="61" y="-106"/>
      <point x="32" y="-45" type="curve"/>
      <point x="-51" y="-209" type="line"/>
      <point x="-2" y="-263"/>
      <point x="77" y="-302"/>
    </contour>
    <contour>
      <point x="336" y="139" type="curve" smooth="yes"/>
      <point x="255" y="139"/>
      <point x="198" y="201"/>
      <point x="198" y="280" type="curve" smooth="yes"/>
      <point x="198" y="374"/>
      <point x="278" y="460"/>
      <point x="374" y="460" type="curve" smooth="yes"/>
      <point x="443" y="460"/>
      <point x="495" y="416"/>
      <point x="508" y="354" type="curve"/>
      <point x="332" y="354" type="line"/>
      <point x="306" y="246" type="line"/>
      <point x="496" y="246" type="line"/>
      <point x="467" y="185"/>
      <point x="406" y="139"/>
    </contour>
  </outline>
</glyph>
<glyph name="Oogonek" format="2">
  <advance width="1060"/>
  <unicode hex="01EA"/>
  <anchor x="679" y="900" name="top"/>
  <outline>
    <contour>
      <point x="478" y="-318" type="curve"/>
      <point x="538" y="-195" type="line"/>
      <point x="501" y="-190"/>
      <point x="474" y="-170"/>
      <point x="474" y="-135" type="curve" smooth="yes"/>
      <point x="474" y="-89"/>
      <point x="502" y="-56"/>
      <point x="546" y="-17" type="curve"/>
      <point x="812" y="2"/>
      <point x="1042" y="241"/>
      <point x="1042" y="503" type="curve" smooth="yes"/>
      <point x="1042" y="736"/>
      <point x="860" y="918"/>
      <point x="621" y="918" type="curve" smooth="yes"/>
      <point x="342" y="918"/>
      <point x="92" y="670"/>
      <point x="92" y="396" type="curve" smooth="yes"/>
      <point x="92" y="198"/>
      <point x="223" y="38"/>
      <point x="408" y="-6" type="curve"/>
      <point x="355" y="-55"/>
      <point x="316" y="-111"/>
      <point x="316" y="-176" type="curve" smooth="yes"/>
      <point x="316" y="-259"/>
      <point x="382" y="-306"/>
    </contour>
    <contour>
      <point x="533" y="156" type="curve" smooth="yes"/>
      <point x="391" y="156"/>
      <point x="282" y="268"/>
      <point x="282" y="413" type="curve" smooth="yes"/>
      <point x="282" y="586"/>
      <point x="433" y="744"/>
      <point x="602" y="744" type="curve" smooth="yes"/>
      <point x="745" y="744"/>
      <point x="852" y="634"/>
      <point x="852" y="489" type="curve" smooth="yes"/>
      <point x="852" y="315"/>
      <point x="702" y="156"/>
    </contour>
  </outline>
</glyph>
<glyph name="oogonek" format="2">
  <advance width="720"/>
  <unicode hex="01EB"/>
  <anchor x="435" y="600" name="top"/>
  <outline>
    <contour>
      <point x="307" y="-318" type="curve"/>
      <point x="367" y="-195" type="line"/>
      <point x="330" y="-190"/>
      <point x="303" y="-170"/>
      <point x="303" y="-135" type="curve" smooth="yes"/>
      <point x="303" y="-89"/>
      <point x="332" y="-55"/>
      <point x="376" y="-16" type="curve"/>
      <point x="543" y="13"/>
      <point x="684" y="168"/>
      <point x="684" y="338" type="curve" smooth="yes"/>
      <point x="684" y="496"/>
      <point x="562" y="620"/>
      <point x="398" y="620" type="curve" smooth="yes"/>
      <point x="206" y="620"/>
      <point x="36" y="451"/>
      <point x="36" y="264" type="curve" smooth="yes"/>
      <point x="36" y="131"/>
      <point x="121" y="28"/>
      <point x="236" y="-7" type="curve"/>
      <point x="183" y="-56"/>
      <point x="145" y="-111"/>
      <point x="145" y="-176" type="curve" smooth="yes"/>
      <point x="145" y="-259"/>
      <point x="211" y="-306"/>
    </contour>
    <contour>
      <point x="341" y="136" type="curve" smooth="yes"/>
      <point x="259" y="136"/>
      <point x="201" y="199"/>
      <point x="201" y="280" type="curve" smooth="yes"/>
      <point x="201" y="376"/>
      <point x="282" y="464"/>
      <point x="379" y="464" type="curve" smooth="yes"/>
      <point x="461" y="464"/>
      <point x="519" y="400"/>
      <point x="519" y="320" type="curve" smooth="yes"/>
      <point x="519" y="225"/>
      <point x="438" y="136"/>
    </contour>
  </outline>
</glyph>
<glyph name="schwa" format="2">
  <advance width="690"/>
  <unicode hex="0259"/>
  <outline>
    <contour>
      <point x="279" y="-20" type="curve" smooth="yes"/>
      <point x="482" y="-20"/>
      <point x="654" y="143"/>
      <point x="654" y="336" type="curve" smooth="yes"/>
      <point x="654" y="498"/>
      <point x="525" y="620"/>
      <point x="350" y="620" type="curve" smooth="yes"/>
      <point x="274" y="620"/>
      <point x="201" y="595"/>
      <point x="151" y="556" type="curve"/>
      <point x="151" y="384" type="line"/>
      <point x="183" y="435"/>
      <point x="264" y="476"/>
      <point x="333" y="476" type="curve" smooth="yes"/>
      <point x="416" y="476"/>
      <point x="475" y="427"/>
      <point x="487" y="343" type="curve"/>
      <point x="459" y="349"/>
      <point x="435" y="351"/>
      <point x="409" y="351" type="curve" smooth="yes"/>
      <point x="43" y="351" type="line"/>
      <point x="30" y="299" type="line" smooth="yes"/>
      <point x="-15" y="118"/>
      <point x="92" y="-20"/>
    </contour>
    <contour>
      <point x="308" y="119" type="curve" smooth="yes"/>
      <point x="229" y="119"/>
      <point x="182" y="162"/>
      <point x="176" y="234" type="curve"/>
      <point x="205" y="228"/>
      <point x="236" y="225"/>
      <point x="272" y="225" type="curve" smooth="yes"/>
      <point x="378" y="225" type="line" smooth="yes"/>
      <point x="411" y="225"/>
      <point x="445" y="229"/>
      <point x="487" y="238" type="curve"/>
      <point x="458" y="167"/>
      <point x="390" y="119"/>
    </contour>
  </outline>
</glyph>
<glyph name="ezh" format="2">
  <advance width="660"/>
  <unicode hex="0292"/>
  <anchor x="180" y="-300" name="bottom"/>
  <anchor x="395" y="600" name="top"/>
  <outline>
    <contour>
      <point x="180" y="-320" type="curve" smooth="yes"/>
      <point x="369" y="-320"/>
      <point x="548" y="-158"/>
      <point x="548" y="28" type="curve" smooth="yes"/>
      <point x="548" y="130"/>
      <point x="493" y="217"/>
      <point x="408" y="262" type="curve"/>
      <point x="675" y="598" type="line"/>
      <point x="675" y="600" type="line"/>
      <point x="153" y="600" type="line"/>
      <point x="115" y="444" type="line"/>
      <point x="373" y="444" type="line"/>
      <point x="138" y="143" type="line"/>
      <point x="139" y="141" type="line"/>
      <point x="170" y="153"/>
      <point x="200" y="158"/>
      <point x="230" y="158" type="curve" smooth="yes"/>
      <point x="327" y="158"/>
      <point x="377" y="98"/>
      <point x="377" y="22" type="curve" smooth="yes"/>
      <point x="377" y="-74"/>
      <point x="295" y="-158"/>
      <point x="196" y="-158" type="curve" smooth="yes"/>
      <point x="101" y="-158"/>
      <point x="38" y="-75"/>
      <point x="38" y="18" type="curve"/>
      <point x="-94" y="-148" type="line"/>
      <point x="-46" y="-260"/>
      <point x="65" y="-320"/>
    </contour>
  </outline>
</glyph>
<glyph name="gravecomb" format="2">
  <unicode hex="0300"/>
  <anchor x="505" y="600" name="_top"/>
  <anchor x="454" y="900" name="top"/>
  <outline>
    <contour>
      <point x="469" y="678" type="line"/>
      <point x="598" y="678" type="line"/>
      <point x="543" y="900" type="line"/>
      <point x="365" y="900" type="line"/>
    </contour>
  </outline>
</glyph>
<glyph name="acutecomb" format="2">
  <unicode hex="0301"/>
  <anchor x="366" y="600" name="_top"/>
  <anchor x="548" y="882" name="top"/>
  <outline>
    <contour>
      <point x="311" y="678" type="line"/>
      <point x="449" y="678" type="line"/>
      <point x="648" y="882" type="line"/>
      <point x="447" y="882" type="line"/>
    </contour>
  </outline>
</glyph>
<glyph name="circumflexcomb" format="2">
  <unicode hex="0302"/>
  <anchor x="435" y="600" name="_top"/>
  <anchor x="515" y="921" name="top"/>
  <outline>
    <contour>
      <point x="235" y="678" type="line"/>
      <point x="403" y="678" type="line"/>
      <point x="431" y="702"/>
      <point x="454" y="725"/>
      <point x="481" y="754" type="curve"/>
      <point x="494" y="725"/>
      <point x="505" y="702"/>
      <point x="521" y="678" type="curve"/>
      <point x="673" y="678" type="line"/>
      <point x="516" y="921" type="line"/>
      <point x="514" y="921" type="line"/>
    </contour>
  </outline>
</glyph>
<glyph name="macroncomb" format="2">
  <unicode hex="0304"/>
  <anchor x="435" y="600" name="_top"/>
  <anchor x="495" y="840" name="top"/>
  <outline>
    <contour>
      <point x="281" y="720" type="line"/>
      <point x="647" y="720" type="line"/>
      <point x="677" y="840" type="line"/>
      <point x="311" y="840" type="line"/>
    </contour>
  </outline>
</glyph>
<glyph name="dotaccentcomb" format="2">
  <unicode hex="0307"/>
  <anchor x="435" y="600" name="_top"/>
  <anchor x="503" y="873" name="top"/>
  <outline>
    <contour>
      <point x="469" y="687" type="curve" smooth="yes"/>
      <point x="524" y="687"/>
      <point x="573" y="736"/>
      <point x="573" y="791" type="curve" smooth="yes"/>
      <point x="573" y="837"/>
      <point x="538" y="873"/>
      <point x="491" y="873" type="curve" smooth="yes"/>
      <point x="436" y="873"/>
      <point x="387" y="824"/>
      <point x="387" y="769" type="curve" smooth="yes"/>
      <point x="387" y="721"/>
      <point x="424" y="687"/>
    </contour>
  </outline>
</glyph>
<glyph name="hookabovecomb" format="2">
  <unicode hex="0309"/>
  <anchor x="436" y="600" name="_top"/>
  <anchor x="515" y="922" name="top"/>
  <outline>
    <contour>
      <point x="396" y="690" type="curve"/>
      <point x="571" y="690" type="line"/>
      <point x="598" y="713"/>
      <point x="618" y="750"/>
      <point x="618" y="789" type="curve" smooth="yes"/>
      <point x="618" y="871"/>
      <point x="546" y="922"/>
      <point x="430" y="922" type="curve" smooth="yes"/>
      <point x="396" y="922"/>
      <point x="367" y="917"/>
      <point x="349" y="909" type="curve"/>
      <point x="349" y="791" type="line"/>
      <point x="368" y="803"/>
      <point x="392" y="810"/>
      <point x="412" y="810" type="curve" smooth="yes"/>
      <point x="444" y="810"/>
      <point x="465" y="793"/>
      <point x="465" y="767" type="curve" smooth="yes"/>
      <point x="465" y="740"/>
      <point x="442" y="716"/>
    </contour>
  </outline>
</glyph>
<glyph name="hungarumlautcomb" format="2">
  <unicode hex="030B"/>
  <anchor x="385" y="600" name="_top"/>
  <anchor x="481" y="870" name="top"/>
  <outline>
    <contour>
      <point x="459" y="678" type="line"/>
      <point x="586" y="678" type="line"/>
      <point x="748" y="870" type="line"/>
      <point x="568" y="870" type="line"/>
    </contour>
    <contour>
      <point x="213" y="678" type="line"/>
      <point x="340" y="678" type="line"/>
      <point x="502" y="870" type="line"/>
      <point x="322" y="870" type="line"/>
    </contour>
  </outline>
</glyph>
<glyph name="caroncomb" format="2">
  <unicode hex="030C"/>
  <anchor x="435" y="600" name="_top"/>
  <anchor x="512" y="912" name="top"/>
  <outline>
    <contour>
      <point x="451" y="669" type="line"/>
      <point x="453" y="669" type="line"/>
      <point x="731" y="912" type="line"/>
      <point x="563" y="912" type="line"/>
      <point x="535" y="888"/>
      <point x="512" y="865"/>
      <point x="485" y="836" type="curve"/>
      <point x="472" y="865"/>
      <point x="461" y="888"/>
      <point x="445" y="912" type="curve"/>
      <point x="293" y="912" type="line"/>
    </contour>
  </outline>
</glyph>
<glyph name="dblgravecomb" format="2">
  <unicode hex="030F"/>
  <anchor x="506" y="600" name="_top"/>
  <anchor x="431" y="900" name="top"/>
  <outline>
    <contour>
      <point x="334" y="678" type="line"/>
      <point x="451" y="678" type="line"/>
      <point x="396" y="900" type="line"/>
      <point x="230" y="900" type="line"/>
    </contour>
    <contour>
      <point x="570" y="678" type="line"/>
      <point x="687" y="678" type="line"/>
      <point x="632" y="900" type="line"/>
      <point x="466" y="900" type="line"/>
    </contour>
  </outline>
</glyph>
<glyph name="breveinvertedcomb" format="2">
  <unicode hex="0311"/>
  <anchor x="435" y="600" name="_top"/>
  <anchor x="500" y="861" name="top"/>
  <outline>
    <contour>
      <point x="247" y="663" type="curve"/>
      <point x="373" y="663" type="line"/>
      <point x="383" y="714"/>
      <point x="421" y="741"/>
      <point x="460" y="741" type="curve" smooth="yes"/>
      <point x="503" y="741"/>
      <point x="534" y="705"/>
      <point x="529" y="663" type="curve"/>
      <point x="655" y="663" type="line"/>
      <point x="670" y="778"/>
      <point x="584" y="861"/>
      <point x="468" y="861" type="curve" smooth="yes"/>
      <point x="366" y="861"/>
      <point x="268" y="797"/>
    </contour>
  </outline>
</glyph>
<glyph name="commaturnedabovecomb" format="2">
  <unicode hex="0312"/>
  <anchor x="435" y="600" name="_top"/>
  <anchor x="533" y="930" name="top"/>
  <outline>
    <contour>
      <point x="381" y="708" type="curve"/>
      <point x="543" y="708" type="line"/>
      <point x="572" y="798"/>
      <point x="622" y="871"/>
      <point x="684" y="930" type="curve"/>
      <point x="508" y="930" type="line"/>
      <point x="450" y="864"/>
      <point x="407" y="790"/>
    </contour>
  </outline>
</glyph>
<glyph name="horncomb" format="2">
  <unicode hex="031B"/>
  <anchor x="347" y="600" name="_topright"/>
  <outline>
    <contour>
      <point x="347" y="386" type="curve" smooth="yes"/>
      <point x="467" y="386"/>
      <point x="559" y="507"/>
      <point x="559" y="615" type="curve" smooth="yes"/>
      <point x="559" y="630"/>
      <point x="557" y="645"/>
      <point x="552" y="660" type="curve"/>
      <point x="408" y="660" type="line"/>
      <point x="413" y="645"/>
      <point x="415" y="629"/>
      <point x="415" y="615" type="curve" smooth="yes"/>
      <point x="415" y="563"/>
      <point x="391" y="494"/>
      <point x="330" y="494" type="curve" smooth="yes"/>
      <point x="305" y="494"/>
      <point x="285" y="505"/>
      <point x="277" y="528" type="curve"/>
      <point x="251" y="423" type="line"/>
      <point x="273" y="399"/>
      <point x="308" y="386"/>
    </contour>
  </outline>
</glyph>
<glyph name="dotbelowcomb" format="2">
  <unicode hex="0323"/>
  <anchor x="285" y="0" name="_bottom"/>
  <anchor x="217" y="-273" name="bottom"/>
  <outline>
    <contour>
      <point x="229" y="-273" type="curve" smooth="yes"/>
      <point x="284" y="-273"/>
      <point x="333" y="-224"/>
      <point x="333" y="-169" type="curve" smooth="yes"/>
      <point x="333" y="-123"/>
      <point x="298" y="-87"/>
      <point x="251" y="-87" type="curve" smooth="yes"/>
      <point x="196" y="-87"/>
      <point x="147" y="-136"/>
      <point x="147" y="-191" type="curve" smooth="yes"/>
      <point x="147" y="-239"/>
      <point x="184" y="-273"/>
    </contour>
  </outline>
</glyph>
<glyph name="dieresisbelowcomb" format="2">
  <unicode hex="0324"/>
  <anchor x="285" y="0" name="_bottom"/>
  <anchor x="218" y="-270" name="bottom"/>
  <outline>
    <contour>
      <point x="361" y="-270" type="curve" smooth="yes"/>
      <point x="415" y="-270"/>
      <point x="462" y="-223"/>
      <point x="462" y="-169" type="curve" smooth="yes"/>
      <point x="462" y="-125"/>
      <point x="428" y="-90"/>
      <point x="383" y="-90" type="curve" smooth="yes"/>
      <point x="329" y="-90"/>
      <point x="282" y="-137"/>
      <point x="282" y="-191" type="curve" smooth="yes"/>
      <point x="282" y="-237"/>
      <point x="318" y="-270"/>
    </contour>
    <contour>
      <point x="97" y="-270" type="curve" smooth="yes"/>
      <point x="151" y="-270"/>
      <point x="198" y="-223"/>
      <point x="198" y="-169" type="curve" smooth="yes"/>
      <point x="198" y="-125"/>
      <point x="164" y="-90"/>
      <point x="119" y="-90" type="curve" smooth="yes"/>
      <point x="65" y="-90"/>
      <point x="18" y="-137"/>
      <point x="18" y="-191" type="curve" smooth="yes"/>
      <point x="18" y="-237"/>
      <point x="54" y="-270"/>
    </contour>
  </outline>
</glyph>
<glyph name="commaaccentcomb" format="2">
  <unicode hex="0326"/>
  <anchor x="284" y="0" name="_bottom"/>
  <anchor x="123" y="-330" name="bottom"/>
  <outline>
    <contour>
      <point x="35" y="-330" type="curve"/>
      <point x="211" y="-330" type="line"/>
      <point x="269" y="-264"/>
      <point x="312" y="-190"/>
      <point x="338" y="-108" type="curve"/>
      <point x="176" y="-108" type="line"/>
      <point x="147" y="-198"/>
      <point x="97" y="-271"/>
    </contour>
  </outline>
</glyph>
<glyph name="cedillacomb" format="2">
  <unicode hex="0327"/>
  <anchor x="303" y="0" name="_bottom"/>
  <anchor x="137" y="-192" name="bottom"/>
  <outline>
    <contour>
      <point x="29" y="-192" type="line"/>
      <point x="244" y="-192" type="line"/>
      <point x="378" y="0" type="line"/>
      <point x="228" y="0" type="line"/>
    </contour>
  </outline>
</glyph>
<glyph name="ogonekcomb" format="2">
  <unicode hex="0328"/>
  <anchor x="325" y="0" name="_ogonek"/>
  <outline>
    <contour>
      <point x="316" y="-318" type="curve"/>
      <point x="376" y="-195" type="line"/>
      <point x="339" y="-190"/>
      <point x="312" y="-170"/>
      <point x="312" y="-135" type="curve" smooth="yes"/>
      <point x="312" y="-83"/>
      <point x="349" y="-47"/>
      <point x="403" y="0" type="curve"/>
      <point x="253" y="0" type="line"/>
      <point x="196" y="-51"/>
      <point x="154" y="-108"/>
      <point x="154" y="-176" type="curve" smooth="yes"/>
      <point x="154" y="-259"/>
      <point x="220" y="-306"/>
    </contour>
  </outline>
</glyph>
<glyph name="brevebelowcomb" format="2">
  <unicode hex="032E"/>
  <anchor x="285" y="0" name="_bottom"/>
  <anchor x="220" y="-261" name="bottom"/>
  <outline>
    <contour>
      <point x="252" y="-261" type="curve" smooth="yes"/>
      <point x="354" y="-261"/>
      <point x="452" y="-197"/>
      <point x="473" y="-63" type="curve"/>
      <point x="347" y="-63" type="line"/>
      <point x="337" y="-114"/>
      <point x="299" y="-141"/>
      <point x="260" y="-141" type="curve" smooth="yes"/>
      <point x="217" y="-141"/>
      <point x="186" y="-105"/>
      <point x="191" y="-63" type="curve"/>
      <point x="65" y="-63" type="line"/>
      <point x="50" y="-178"/>
      <point x="136" y="-261"/>
    </contour>
  </outline>
</glyph>
<glyph name="macronbelowcomb" format="2">
  <unicode hex="0331"/>
  <anchor x="285" y="0" name="_bottom"/>
  <anchor x="225" y="-240" name="bottom"/>
  <outline>
    <contour>
      <point x="43" y="-240" type="line"/>
      <point x="399" y="-240" type="line"/>
      <point x="429" y="-120" type="line"/>
      <point x="73" y="-120" type="line"/>
    </contour>
  </outline>
</glyph>
<glyph name="strokelongcomb" format="2">
  <unicode hex="0336"/>
  <anchor x="437" y="450" name="_center"/>
  <outline>
    <contour>
      <point x="54" y="396" type="line"/>
      <point x="794" y="396" type="line"/>
      <point x="820" y="504" type="line"/>
      <point x="80" y="504" type="line"/>
    </contour>
  </outline>
</glyph>
<glyph name="pi" format="2">
  <advance width="700"/>
  <unicode hex="03C0"/>
  <outline>
    <contour>
      <point x="-9" y="0" type="line"/>
      <point x="165" y="0" type="line"/>
      <point x="277" y="444" type="line"/>
      <point x="497" y="444" type="line"/>
      <point x="385" y="0" type="line"/>
      <point x="559" y="0" type="line"/>
      <point x="710" y="600" type="line"/>
      <point x="142" y="600" type="line"/>
    </contour>
  </outline>
</glyph>
<glyph name="endash" format="2">
  <advance width="720"/>
  <unicode hex="2013"/>
  <outline>
    <contour>
      <point x="32" y="228" type="line"/>
      <point x="652" y="228" type="line"/>
      <point x="688" y="372" type="line"/>
      <point x="68" y="372" type="line"/>
    </contour>
  </outline>
</glyph>
<glyph name="quoteleft" format="2">
  <advance width="300"/>
  <unicode hex="2018"/>
  <outline>
    <contour>
      <point x="114" y="570" type="curve"/>
      <point x="282" y="570" type="line"/>
      <point x="317" y="711"/>
      <point x="385" y="818"/>
      <point x="463" y="900" type="curve"/>
      <point x="288" y="900" type="line"/>
      <point x="203" y="807"/>
      <point x="145" y="696"/>
    </contour>
  </outline>
</glyph>
<glyph name="quoteright" format="2">
  <advance width="300"/>
  <unicode hex="2019"/>
  <outline>
    <contour>
      <point x="54" y="570" type="curve"/>
      <point x="229" y="570" type="line"/>
      <point x="314" y="663"/>
      <point x="372" y="774"/>
      <point x="403" y="900" type="curve"/>
      <point x="235" y="900" type="line"/>
      <point x="200" y="759"/>
      <point x="132" y="652"/>
    </contour>
  </outline>
</glyph>
<glyph name="dagger" format="2">
  <advance width="600"/>
  <unicode hex="2020"/>
  <outline>
    <contour>
      <point x="144" y="0" type="line"/>
      <point x="306" y="0" type="line"/>
      <point x="441" y="567" type="line"/>
      <point x="605" y="561" type="line"/>
      <point x="639" y="699" type="line"/>
      <point x="470" y="693" type="line"/>
      <point x="530" y="900" type="line"/>
      <point x="368" y="900" type="line"/>
      <point x="325" y="693" type="line"/>
      <point x="159" y="699" type="line"/>
      <point x="125" y="561" type="line"/>
      <point x="290" y="567" type="line"/>
    </contour>
  </outline>
</glyph>
<glyph name="daggerdbl" format="2">
  <advance width="600"/>
  <unicode hex="2021"/>
  <outline>
    <contour>
      <point x="144" y="0" type="line"/>
      <point x="306" y="0" type="line"/>
      <point x="349" y="207" type="line"/>
      <point x="515" y="201" type="line"/>
      <point x="549" y="339" type="line"/>
      <point x="384" y="333" type="line"/>
      <point x="414" y="450" type="line"/>
      <point x="442" y="567" type="line"/>
      <point x="606" y="561" type="line"/>
      <point x="640" y="699" type="line"/>
      <point x="471" y="693" type="line"/>
      <point x="531" y="900" type="line"/>
      <point x="369" y="900" type="line"/>
      <point x="326" y="693" type="line"/>
      <point x="160" y="699" type="line"/>
      <point x="126" y="561" type="line"/>
      <point x="291" y="567" type="line"/>
      <point x="261" y="450" type="line"/>
      <point x="233" y="333" type="line"/>
      <point x="69" y="339" type="line"/>
      <point x="35" y="201" type="line"/>
      <point x="204" y="207" type="line"/>
    </contour>
  </outline>
</glyph>
<glyph name="ellipsis" format="2">
  <advance width="1440"/>
  <unicode hex="2026"/>
  <outline>
    <contour>
      <point x="1133" y="-20" type="curve" smooth="yes"/>
      <point x="1196" y="-20"/>
      <point x="1251" y="35"/>
      <point x="1251" y="98" type="curve" smooth="yes"/>
      <point x="1251" y="150"/>
      <point x="1212" y="190"/>
      <point x="1159" y="190" type="curve" smooth="yes"/>
      <point x="1096" y="190"/>
      <point x="1041" y="135"/>
      <point x="1041" y="73" type="curve" smooth="yes"/>
      <point x="1041" y="19"/>
      <point x="1083" y="-20"/>
    </contour>
    <contour>
      <point x="173" y="-20" type="curve" smooth="yes"/>
      <point x="236" y="-20"/>
      <point x="291" y="35"/>
      <point x="291" y="98" type="curve" smooth="yes"/>
      <point x="291" y="150"/>
      <point x="252" y="190"/>
      <point x="199" y="190" type="curve" smooth="yes"/>
      <point x="136" y="190"/>
      <point x="81" y="135"/>
      <point x="81" y="73" type="curve" smooth="yes"/>
      <point x="81" y="19"/>
      <point x="123" y="-20"/>
    </contour>
    <contour>
      <point x="653" y="-20" type="curve" smooth="yes"/>
      <point x="716" y="-20"/>
      <point x="771" y="35"/>
      <point x="771" y="98" type="curve" smooth="yes"/>
      <point x="771" y="150"/>
      <point x="732" y="190"/>
      <point x="679" y="190" type="curve" smooth="yes"/>
      <point x="616" y="190"/>
      <point x="561" y="135"/>
      <point x="561" y="73" type="curve" smooth="yes"/>
      <point x="561" y="19"/>
      <point x="603" y="-20"/>
    </contour>
  </outline>
</glyph>
<glyph name="minute" format="2">
  <advance width="290"/>
  <unicode hex="2032"/>
  <outline>
    <contour>
      <point x="52" y="540" type="line"/>
      <point x="143" y="540" type="line"/>
      <point x="480" y="900" type="line"/>
      <point x="248" y="900" type="line"/>
    </contour>
  </outline>
</glyph>
<glyph name="guilsinglleft" format="2">
  <advance width="420"/>
  <unicode hex="2039"/>
  <outline>
    <contour>
      <point x="175" y="120" type="line"/>
      <point x="370" y="120" type="line"/>
      <point x="217" y="297" type="line"/>
      <point x="446" y="481" type="line"/>
      <point x="231" y="481" type="line"/>
      <point x="13" y="306" type="line"/>
    </contour>
  </outline>
</glyph>
<glyph name="guilsinglright" format="2">
  <advance width="420"/>
  <unicode hex="203A"/>
  <outline>
    <contour>
      <point x="-26" y="120" type="line"/>
      <point x="189" y="120" type="line"/>
      <point x="407" y="295" type="line"/>
      <point x="245" y="481" type="line"/>
      <point x="50" y="481" type="line"/>
      <point x="203" y="304" type="line"/>
    </contour>
  </outline>
</glyph>
<glyph name="fraction" format="2">
  <advance width="180"/>
  <unicode hex="2044"/>
  <outline>
    <contour>
      <point x="-365" y="0" type="line"/>
      <point x="-213" y="0" type="line"/>
      <point x="617" y="900" type="line"/>
      <point x="465" y="900" type="line"/>
    </contour>
  </outline>
</glyph>
<glyph name="commercialMinusSign" format="2">
  <advance width="750"/>
  <unicode hex="2052"/>
  <outline>
    <contour>
      <point x="9" y="0" type="line"/>
      <point x="149" y="0" type="line"/>
      <point x="817" y="900" type="line"/>
      <point x="677" y="900" type="line"/>
    </contour>
    <contour>
      <point x="242" y="552" type="curve" smooth="yes"/>
      <point x="306" y="552"/>
      <point x="363" y="609"/>
      <point x="363" y="673" type="curve" smooth="yes"/>
      <point x="363" y="727"/>
      <point x="323" y="768"/>
      <point x="268" y="768" type="curve" smooth="yes"/>
      <point x="204" y="768"/>
      <point x="147" y="711"/>
      <point x="147" y="648" type="curve" smooth="yes"/>
      <point x="147" y="592"/>
      <point x="190" y="552"/>
    </contour>
    <contour>
      <point x="558" y="132" type="curve" smooth="yes"/>
      <point x="622" y="132"/>
      <point x="679" y="189"/>
      <point x="679" y="253" type="curve" smooth="yes"/>
      <point x="679" y="307"/>
      <point x="639" y="348"/>
      <point x="584" y="348" type="curve" smooth="yes"/>
      <point x="520" y="348"/>
      <point x="463" y="291"/>
      <point x="463" y="228" type="curve" smooth="yes"/>
      <point x="463" y="172"/>
      <point x="506" y="132"/>
    </contour>
  </outline>
</glyph>
<glyph name="colonsign" format="2">
  <advance width="750"/>
  <unicode hex="20A1"/>
  <outline>
    <contour>
      <point x="141" y="-120" type="line"/>
      <point x="249" y="-120" type="line"/>
      <point x="290" y="6" type="line"/>
      <point x="318" y="-5"/>
      <point x="347" y="-13"/>
      <point x="379" y="-17" type="curve"/>
      <point x="345" y="-120" type="line"/>
      <point x="453" y="-120" type="line"/>
      <point x="488" y="-13" type="line"/>
      <point x="543" y="-2"/>
      <point x="595" y="19"/>
      <point x="642" y="51" type="curve"/>
      <point x="642" y="255" type="line"/>
      <point x="591" y="185"/>
      <point x="511" y="142"/>
      <point x="438" y="142" type="curve" smooth="yes"/>
      <point x="331" y="142"/>
      <point x="260" y="224"/>
      <point x="260" y="347" type="curve" smooth="yes"/>
      <point x="260" y="550"/>
      <point x="402" y="757"/>
      <point x="544" y="757" type="curve" smooth="yes"/>
      <point x="618" y="757"/>
      <point x="684" y="707"/>
      <point x="715" y="631" type="curve"/>
      <point x="804" y="809" type="line"/>
      <point x="787" y="829"/>
      <point x="767" y="847"/>
      <point x="745" y="862" type="curve"/>
      <point x="787" y="990" type="line"/>
      <point x="679" y="990" type="line"/>
      <point x="652" y="907" type="line"/>
      <point x="623" y="915"/>
      <point x="592" y="920"/>
      <point x="560" y="920" type="curve"/>
      <point x="583" y="990" type="line"/>
      <point x="475" y="990" type="line"/>
      <point x="446" y="900" type="line"/>
      <point x="253" y="830"/>
      <point x="96" y="594"/>
      <point x="96" y="344" type="curve" smooth="yes"/>
      <point x="96" y="227"/>
      <point x="135" y="129"/>
      <point x="202" y="65" type="curve"/>
    </contour>
  </outline>
</glyph>
<glyph name="naira" format="2">
  <advance width="750"/>
  <unicode hex="20A6"/>
  <outline>
    <contour>
      <point x="572" y="-30" type="line"/>
      <point x="574" y="-30" type="line"/>
      <point x="654" y="294" type="line"/>
      <point x="708" y="294" type="line"/>
      <point x="734" y="402" type="line"/>
      <point x="680" y="402" type="line"/>
      <point x="704" y="498" type="line"/>
      <point x="758" y="498" type="line"/>
      <point x="784" y="606" type="line"/>
      <point x="730" y="606" type="line"/>
      <point x="803" y="900" type="line"/>
      <point x="641" y="900" type="line"/>
      <point x="524" y="427" type="line"/>
      <point x="254" y="930" type="line"/>
      <point x="252" y="930" type="line"/>
      <point x="172" y="606" type="line"/>
      <point x="118" y="606" type="line"/>
      <point x="92" y="498" type="line"/>
      <point x="146" y="498" type="line"/>
      <point x="122" y="402" type="line"/>
      <point x="68" y="402" type="line"/>
      <point x="42" y="294" type="line"/>
      <point x="96" y="294" type="line"/>
      <point x="23" y="0" type="line"/>
      <point x="185" y="0" type="line"/>
      <point x="302" y="473" type="line"/>
    </contour>
  </outline>
</glyph>
<glyph name="rupee" format="2">
  <advance width="750"/>
  <unicode hex="20A8"/>
  <outline>
    <contour>
      <point x="-27" y="0" type="line"/>
      <point x="116" y="0" type="line"/>
      <point x="211" y="383" type="line"/>
      <point x="255" y="383" type="line"/>
      <point x="265" y="0" type="line"/>
      <point x="403" y="0" type="line"/>
      <point x="383" y="419" type="line"/>
      <point x="485" y="466"/>
      <point x="538" y="593"/>
      <point x="538" y="691" type="curve" smooth="yes"/>
      <point x="538" y="810"/>
      <point x="474" y="900"/>
      <point x="345" y="900" type="curve" smooth="yes"/>
      <point x="196" y="900" type="line"/>
    </contour>
    <contour>
      <point x="246" y="524" type="line"/>
      <point x="305" y="759" type="line"/>
      <point x="318" y="759" type="line" smooth="yes"/>
      <point x="374" y="759"/>
      <point x="397" y="729"/>
      <point x="397" y="678" type="curve" smooth="yes"/>
      <point x="397" y="612"/>
      <point x="347" y="524"/>
      <point x="275" y="524" type="curve" smooth="yes"/>
    </contour>
    <contour>
      <point x="541" y="-20" type="curve" smooth="yes"/>
      <point x="641" y="-20"/>
      <point x="713" y="83"/>
      <point x="713" y="206" type="curve" smooth="yes"/>
      <point x="713" y="321"/>
      <point x="638" y="385"/>
      <point x="638" y="431" type="curve" smooth="yes"/>
      <point x="638" y="447"/>
      <point x="647" y="463"/>
      <point x="666" y="463" type="curve" smooth="yes"/>
      <point x="684" y="463"/>
      <point x="705" y="448"/>
      <point x="720" y="419" type="curve"/>
      <point x="789" y="549" type="line"/>
      <point x="780" y="580"/>
      <point x="742" y="620"/>
      <point x="677" y="620" type="curve" smooth="yes"/>
      <point x="561" y="620"/>
      <point x="514" y="490"/>
      <point x="514" y="401" type="curve" smooth="yes"/>
      <point x="514" y="296"/>
      <point x="591" y="222"/>
      <point x="591" y="174" type="curve" smooth="yes"/>
      <point x="591" y="154"/>
      <point x="578" y="138"/>
      <point x="558" y="138" type="curve" smooth="yes"/>
      <point x="533" y="138"/>
      <point x="508" y="163"/>
      <point x="493" y="192" type="curve"/>
      <point x="419" y="54" type="line"/>
      <point x="434" y="15"/>
      <point x="481" y="-20"/>
    </contour>
  </outline>
</glyph>
<glyph name="won" format="2">
  <advance width="750"/>
  <unicode hex="20A9"/>
  <outline>
    <contour>
      <point x="153" y="-32" type="line"/>
      <point x="155" y="-32" type="line"/>
      <point x="376" y="413" type="line" smooth="yes"/>
      <point x="394" y="449"/>
      <point x="413" y="485"/>
      <point x="437" y="541" type="curve"/>
      <point x="433" y="485"/>
      <point x="434" y="448"/>
      <point x="434" y="412" type="curve" smooth="yes"/>
      <point x="437" y="-32" type="line"/>
      <point x="439" y="-32" type="line"/>
      <point x="598" y="294" type="line"/>
      <point x="709" y="294" type="line"/>
      <point x="735" y="402" type="line"/>
      <point x="650" y="402" type="line"/>
      <point x="698" y="498" type="line"/>
      <point x="759" y="498" type="line"/>
      <point x="786" y="606" type="line"/>
      <point x="751" y="606" type="line"/>
      <point x="894" y="900" type="line"/>
      <point x="745" y="900" type="line"/>
      <point x="559" y="516" type="line" smooth="yes"/>
      <point x="550" y="498"/>
      <point x="542" y="481"/>
      <point x="533" y="461" type="curve"/>
      <point x="533" y="481"/>
      <point x="531" y="498"/>
      <point x="531" y="516" type="curve" smooth="yes"/>
      <point x="528" y="930" type="line"/>
      <point x="526" y="930" type="line"/>
      <point x="319" y="516" type="line" smooth="yes"/>
      <point x="310" y="498"/>
      <point x="302" y="480"/>
      <point x="292" y="460" type="curve"/>
      <point x="293" y="480"/>
      <point x="292" y="498"/>
      <point x="292" y="516" type="curve" smooth="yes"/>
      <point x="294" y="900" type="line"/>
      <point x="156" y="900" type="line"/>
      <point x="155" y="606" type="line"/>
      <point x="120" y="606" type="line"/>
      <point x="93" y="498" type="line"/>
      <point x="154" y="498" type="line"/>
      <point x="154" y="402" type="line"/>
      <point x="69" y="402" type="line"/>
      <point x="43" y="294" type="line"/>
      <point x="154" y="294" type="line"/>
    </contour>
  </outline>
</glyph>
<glyph name="sheqel" format="2">
  <advance width="750"/>
  <unicode hex="20AA"/>
  <outline>
    <contour>
      <point x="397" y="0" type="curve" smooth="yes"/>
      <point x="627" y="0" type="line"/>
      <point x="852" y="900" type="line"/>
      <point x="726" y="900" type="line"/>
      <point x="529" y="114" type="line"/>
      <point x="430" y="114" type="line" smooth="yes"/>
      <point x="357" y="114"/>
      <point x="315" y="161"/>
      <point x="334" y="239" type="curve" smooth="yes"/>
      <point x="454" y="720" type="line"/>
      <point x="332" y="720" type="line"/>
      <point x="211" y="239" type="line" smooth="yes"/>
      <point x="174" y="92"/>
      <point x="268" y="0"/>
    </contour>
    <contour>
      <point x="-27" y="0" type="line"/>
      <point x="99" y="0" type="line"/>
      <point x="296" y="786" type="line"/>
      <point x="415" y="786" type="line" smooth="yes"/>
      <point x="478" y="786"/>
      <point x="511" y="739"/>
      <point x="494" y="670" type="curve" smooth="yes"/>
      <point x="371" y="180" type="line"/>
      <point x="493" y="180" type="line"/>
      <point x="614" y="661" type="line" smooth="yes"/>
      <point x="651" y="808"/>
      <point x="557" y="900"/>
      <point x="428" y="900" type="curve" smooth="yes"/>
      <point x="198" y="900" type="line"/>
    </contour>
  </outline>
</glyph>
<glyph name="dong" format="2">
  <advance width="750"/>
  <unicode hex="20AB"/>
  <outline>
    <contour>
      <point x="312" y="108" type="curve" smooth="yes"/>
      <point x="372" y="108"/>
      <point x="424" y="130"/>
      <point x="466" y="165" type="curve"/>
      <point x="454" y="120" type="line"/>
      <point x="598" y="120" type="line"/>
      <point x="757" y="756" type="line"/>
      <point x="837" y="756" type="line"/>
      <point x="863" y="864" type="line"/>
      <point x="784" y="864" type="line"/>
      <point x="808" y="960" type="line"/>
      <point x="664" y="960" type="line"/>
      <point x="640" y="864" type="line"/>
      <point x="435" y="864" type="line"/>
      <point x="409" y="756" type="line"/>
      <point x="612" y="756" type="line"/>
      <point x="574" y="604" type="line"/>
      <point x="532" y="647"/>
      <point x="470" y="673"/>
      <point x="402" y="673" type="curve" smooth="yes"/>
      <point x="239" y="673"/>
      <point x="87" y="524"/>
      <point x="87" y="351" type="curve" smooth="yes"/>
      <point x="87" y="213"/>
      <point x="185" y="108"/>
    </contour>
    <contour>
      <point x="7" y="-54" type="line"/>
      <point x="565" y="-54" type="line"/>
      <point x="592" y="54" type="line"/>
      <point x="34" y="54" type="line"/>
    </contour>
    <contour>
      <point x="359" y="249" type="curve" smooth="yes"/>
      <point x="289" y="249"/>
      <point x="239" y="304"/>
      <point x="239" y="373" type="curve" smooth="yes"/>
      <point x="239" y="455"/>
      <point x="310" y="530"/>
      <point x="393" y="530" type="curve" smooth="yes"/>
      <point x="464" y="530"/>
      <point x="514" y="478"/>
      <point x="514" y="408" type="curve" smooth="yes"/>
      <point x="514" y="325"/>
      <point x="443" y="249"/>
    </contour>
  </outline>
</glyph>
<glyph name="euro" format="2">
  <advance width="750"/>
  <unicode hex="20AC"/>
  <outline>
    <contour>
      <point x="458" y="-20" type="curve" smooth="yes"/>
      <point x="520" y="-20"/>
      <point x="585" y="-1"/>
      <point x="642" y="37" type="curve"/>
      <point x="642" y="216" type="line"/>
      <point x="600" y="170"/>
      <point x="541" y="134"/>
      <point x="482" y="134" type="curve" smooth="yes"/>
      <point x="399" y="134"/>
      <point x="357" y="198"/>
      <point x="352" y="294" type="curve"/>
      <point x="557" y="294" type="line"/>
      <point x="583" y="402" type="line"/>
      <point x="360" y="402" type="line"/>
      <point x="365" y="433"/>
      <point x="372" y="465"/>
      <point x="381" y="498" type="curve"/>
      <point x="607" y="498" type="line"/>
      <point x="633" y="606" type="line"/>
      <point x="420" y="606" type="line"/>
      <point x="461" y="694"/>
      <point x="521" y="764"/>
      <point x="602" y="764" type="curve" smooth="yes"/>
      <point x="671" y="764"/>
      <point x="723" y="707"/>
      <point x="744" y="644" type="curve"/>
      <point x="832" y="813" type="line"/>
      <point x="780" y="882"/>
      <point x="700" y="920"/>
      <point x="616" y="920" type="curve" smooth="yes"/>
      <point x="442" y="920"/>
      <point x="316" y="775"/>
      <point x="246" y="606" type="curve"/>
      <point x="147" y="606" type="line"/>
      <point x="121" y="498" type="line"/>
      <point x="211" y="498" type="line"/>
      <point x="202" y="466"/>
      <point x="196" y="433"/>
      <point x="192" y="402" type="curve"/>
      <point x="97" y="402" type="line"/>
      <point x="71" y="294" type="line"/>
      <point x="186" y="294" type="line"/>
      <point x="193" y="114"/>
      <point x="284" y="-20"/>
    </contour>
  </outline>
</glyph>
<glyph name="kip" format="2">
  <advance width="750"/>
  <unicode hex="20AD"/>
  <outline>
    <contour>
      <point x="23" y="0" type="line"/>
      <point x="203" y="0" type="line"/>
      <point x="315" y="455" type="line"/>
      <point x="324" y="421"/>
      <point x="333" y="388"/>
      <point x="342" y="360" type="curve" smooth="yes"/>
      <point x="459" y="0" type="line"/>
      <point x="643" y="0" type="line"/>
      <point x="542" y="299" type="line" smooth="yes"/>
      <point x="528" y="341"/>
      <point x="508" y="384"/>
      <point x="481" y="426" type="curve"/>
      <point x="703" y="426" type="line"/>
      <point x="730" y="534" type="line"/>
      <point x="534" y="534" type="line"/>
      <point x="580" y="576"/>
      <point x="620" y="618"/>
      <point x="655" y="660" type="curve" smooth="yes"/>
      <point x="855" y="900" type="line"/>
      <point x="645" y="900" type="line"/>
      <point x="400" y="600" type="line" smooth="yes"/>
      <point x="377" y="572"/>
      <point x="353" y="539"/>
      <point x="328" y="505" type="curve"/>
      <point x="425" y="900" type="line"/>
      <point x="245" y="900" type="line"/>
      <point x="155" y="534" type="line"/>
      <point x="101" y="534" type="line"/>
      <point x="74" y="426" type="line"/>
      <point x="128" y="426" type="line"/>
    </contour>
  </outline>
</glyph>
<glyph name="tugrik" format="2">
  <advance width="750"/>
  <unicode hex="20AE"/>
  <outline>
    <contour>
      <point x="207" y="0" type="line"/>
      <point x="393" y="0" type="line"/>
      <point x="457" y="256" type="line"/>
      <point x="619" y="294" type="line"/>
      <point x="645" y="402" type="line"/>
      <point x="484" y="365" type="line"/>
      <point x="508" y="461" type="line"/>
      <point x="669" y="498" type="line"/>
      <point x="695" y="606" type="line"/>
      <point x="536" y="569" type="line"/>
      <point x="578" y="738" type="line"/>
      <point x="818" y="738" type="line"/>
      <point x="858" y="900" type="line"/>
      <point x="192" y="900" type="line"/>
      <point x="152" y="738" type="line"/>
      <point x="392" y="738" type="line"/>
      <point x="338" y="523" type="line"/>
      <point x="180" y="486" type="line"/>
      <point x="153" y="378" type="line"/>
      <point x="311" y="415" type="line"/>
      <point x="287" y="319" type="line"/>
      <point x="130" y="282" type="line"/>
      <point x="103" y="174" type="line"/>
      <point x="260" y="210" type="line"/>
    </contour>
  </outline>
</glyph>
<glyph name="peso" format="2">
  <advance width="750"/>
  <unicode hex="20B1"/>
  <outline>
    <contour>
      <point x="21" y="0" type="line"/>
      <point x="195" y="0" type="line"/>
      <point x="255" y="240" type="line"/>
      <point x="346" y="240" type="line" smooth="yes"/>
      <point x="474" y="240"/>
      <point x="591" y="312"/>
      <point x="658" y="414" type="curve"/>
      <point x="736" y="414" type="line"/>
      <point x="763" y="522" type="line"/>
      <point x="700" y="522" type="line"/>
      <point x="708" y="552"/>
      <point x="714" y="591"/>
      <point x="709" y="618" type="curve"/>
      <point x="787" y="618" type="line"/>
      <point x="814" y="726" type="line"/>
      <point x="693" y="726" type="line"/>
      <point x="649" y="830"/>
      <point x="550" y="900"/>
      <point x="431" y="900" type="curve" smooth="yes"/>
      <point x="246" y="900" type="line"/>
      <point x="203" y="726" type="line"/>
      <point x="147" y="726" type="line"/>
      <point x="120" y="618" type="line"/>
      <point x="176" y="618" type="line"/>
      <point x="152" y="522" type="line"/>
      <point x="96" y="522" type="line"/>
      <point x="70" y="414" type="line"/>
      <point x="125" y="414" type="line"/>
    </contour>
    <contour>
      <point x="294" y="396" type="line"/>
      <point x="381" y="744" type="line"/>
      <point x="395" y="744" type="line" smooth="yes"/>
      <point x="486" y="744"/>
      <point x="543" y="680"/>
      <point x="543" y="591" type="curve" smooth="yes"/>
      <point x="543" y="487"/>
      <point x="458" y="396"/>
      <point x="347" y="396" type="curve" smooth="yes"/>
    </contour>
  </outline>
</glyph>
<glyph name="guarani" format="2">
  <advance width="750"/>
  <unicode hex="20B2"/>
  <outline>
    <contour>
      <point x="280" y="-120" type="line"/>
      <point x="388" y="-120" type="line"/>
      <point x="413" y="-19" type="line"/>
      <point x="487" y="-16"/>
      <point x="560" y="6"/>
      <point x="624" y="47" type="curve"/>
      <point x="738" y="504" type="line"/>
      <point x="451" y="504" type="line"/>
      <point x="414" y="354" type="line"/>
      <point x="549" y="354" type="line"/>
      <point x="497" y="152" type="line"/>
      <point x="473" y="144"/>
      <point x="447" y="140"/>
      <point x="423" y="140" type="curve" smooth="yes"/>
      <point x="326" y="140"/>
      <point x="263" y="217"/>
      <point x="263" y="337" type="curve" smooth="yes"/>
      <point x="263" y="545"/>
      <point x="398" y="759"/>
      <point x="530" y="759" type="curve" smooth="yes"/>
      <point x="600" y="759"/>
      <point x="664" y="710"/>
      <point x="693" y="635" type="curve"/>
      <point x="782" y="810" type="line"/>
      <point x="745" y="855"/>
      <point x="696" y="887"/>
      <point x="641" y="905" type="curve"/>
      <point x="662" y="990" type="line"/>
      <point x="554" y="990" type="line"/>
      <point x="537" y="920" type="line"/>
      <point x="306" y="914"/>
      <point x="91" y="635"/>
      <point x="91" y="336" type="curve" smooth="yes"/>
      <point x="91" y="161"/>
      <point x="175" y="34"/>
      <point x="308" y="-6" type="curve"/>
    </contour>
  </outline>
</glyph>
<glyph name="hryvnia" format="2">
  <advance width="750"/>
  <unicode hex="20B4"/>
  <outline>
    <contour>
      <point x="97" y="492" type="line"/>
      <point x="747" y="492" type="line"/>
      <point x="778" y="617" type="line"/>
      <point x="686" y="617" type="line"/>
      <point x="700" y="645"/>
      <point x="705" y="673"/>
      <point x="705" y="697" type="curve" smooth="yes"/>
      <point x="705" y="847"/>
      <point x="562" y="920"/>
      <point x="420" y="920" type="curve" smooth="yes"/>
      <point x="357" y="920"/>
      <point x="294" y="906"/>
      <point x="238" y="876" type="curve"/>
      <point x="237" y="718" type="line"/>
      <point x="280" y="752"/>
      <point x="338" y="777"/>
      <point x="402" y="777" type="curve" smooth="yes"/>
      <point x="484" y="777"/>
      <point x="532" y="734"/>
      <point x="532" y="676" type="curve" smooth="yes"/>
      <point x="532" y="657"/>
      <point x="530" y="637"/>
      <point x="523" y="617" type="curve"/>
      <point x="128" y="617" type="line"/>
    </contour>
    <contour>
      <point x="402" y="-20" type="curve" smooth="yes"/>
      <point x="465" y="-20"/>
      <point x="528" y="-6"/>
      <point x="584" y="24" type="curve"/>
      <point x="585" y="182" type="line"/>
      <point x="542" y="148"/>
      <point x="484" y="123"/>
      <point x="420" y="123" type="curve" smooth="yes"/>
      <point x="338" y="123"/>
      <point x="290" y="166"/>
      <point x="290" y="224" type="curve" smooth="yes"/>
      <point x="290" y="242"/>
      <point x="292" y="262"/>
      <point x="298" y="281" type="curve"/>
      <point x="694" y="281" type="line"/>
      <point x="725" y="406" type="line"/>
      <point x="75" y="406" type="line"/>
      <point x="44" y="281" type="line"/>
      <point x="135" y="281" type="line"/>
      <point x="122" y="253"/>
      <point x="117" y="227"/>
      <point x="117" y="203" type="curve" smooth="yes"/>
      <point x="117" y="53"/>
      <point x="260" y="-20"/>
    </contour>
  </outline>
</glyph>
<glyph name="cedi" format="2">
  <advance width="750"/>
  <unicode hex="20B5"/>
  <outline>
    <contour>
      <point x="310" y="-120" type="line"/>
      <point x="418" y="-120" type="line"/>
      <point x="443" y="-19" type="line"/>
      <point x="513" y="-16"/>
      <point x="582" y="7"/>
      <point x="642" y="47" type="curve"/>
      <point x="642" y="244" type="line"/>
      <point x="592" y="179"/>
      <point x="520" y="140"/>
      <point x="453" y="140" type="curve" smooth="yes"/>
      <point x="356" y="140"/>
      <point x="293" y="217"/>
      <point x="293" y="337" type="curve" smooth="yes"/>
      <point x="293" y="545"/>
      <point x="428" y="759"/>
      <point x="560" y="759" type="curve" smooth="yes"/>
      <point x="630" y="759"/>
      <point x="694" y="710"/>
      <point x="723" y="635" type="curve"/>
      <point x="812" y="810" type="line"/>
      <point x="775" y="855"/>
      <point x="726" y="887"/>
      <point x="671" y="905" type="curve"/>
      <point x="692" y="990" type="line"/>
      <point x="584" y="990" type="line"/>
      <point x="567" y="920" type="line"/>
      <point x="336" y="914"/>
      <point x="121" y="635"/>
      <point x="121" y="336" type="curve" smooth="yes"/>
      <point x="121" y="161"/>
      <point x="205" y="33"/>
      <point x="338" y="-6" type="curve"/>
    </contour>
  </outline>
</glyph>
<glyph name="tenge" format="2">
  <advance width="750"/>
  <unicode hex="20B8"/>
  <outline>
    <contour>
      <point x="208" y="0" type="line"/>
      <point x="394" y="0" type="line"/>
      <point x="535" y="564" type="line"/>
      <point x="767" y="564" type="line"/>
      <point x="798" y="690" type="line"/>
      <point x="148" y="690" type="line"/>
      <point x="117" y="564" type="line"/>
      <point x="349" y="564" type="line"/>
    </contour>
    <contour>
      <point x="170" y="774" type="line"/>
      <point x="820" y="774" type="line"/>
      <point x="851" y="900" type="line"/>
      <point x="201" y="900" type="line"/>
    </contour>
  </outline>
</glyph>
<glyph name="rupeeIndian" format="2">
  <advance width="750"/>
  <unicode hex="20B9"/>
  <outline>
    <contour>
      <point x="363" y="0" type="line"/>
      <point x="558" y="0" type="line"/>
      <point x="368" y="287" type="line"/>
      <point x="397" y="289" type="line" smooth="yes"/>
      <point x="560" y="300"/>
      <point x="660" y="420"/>
      <point x="682" y="532" type="curve"/>
      <point x="766" y="532" type="line"/>
      <point x="793" y="640" type="line"/>
      <point x="700" y="640" type="line"/>
      <point x="700" y="698"/>
      <point x="676" y="765"/>
      <point x="635" y="792" type="curve"/>
      <point x="830" y="792" type="line"/>
      <point x="857" y="900" type="line"/>
      <point x="191" y="900" type="line"/>
      <point x="151" y="738" type="line"/>
      <point x="404" y="738" type="line" smooth="yes"/>
      <point x="489" y="738"/>
      <point x="533" y="698"/>
      <point x="531" y="640" type="curve"/>
      <point x="127" y="640" type="line"/>
      <point x="100" y="532" type="line"/>
      <point x="512" y="532" type="line"/>
      <point x="497" y="474"/>
      <point x="433" y="434"/>
      <point x="348" y="434" type="curve" smooth="yes"/>
      <point x="76" y="434" type="line"/>
      <point x="76" y="432" type="line"/>
    </contour>
  </outline>
</glyph>
<glyph name="liraTurkish" format="2">
  <advance width="750"/>
  <unicode hex="20BA"/>
  <outline>
    <contour>
      <point x="73" y="0" type="line"/>
      <point x="407" y="0" type="line" smooth="yes"/>
      <point x="575" y="0"/>
      <point x="717" y="144"/>
      <point x="717" y="306" type="curve" smooth="yes"/>
      <point x="717" y="334"/>
      <point x="711" y="363"/>
      <point x="699" y="390" type="curve"/>
      <point x="521" y="391" type="line"/>
      <point x="539" y="371"/>
      <point x="550" y="341"/>
      <point x="550" y="306" type="curve" smooth="yes"/>
      <point x="550" y="234"/>
      <point x="493" y="147"/>
      <point x="394" y="146" type="curve" smooth="yes"/>
      <point x="277" y="145" type="line"/>
      <point x="335" y="385" type="line"/>
      <point x="537" y="434" type="line"/>
      <point x="564" y="542" type="line"/>
      <point x="363" y="493" type="line"/>
      <point x="386" y="589" type="line"/>
      <point x="587" y="638" type="line"/>
      <point x="614" y="746" type="line"/>
      <point x="414" y="697" type="line"/>
      <point x="463" y="900" type="line"/>
      <point x="295" y="900" type="line"/>
      <point x="234" y="652" type="line"/>
      <point x="128" y="626" type="line"/>
      <point x="102" y="518" type="line"/>
      <point x="207" y="544" type="line"/>
      <point x="184" y="448" type="line"/>
      <point x="78" y="422" type="line"/>
      <point x="52" y="314" type="line"/>
      <point x="157" y="340" type="line"/>
    </contour>
  </outline>
</glyph>
<glyph name="manat" format="2">
  <advance width="750"/>
  <unicode hex="20BC"/>
  <outline>
    <contour>
      <point x="-27" y="0" type="line"/>
      <point x="141" y="0" type="line"/>
      <point x="267" y="507" type="line" smooth="yes"/>
      <point x="287" y="588"/>
      <point x="337" y="632"/>
      <point x="397" y="639" type="curve"/>
      <point x="255" y="60" type="line"/>
      <point x="375" y="60" type="line"/>
      <point x="514" y="624" type="line"/>
      <point x="569" y="604"/>
      <point x="596" y="551"/>
      <point x="575" y="468" type="curve" smooth="yes"/>
      <point x="459" y="0" type="line"/>
      <point x="627" y="0" type="line"/>
      <point x="737" y="445" type="line" smooth="yes"/>
      <point x="783" y="633"/>
      <point x="705" y="754"/>
      <point x="554" y="786" type="curve"/>
      <point x="597" y="960" type="line"/>
      <point x="477" y="960" type="line"/>
      <point x="437" y="801" type="line"/>
      <point x="281" y="801"/>
      <point x="147" y="712"/>
      <point x="101" y="524" type="curve" smooth="yes"/>
    </contour>
  </outline>
</glyph>
<glyph name="ruble" format="2">
  <advance width="750"/>
  <unicode hex="20BD"/>
  <outline>
    <contour>
      <point x="49" y="0" type="line"/>
      <point x="223" y="0" type="line"/>
      <point x="245" y="90" type="line"/>
      <point x="513" y="90" type="line"/>
      <point x="539" y="198" type="line"/>
      <point x="271" y="198" type="line"/>
      <point x="295" y="294" type="line"/>
      <point x="435" y="294" type="line" smooth="yes"/>
      <point x="627" y="294"/>
      <point x="794" y="454"/>
      <point x="794" y="631" type="curve" smooth="yes"/>
      <point x="794" y="783"/>
      <point x="670" y="900"/>
      <point x="508" y="900" type="curve" smooth="yes"/>
      <point x="274" y="900" type="line"/>
      <point x="150" y="402" type="line"/>
      <point x="73" y="402" type="line"/>
      <point x="47" y="294" type="line"/>
      <point x="123" y="294" type="line"/>
      <point x="99" y="198" type="line"/>
      <point x="23" y="198" type="line"/>
      <point x="-3" y="90" type="line"/>
      <point x="72" y="90" type="line"/>
    </contour>
    <contour>
      <point x="334" y="450" type="line"/>
      <point x="409" y="744" type="line"/>
      <point x="466" y="744" type="line" smooth="yes"/>
      <point x="557" y="744"/>
      <point x="614" y="691"/>
      <point x="614" y="617" type="curve" smooth="yes"/>
      <point x="614" y="528"/>
      <point x="534" y="450"/>
      <point x="430" y="450" type="curve" smooth="yes"/>
    </contour>
  </outline>
</glyph>
<glyph name="lari" format="2">
  <advance width="750"/>
  <unicode hex="20BE"/>
  <outline>
    <contour>
      <point x="-1" y="0" type="line"/>
      <point x="605" y="2" type="line"/>
      <point x="646" y="162" type="line"/>
      <point x="509" y="162" type="line" smooth="yes"/>
      <point x="354" y="162"/>
      <point x="282" y="284"/>
      <point x="282" y="423" type="curve" smooth="yes"/>
      <point x="282" y="555"/>
      <point x="357" y="758"/>
      <point x="501" y="758" type="curve" smooth="yes"/>
      <point x="570" y="758"/>
      <point x="606" y="712"/>
      <point x="606" y="656" type="curve" smooth="yes"/>
      <point x="606" y="603"/>
      <point x="573" y="553"/>
      <point x="526" y="518" type="curve"/>
      <point x="725" y="518" type="line"/>
      <point x="758" y="567"/>
      <point x="777" y="622"/>
      <point x="777" y="680" type="curve" smooth="yes"/>
      <point x="777" y="761"/>
      <point x="739" y="834"/>
      <point x="671" y="878" type="curve"/>
      <point x="700" y="992" type="line"/>
      <point x="592" y="992" type="line"/>
      <point x="572" y="915" type="line"/>
      <point x="545" y="920"/>
      <point x="514" y="921"/>
      <point x="490" y="919" type="curve"/>
      <point x="508" y="992" type="line"/>
      <point x="400" y="992" type="line"/>
      <point x="374" y="889" type="line"/>
      <point x="202" y="809"/>
      <point x="108" y="593"/>
      <point x="108" y="418" type="curve" smooth="yes"/>
      <point x="108" y="317"/>
      <point x="139" y="230"/>
      <point x="200" y="157" type="curve"/>
      <point x="38" y="156" type="line"/>
    </contour>
  </outline>
</glyph>
<glyph name="bitcoin" format="2">
  <advance width="750"/>
  <unicode hex="20BF"/>
  <outline>
    <contour>
      <point x="114" y="-120" type="line"/>
      <point x="222" y="-120" type="line"/>
      <point x="252" y="0" type="line"/>
      <point x="280" y="0"/>
      <point x="308" y="0"/>
      <point x="336" y="0" type="curve"/>
      <point x="306" y="-120" type="line"/>
      <point x="414" y="-120" type="line"/>
      <point x="448" y="14" type="line"/>
      <point x="589" y="56"/>
      <point x="701" y="187"/>
      <point x="701" y="331" type="curve" smooth="yes"/>
      <point x="701" y="409"/>
      <point x="667" y="478"/>
      <point x="613" y="525" type="curve"/>
      <point x="676" y="566"/>
      <point x="718" y="639"/>
      <point x="718" y="716" type="curve" smooth="yes"/>
      <point x="718" y="779"/>
      <point x="690" y="831"/>
      <point x="644" y="863" type="curve"/>
      <point x="676" y="990" type="line"/>
      <point x="568" y="990" type="line"/>
      <point x="545" y="900" type="line"/>
      <point x="517" y="900"/>
      <point x="490" y="900"/>
      <point x="462" y="900" type="curve"/>
      <point x="484" y="990" type="line"/>
      <point x="376" y="990" type="line"/>
      <point x="354" y="900" type="line"/>
      <point x="246" y="900" type="line"/>
      <point x="21" y="0" type="line"/>
      <point x="144" y="0" type="line"/>
    </contour>
    <contour>
      <point x="235" y="162" type="line"/>
      <point x="312" y="468" type="line"/>
      <point x="374" y="468" type="line" smooth="yes"/>
      <point x="456" y="468"/>
      <point x="513" y="413"/>
      <point x="513" y="336" type="curve" smooth="yes"/>
      <point x="513" y="243"/>
      <point x="431" y="162"/>
      <point x="338" y="162" type="curve" smooth="yes"/>
    </contour>
    <contour>
      <point x="344" y="594" type="line"/>
      <point x="387" y="768" type="line"/>
      <point x="471" y="768" type="line" smooth="yes"/>
      <point x="517" y="768"/>
      <point x="550" y="737"/>
      <point x="550" y="693" type="curve" smooth="yes"/>
      <point x="550" y="640"/>
      <point x="503" y="594"/>
      <point x="450" y="594" type="curve" smooth="yes"/>
    </contour>
  </outline>
</glyph>
<glyph name="careof" format="2">
  <advance width="960"/>
  <unicode hex="2105"/>
  <outline>
    <contour>
      <point x="-15" y="0" type="line"/>
      <point x="137" y="0" type="line"/>
      <point x="968" y="900" type="line"/>
      <point x="816" y="900" type="line"/>
    </contour>
    <contour>
      <point x="670" y="-18" type="curve" smooth="yes"/>
      <point x="789" y="-18"/>
      <point x="896" y="85"/>
      <point x="896" y="200" type="curve" smooth="yes"/>
      <point x="896" y="296"/>
      <point x="820" y="378"/>
      <point x="713" y="378" type="curve" smooth="yes"/>
      <point x="595" y="378"/>
      <point x="487" y="275"/>
      <point x="487" y="159" type="curve" smooth="yes"/>
      <point x="487" y="63"/>
      <point x="563" y="-18"/>
    </contour>
    <contour>
      <point x="682" y="99" type="curve" smooth="yes"/>
      <point x="641" y="99"/>
      <point x="611" y="131"/>
      <point x="611" y="170" type="curve" smooth="yes"/>
      <point x="611" y="221"/>
      <point x="657" y="261"/>
      <point x="701" y="261" type="curve" smooth="yes"/>
      <point x="742" y="261"/>
      <point x="772" y="228"/>
      <point x="772" y="189" type="curve" smooth="yes"/>
      <point x="772" y="139"/>
      <point x="725" y="99"/>
    </contour>
    <contour>
      <point x="321" y="522" type="curve" smooth="yes"/>
      <point x="352" y="522"/>
      <point x="382" y="529"/>
      <point x="410" y="540" type="curve"/>
      <point x="410" y="659" type="line"/>
      <point x="392" y="647"/>
      <point x="372" y="639"/>
      <point x="348" y="639" type="curve" smooth="yes"/>
      <point x="301" y="639"/>
      <point x="270" y="670"/>
      <point x="270" y="709" type="curve" smooth="yes"/>
      <point x="270" y="760"/>
      <point x="312" y="801"/>
      <point x="364" y="801" type="curve" smooth="yes"/>
      <point x="399" y="801"/>
      <point x="421" y="784"/>
      <point x="436" y="764" type="curve"/>
      <point x="492" y="873" type="line"/>
      <point x="460" y="901"/>
      <point x="415" y="918"/>
      <point x="369" y="918" type="curve" smooth="yes"/>
      <point x="246" y="918"/>
      <point x="139" y="814"/>
      <point x="139" y="699" type="curve" smooth="yes"/>
      <point x="139" y="603"/>
      <point x="215" y="522"/>
    </contour>
  </outline>
</glyph>
<glyph name="literSign" format="2">
  <advance width="600"/>
  <unicode hex="2113"/>
  <outline>
    <contour>
      <point x="341" y="-15" type="curve" smooth="yes"/>
      <point x="399" y="-15"/>
      <point x="444" y="-2"/>
      <point x="478" y="22" type="curve"/>
      <point x="478" y="170" type="line"/>
      <point x="445" y="143"/>
      <point x="414" y="131"/>
      <point x="379" y="131" type="curve" smooth="yes"/>
      <point x="312" y="131"/>
      <point x="276" y="175"/>
      <point x="296" y="252" type="curve" smooth="yes"/>
      <point x="325" y="368" type="line"/>
      <point x="528" y="441"/>
      <point x="686" y="634"/>
      <point x="686" y="796" type="curve" smooth="yes"/>
      <point x="686" y="905"/>
      <point x="615" y="972"/>
      <point x="506" y="972" type="curve" smooth="yes"/>
      <point x="378" y="972"/>
      <point x="279" y="880"/>
      <point x="242" y="733" type="curve" smooth="yes"/>
      <point x="165" y="429" type="line"/>
      <point x="136" y="423"/>
      <point x="107" y="420"/>
      <point x="78" y="420" type="curve"/>
      <point x="49" y="300" type="line"/>
      <point x="80" y="300"/>
      <point x="108" y="302"/>
      <point x="135" y="307" type="curve"/>
      <point x="124" y="262" type="line" smooth="yes"/>
      <point x="84" y="97"/>
      <point x="172" y="-15"/>
    </contour>
    <contour>
      <point x="359" y="508" type="curve"/>
      <point x="408" y="698" type="line" smooth="yes"/>
      <point x="430" y="785"/>
      <point x="465" y="833"/>
      <point x="507" y="833" type="curve" smooth="yes"/>
      <point x="536" y="833"/>
      <point x="553" y="811"/>
      <point x="553" y="775" type="curve" smooth="yes"/>
      <point x="553" y="687"/>
      <point x="464" y="565"/>
    </contour>
  </outline>
</glyph>
<glyph name="Ohm" format="2">
  <advance width="1060"/>
  <unicode hex="2126"/>
  <outline>
    <contour>
      <point x="-26" y="0" type="line"/>
      <point x="390" y="0" type="line"/>
      <point x="355" y="94" type="line" smooth="yes"/>
      <point x="329" y="164"/>
      <point x="303" y="274"/>
      <point x="303" y="377" type="curve" smooth="yes"/>
      <point x="303" y="615"/>
      <point x="447" y="748"/>
      <point x="612" y="748" type="curve" smooth="yes"/>
      <point x="753" y="748"/>
      <point x="841" y="651"/>
      <point x="839" y="515" type="curve" smooth="yes"/>
      <point x="837" y="401"/>
      <point x="770" y="292"/>
      <point x="619" y="131" type="curve" smooth="yes"/>
      <point x="496" y="0" type="line"/>
      <point x="938" y="0" type="line"/>
      <point x="978" y="162" type="line"/>
      <point x="822" y="162" type="line"/>
      <point x="954" y="281"/>
      <point x="1019" y="406"/>
      <point x="1019" y="540" type="curve" smooth="yes"/>
      <point x="1019" y="751"/>
      <point x="857" y="918"/>
      <point x="630" y="918" type="curve" smooth="yes"/>
      <point x="364" y="918"/>
      <point x="132" y="688"/>
      <point x="132" y="386" type="curve" smooth="yes"/>
      <point x="132" y="314"/>
      <point x="145" y="225"/>
      <point x="165" y="162" type="curve"/>
      <point x="14" y="162" type="line"/>
    </contour>
  </outline>
</glyph>
<glyph name="estimated" format="2">
  <advance width="1260"/>
  <unicode hex="212E"/>
  <outline>
    <contour>
      <point x="601" y="-102" type="curve" smooth="yes"/>
      <point x="818" y="-102"/>
      <point x="1022" y="28"/>
      <point x="1134" y="210" type="curve"/>
      <point x="975" y="210" type="line"/>
      <point x="886" y="102"/>
      <point x="753" y="30"/>
      <point x="612" y="30" type="curve" smooth="yes"/>
      <point x="464" y="30"/>
      <point x="341" y="110"/>
      <point x="283" y="232" type="curve"/>
      <point x="320" y="385" type="line"/>
      <point x="1208" y="385" type="line"/>
      <point x="1219" y="428"/>
      <point x="1224" y="471"/>
      <point x="1224" y="515" type="curve" smooth="yes"/>
      <point x="1224" y="790"/>
      <point x="1010" y="1002"/>
      <point x="731" y="1002" type="curve" smooth="yes"/>
      <point x="404" y="1002"/>
      <point x="108" y="708"/>
      <point x="108" y="385" type="curve" smooth="yes"/>
      <point x="108" y="110"/>
      <point x="322" y="-102"/>
    </contour>
    <contour>
      <point x="352" y="517" type="line"/>
      <point x="408" y="743" type="line"/>
      <point x="493" y="821"/>
      <point x="604" y="870"/>
      <point x="720" y="870" type="curve" smooth="yes"/>
      <point x="861" y="870"/>
      <point x="980" y="797"/>
      <point x="1042" y="684" type="curve"/>
      <point x="1001" y="517" type="line"/>
    </contour>
  </outline>
</glyph>
<glyph name="rightArrow" format="2">
  <advance width="1440"/>
  <unicode hex="2192"/>
  <outline>
    <contour>
      <point x="716" y="30" type="line"/>
      <point x="938" y="30" type="line"/>
      <point x="1344" y="360" type="line"/>
      <point x="938" y="690" type="line"/>
      <point x="716" y="690" type="line"/>
      <point x="955" y="494" type="line" smooth="yes"/>
      <point x="985" y="470"/>
      <point x="1014" y="443"/>
      <point x="1063" y="417" type="curve"/>
      <point x="1008" y="427"/>
      <point x="933" y="432"/>
      <point x="758" y="432" type="curve" smooth="yes"/>
      <point x="180" y="432" type="line"/>
      <point x="180" y="288" type="line"/>
      <point x="758" y="288" type="line" smooth="yes"/>
      <point x="933" y="288"/>
      <point x="1008" y="293"/>
      <point x="1063" y="303" type="curve"/>
      <point x="1014" y="277"/>
      <point x="985" y="250"/>
      <point x="955" y="226" type="curve" smooth="yes"/>
    </contour>
  </outline>
</glyph>
<glyph name="partialdiff" format="2">
  <advance width="720"/>
  <unicode hex="2202"/>
  <outline>
    <contour>
      <point x="329" y="-20" type="curve" smooth="yes"/>
      <point x="543" y="-20"/>
      <point x="690" y="178"/>
      <point x="690" y="375" type="curve" smooth="yes"/>
      <point x="690" y="433"/>
      <point x="677" y="498"/>
      <point x="651" y="567" type="curve" smooth="yes"/>
      <point x="605" y="687"/>
      <point x="510" y="879"/>
      <point x="463" y="962" type="curve"/>
      <point x="294" y="960" type="line"/>
      <point x="359" y="841"/>
      <point x="424" y="718"/>
      <point x="477" y="597" type="curve"/>
      <point x="442" y="610"/>
      <point x="407" y="614"/>
      <point x="379" y="614" type="curve" smooth="yes"/>
      <point x="200" y="614"/>
      <point x="37" y="449"/>
      <point x="37" y="264" type="curve" smooth="yes"/>
      <point x="37" y="104"/>
      <point x="160" y="-20"/>
    </contour>
    <contour>
      <point x="340" y="136" type="curve" smooth="yes"/>
      <point x="260" y="136"/>
      <point x="202" y="203"/>
      <point x="202" y="280" type="curve" smooth="yes"/>
      <point x="202" y="376"/>
      <point x="287" y="464"/>
      <point x="380" y="464" type="curve" smooth="yes"/>
      <point x="461" y="464"/>
      <point x="519" y="402"/>
      <point x="519" y="324" type="curve" smooth="yes"/>
      <point x="519" y="226"/>
      <point x="434" y="136"/>
    </contour>
  </outline>
</glyph>
<glyph name="emptyset" format="2">
  <advance width="750"/>
  <unicode hex="2205"/>
  <outline>
    <contour>
      <point x="377" y="138" type="curve" smooth="yes"/>
      <point x="569" y="138"/>
      <point x="735" y="305"/>
      <point x="735" y="488" type="curve" smooth="yes"/>
      <point x="735" y="522"/>
      <point x="729" y="555"/>
      <point x="717" y="585" type="curve"/>
      <point x="816" y="655" type="line"/>
      <point x="744" y="761" type="line"/>
      <point x="644" y="690" type="line"/>
      <point x="588" y="741"/>
      <point x="513" y="763"/>
      <point x="451" y="763" type="curve" smooth="yes"/>
      <point x="260" y="763"/>
      <point x="93" y="599"/>
      <point x="93" y="414" type="curve" smooth="yes"/>
      <point x="93" y="379"/>
      <point x="99" y="346"/>
      <point x="110" y="315" type="curve"/>
      <point x="12" y="246" type="line"/>
      <point x="83" y="140" type="line"/>
      <point x="184" y="211" type="line"/>
      <point x="240" y="156"/>
      <point x="314" y="138"/>
    </contour>
    <contour>
      <point x="393" y="282" type="curve" smooth="yes"/>
      <point x="359" y="282"/>
      <point x="332" y="291"/>
      <point x="308" y="308" type="curve"/>
      <point x="581" y="500" type="line"/>
      <point x="583" y="491"/>
      <point x="583" y="482"/>
      <point x="583" y="473" type="curve" smooth="yes"/>
      <point x="583" y="372"/>
      <point x="495" y="282"/>
    </contour>
    <contour>
      <point x="246" y="401" type="line"/>
      <point x="244" y="410"/>
      <point x="244" y="419"/>
      <point x="244" y="428" type="curve" smooth="yes"/>
      <point x="244" y="529"/>
      <point x="333" y="618"/>
      <point x="435" y="618" type="curve" smooth="yes"/>
      <point x="466" y="618"/>
      <point x="496" y="608"/>
      <point x="519" y="593" type="curve"/>
    </contour>
  </outline>
</glyph>
<glyph name="increment" format="2">
  <advance width="820"/>
  <unicode hex="2206"/>
  <outline>
    <contour>
      <point x="-63" y="0" type="line"/>
      <point x="733" y="0" type="line"/>
      <point x="566" y="932" type="line"/>
      <point x="564" y="932" type="line"/>
    </contour>
    <contour>
      <point x="218" y="144" type="line"/>
      <point x="386" y="396" type="line" smooth="yes"/>
      <point x="419" y="446"/>
      <point x="446" y="488"/>
      <point x="476" y="548" type="curve"/>
      <point x="477" y="487"/>
      <point x="486" y="445"/>
      <point x="494" y="396" type="curve" smooth="yes"/>
      <point x="537" y="144" type="line"/>
    </contour>
  </outline>
</glyph>
<glyph name="product" format="2">
  <advance width="820"/>
  <unicode hex="220F"/>
  <outline>
    <contour>
      <point x="-9" y="-120" type="line"/>
      <point x="165" y="-120" type="line"/>
      <point x="379" y="738" type="line"/>
      <point x="659" y="738" type="line"/>
      <point x="445" y="-120" type="line"/>
      <point x="619" y="-120" type="line"/>
      <point x="874" y="900" type="line"/>
      <point x="246" y="900" type="line"/>
    </contour>
  </outline>
</glyph>
<glyph name="summation" format="2">
  <advance width="760"/>
  <unicode hex="2211"/>
  <outline>
    <contour>
      <point x="-87" y="-120" type="line"/>
      <point x="595" y="-120" type="line"/>
      <point x="635" y="42" type="line"/>
      <point x="272" y="42" type="line"/>
      <point x="582" y="386" type="line"/>
      <point x="438" y="738" type="line"/>
      <point x="813" y="738" type="line"/>
      <point x="853" y="900" type="line"/>
      <point x="183" y="900" type="line"/>
      <point x="183" y="898" type="line"/>
      <point x="386" y="404" type="line"/>
      <point x="-87" y="-118" type="line"/>
    </contour>
  </outline>
</glyph>
<glyph name="radical" format="2">
  <advance width="750"/>
  <unicode hex="221A"/>
  <outline>
    <contour>
      <point x="325" y="-149" type="line"/>
      <point x="327" y="-149" type="line"/>
      <point x="938" y="960" type="line"/>
      <point x="781" y="960" type="line"/>
      <point x="453" y="366" type="line" smooth="yes"/>
      <point x="432" y="327"/>
      <point x="404" y="278"/>
      <point x="373" y="217" type="curve"/>
      <point x="371" y="278"/>
      <point x="358" y="329"/>
      <point x="350" y="366" type="curve" smooth="yes"/>
      <point x="319" y="519" type="line"/>
      <point x="105" y="519" type="line"/>
      <point x="71" y="381" type="line"/>
      <point x="196" y="381" type="line"/>
    </contour>
  </outline>
</glyph>
